<svg width="17" height="28" viewBox="0 0 17 28" fill="none" xmlns="http://www.w3.org/2000/svg">
<path d="M10.458 27.8008C10.3839 27.8008 10.3189 27.7977 10.2633 27.7946L5.74056 27.504C5.30467 27.4762 4.9708 27.1021 4.99244 26.6662C5.16865 22.9751 5.2954 20.5731 5.36959 16.8665C5.1161 16.8881 4.85333 16.9221 4.58128 16.9592C3.69096 17.0767 2.76972 17.1942 1.86394 16.9469C1.72791 16.9098 1.4095 16.8232 1.18692 16.5202C1.00143 16.2729 0.979794 16.0102 0.967429 15.8834L0.615009 11.8924C0.605734 11.7749 0.581003 11.4967 0.741756 11.2154C0.868504 10.9897 1.19001 10.6249 1.92576 10.7146C2.79445 10.8228 3.68168 10.764 4.52873 10.5446C4.53182 9.57695 4.71421 8.62788 4.88733 7.70355C5.01408 7.0389 5.13464 6.41134 5.1872 5.79306C5.29231 4.56577 5.50252 3.29212 6.29701 2.26268C6.80091 1.6073 7.52121 1.08794 8.49191 0.670602C10.5322 -0.210449 12.4458 -0.0342389 14.4738 0.151246C14.9684 0.197617 15.4816 0.243988 15.9948 0.27181C16.2112 0.284176 16.4121 0.383101 16.5543 0.546946C16.6965 0.71079 16.7645 0.924097 16.746 1.1405C16.6069 2.7573 16.3039 4.37102 15.8495 5.92909C15.7629 6.22895 15.5094 6.44844 15.2003 6.49481C14.6778 6.5721 14.1863 6.45772 13.7504 6.35879C13.3763 6.27223 13.0208 6.18876 12.8755 6.29078C12.789 6.34952 12.687 6.54118 12.6406 6.62156C12.0068 7.77466 11.6915 9.09778 11.7348 10.4116C12.2696 10.4425 12.789 10.5198 13.2991 10.594C14.0101 10.6991 14.6778 10.795 15.3394 10.7702C15.5929 10.761 15.8371 10.8722 15.9948 11.0701C16.1524 11.2679 16.2081 11.5307 16.1431 11.7749L15.4723 14.3315C15.3146 14.9374 15.1477 15.565 15.2652 16.0998C15.3146 16.3348 15.2559 16.5821 15.1044 16.7707C14.953 16.9592 14.7242 17.0674 14.4831 17.0674L11.8368 17.0736C11.9821 19.1201 11.9234 21.2285 11.8646 23.275C11.8244 24.6692 11.7843 24.7712 11.8121 26.1438C11.8275 26.8981 11.5833 27.4082 11.0887 27.6617C10.8599 27.7792 10.6343 27.8039 10.455 27.8039L10.458 27.8008ZM6.62779 25.9552L10.2138 26.184V26.1747C10.186 24.7619 10.2262 24.6414 10.2664 23.2286C10.3313 20.941 10.3962 18.5729 10.1705 16.3564C10.1489 16.1307 10.22 15.9081 10.3715 15.7381C10.523 15.5712 10.7394 15.4754 10.965 15.4723L13.6329 15.4661C13.6669 14.9065 13.806 14.3779 13.9235 13.9204L14.3409 12.3345C13.9081 12.2974 13.4845 12.2356 13.0672 12.1737C12.3562 12.0686 11.6822 11.9728 11.0269 11.9975C10.6126 12.0099 10.254 11.71 10.2015 11.2989C9.96033 9.43165 10.3282 7.49334 11.2371 5.84562C11.4071 5.53648 11.6111 5.21806 11.9543 4.97693C12.6839 4.46376 13.4753 4.64615 14.1121 4.79454C14.2388 4.82236 14.3625 4.85328 14.4769 4.87492C14.7427 3.86712 14.9375 2.84077 15.0642 1.80515C14.8138 1.78351 14.5696 1.76187 14.3285 1.74023C12.4335 1.56711 10.795 1.41872 9.12256 2.13593C8.40535 2.44507 7.89527 2.80367 7.5614 3.23647C7.0204 3.93822 6.86583 4.94602 6.77927 5.92599C6.71744 6.62465 6.58451 7.32331 6.45777 7.99724C6.25373 9.06996 6.06207 10.0839 6.14553 11.0546C6.17645 11.4194 5.95696 11.7595 5.61381 11.88C4.54419 12.2541 3.39418 12.4149 2.26273 12.3468L2.53477 15.4506C3.07886 15.5341 3.70951 15.4506 4.37416 15.3672C4.98317 15.2868 5.61381 15.2064 6.23519 15.2466C6.6618 15.2744 6.99258 15.633 6.98331 16.0596C6.91529 19.791 6.79473 22.2239 6.6247 25.9521L6.62779 25.9552Z" fill="#010101"/>
</svg>
