<svg width="23" height="25" viewBox="0 0 23 25" fill="none" xmlns="http://www.w3.org/2000/svg">
<path d="M15.9396 24.1698C15.3584 24.1698 14.7741 24.1389 14.2022 24.0925L6.55719 23.4958C5.20006 23.3907 3.14737 23.23 1.8057 21.8914C0.674242 20.763 0.371285 19.1772 0.213623 17.6315C-0.200626 13.5693 -0.0120498 9.47323 0.776259 5.46367C1.03285 4.16528 1.40072 2.83288 2.37452 1.88691C3.91404 0.396855 6.16767 0.489598 8.15545 0.690539L9.65478 0.842018C11.6889 0.770916 13.7293 0.789464 15.7541 0.897663C17.8532 1.01205 20.7962 1.4232 22.1348 3.67375C22.8458 4.87321 22.9015 6.23961 22.8953 7.65239C22.8798 11.1086 22.7376 14.6111 22.4718 18.0612C22.3574 19.5358 22.1843 20.9516 21.3063 22.1202C20.0666 23.7648 18.0263 24.1698 15.9427 24.1698H15.9396ZM5.58958 2.21151C4.77036 2.2888 4.02533 2.51756 3.49051 3.03692C2.79804 3.70775 2.53836 4.80211 2.34669 5.77281C1.5893 9.6278 1.40691 13.5632 1.80879 17.4676C1.93554 18.7165 2.16121 19.9809 2.94024 20.7569C3.79038 21.607 5.19697 21.7801 6.68394 21.8976L14.329 22.4942C16.5146 22.6643 18.9074 22.6395 20.0264 21.1526C20.6447 20.3302 20.7808 19.1617 20.8766 17.9344C21.1394 14.5215 21.2785 11.0591 21.2939 7.64311C21.3001 6.41892 21.263 5.34002 20.7591 4.48988C19.8224 2.91326 17.5471 2.59485 15.6676 2.49283C15.4481 2.48046 15.2255 2.47119 15.006 2.45882C14.8638 2.7556 14.5454 2.94417 14.2022 2.90708L9.60223 2.44028C8.52332 2.48046 7.44442 2.54538 6.37171 2.63813C6.03474 2.66286 5.73488 2.48665 5.58958 2.20533V2.21151Z" fill="#010101"/>
<path d="M11.3829 17.0781C10.1896 17.0781 9.04579 16.7782 8.26985 16.2248C7.1353 15.418 6.61904 14.0423 6.85089 12.4533C7.16931 10.277 8.73665 8.24283 10.5791 7.61218C11.9857 7.12992 13.414 7.4978 14.6011 8.64162C16.2921 10.2739 16.7248 13.0623 15.6058 15.1305C15.1451 15.9806 14.2023 16.6113 12.9471 16.9019C12.434 17.0224 11.9023 17.0781 11.3798 17.0781H11.3829ZM11.7941 9.00949C11.5653 9.00949 11.3334 9.04968 11.1016 9.13006C9.83719 9.56286 8.66864 11.124 8.43988 12.6883C8.33786 13.3869 8.38732 14.3453 9.20345 14.9264C9.92994 15.4458 11.386 15.6251 12.5916 15.3469C13.3799 15.1645 13.9704 14.809 14.2054 14.3731C14.9813 12.9387 14.6691 10.9293 13.4974 9.7978C12.9533 9.27535 12.3845 9.01259 11.7971 9.01259L11.7941 9.00949Z" fill="#010101"/>
<path d="M17.4451 7.2783C17.2813 7.2783 17.1329 7.25975 17.0216 7.2412C16.7125 7.19792 16.1375 7.12064 15.7449 6.65693C15.5315 6.40652 15.4326 6.07574 15.4574 5.74496C15.4419 5.68622 15.4326 5.6213 15.4295 5.55638C15.4172 5.12359 15.751 4.7588 16.1807 4.73407C16.2704 4.70006 16.3662 4.67843 16.4682 4.66915C16.6228 4.65679 16.765 4.6877 16.8949 4.75262C17.2195 4.78044 17.541 4.83609 17.8563 4.91955C18.0016 4.95665 18.3911 5.05867 18.6384 5.42036C18.8177 5.68004 18.8734 6.01391 18.7868 6.33233C18.6941 6.68166 18.4406 6.98152 18.116 7.13609C17.8841 7.24429 17.6523 7.27521 17.4482 7.27521L17.4451 7.2783Z" fill="#010101"/>
</svg>
