<svg width="23" height="19" viewBox="0 0 23 19" fill="none" xmlns="http://www.w3.org/2000/svg">
<path d="M17.0516 18.6986C16.2881 18.6986 15.608 18.2905 15.237 18.0679C13.4471 16.9952 11.6973 15.8112 10.0372 14.5468C9.78374 14.3551 9.2613 13.9564 9.17474 13.2917C9.08818 12.6085 9.52716 12.0737 9.691 11.8727C10.705 10.6393 11.9848 9.73967 13.2245 8.87099C13.3914 8.75351 13.5584 8.63604 13.7253 8.51857C13.7778 8.48147 13.852 8.432 13.9386 8.37018C15.574 7.248 16.1366 6.64208 16.3283 6.35149C16.1273 6.39477 15.7285 6.55861 14.9619 7.08106L14.9186 7.11197L8.51627 11.4647C8.27514 11.6285 7.97218 11.8356 7.57957 11.9253C7.11586 12.0366 6.67379 11.9438 6.38011 11.8851C4.66128 11.5389 2.95483 11.0535 1.30711 10.4414C0.302399 10.0674 0.317856 9.3347 0.34877 9.1183C0.426055 8.55257 0.89904 8.28362 1.0567 8.19397C2.80026 7.20162 4.66128 6.43186 6.45739 5.68993L15.9418 1.77311C17.2526 1.23212 18.6097 0.672573 20.0349 0.298513C20.4244 0.196497 21.4631 -0.0724559 22.2267 0.589105C22.6966 0.997171 22.8357 1.57526 22.8975 1.97406C23.1448 3.57231 22.7306 5.13657 22.3627 6.51842C22.0875 7.55714 21.8 8.62986 21.4322 9.67475C21.3271 9.97462 21.2127 10.2683 21.1014 10.5651C20.9035 11.0844 20.715 11.576 20.5666 12.0799C20.3996 12.6425 20.2791 13.2206 20.1492 13.8296C19.9112 14.9672 19.6639 16.142 19.0951 17.2332C18.8663 17.6722 18.483 18.2843 17.7843 18.5595C17.537 18.6584 17.2897 18.6955 17.0516 18.6955V18.6986ZM10.7854 13.0877C10.8225 13.1248 10.8874 13.1835 11.0049 13.2731C12.6186 14.5004 14.3188 15.6535 16.0593 16.6953C16.4457 16.9272 16.928 17.1776 17.2 17.0725C17.3484 17.0138 17.5061 16.8221 17.6761 16.4975C18.1429 15.601 18.3562 14.5808 18.5819 13.505C18.7117 12.8898 18.8447 12.253 19.0301 11.6254C19.1971 11.0628 19.4042 10.5218 19.6021 9.99626C19.7103 9.71185 19.8185 9.42744 19.9205 9.13994C20.2698 8.15687 20.5449 7.11816 20.8139 6.11036C21.157 4.81815 21.5095 3.48885 21.3147 2.22137C21.2621 1.89059 21.191 1.8133 21.1787 1.80094C21.1663 1.79166 21.0365 1.69583 20.4398 1.8504C19.1198 2.19355 17.8152 2.73454 16.5539 3.2539L7.06949 7.17071C5.57016 7.78899 4.02445 8.42891 2.57149 9.1894C3.91935 9.65311 5.30739 10.0303 6.70161 10.3147C6.86546 10.3487 7.09422 10.395 7.21788 10.3641C7.32298 10.3394 7.48065 10.2312 7.62285 10.1354L14.0252 5.78267L14.0684 5.75485C14.7856 5.2664 16.4612 4.12568 17.5895 5.16748C17.9018 5.45807 18.0594 5.85068 18.0285 6.27111C17.9451 7.41493 16.4519 8.58967 14.8537 9.69021C14.7733 9.74585 14.7084 9.79222 14.6589 9.82623C14.4889 9.94679 14.3219 10.0643 14.1519 10.1848C12.9463 11.0288 11.8086 11.8264 10.9337 12.8898C10.8565 12.9856 10.8132 13.0475 10.7915 13.0877H10.7854Z" fill="#010101"/>
</svg>
