<svg width="24" height="27" viewBox="0 0 24 27" fill="none" xmlns="http://www.w3.org/2000/svg">
<path d="M13.3082 2.5483C13.0207 2.5483 12.7301 2.54211 12.4426 2.52666C12.0005 2.50502 11.6605 2.12787 11.6821 1.68579C11.7038 1.24372 12.0902 0.900577 12.523 0.925308C13.6483 0.980954 14.7797 0.916034 15.8926 0.73055C16.3285 0.656356 16.7397 0.953131 16.8139 1.38902C16.8881 1.82491 16.5913 2.23606 16.1554 2.31026C15.2156 2.46792 14.2604 2.54521 13.3082 2.54521V2.5483Z" fill="#010101"/>
<path d="M9.09159 26.3862C9.06376 26.3862 9.03285 26.3862 9.00502 26.3862C7.24911 26.3646 5.46846 25.7525 3.85474 24.6117C3.20246 24.1511 2.72329 23.706 2.34923 23.2113C1.37234 21.9253 1.11885 20.2838 1.01065 18.9947C0.908631 17.7983 0.86226 16.2433 1.41253 14.8089C1.99371 13.3003 3.19318 12.0112 4.79453 11.1796C6.10838 10.4995 7.6819 10.1223 9.47183 10.0636C9.4811 10.0636 9.49038 10.0636 9.49965 10.0636C9.92936 10.0636 10.2849 10.4036 10.3003 10.8364C10.3158 11.2785 9.96954 11.6495 9.52747 11.6618C7.97868 11.7113 6.63392 12.0266 5.53647 12.5985C4.2999 13.2385 3.34466 14.2524 2.90877 15.3808C2.47597 16.5092 2.51925 17.8292 2.60581 18.8555C2.70474 19.9932 2.8995 21.2885 3.62289 22.2375C3.89802 22.5992 4.2659 22.9362 4.77907 23.301C6.10529 24.2408 7.61389 24.7663 9.02357 24.7818C10.5476 24.8096 12.0253 24.2037 12.9558 23.1804C14.2975 21.7089 14.5541 19.4831 14.6901 17.5139C14.7272 16.9883 14.7674 16.4597 14.8076 15.9249C14.9931 13.4703 15.1817 10.9323 15.0704 8.51788C15.0549 8.19019 15.2404 7.88723 15.5372 7.7543C15.8339 7.61828 16.1833 7.67701 16.4213 7.90269C17.2684 8.70954 18.1432 9.54113 19.1356 10.1069C19.9208 10.5551 20.7276 10.7901 21.4634 10.7901C21.4696 10.7901 21.4758 10.7901 21.4819 10.7901L21.4665 7.9707C20.842 7.93051 20.1866 7.83777 19.556 7.575C17.8774 6.88252 16.9252 5.24099 16.1678 3.75711C15.9112 3.2563 15.5588 2.57001 15.5434 1.79407C15.5341 1.352 15.8834 0.98721 16.3255 0.977936C16.3317 0.977936 16.3378 0.977936 16.344 0.977936C16.7799 0.977936 17.1354 1.32417 17.1447 1.76006C17.154 2.1403 17.3456 2.54219 17.593 3.02754C18.2514 4.31356 18.9934 5.60886 20.1681 6.09421C20.7957 6.35389 21.5561 6.37862 22.2888 6.40026C22.7185 6.41263 23.0617 6.76505 23.0647 7.19476L23.0895 11.4949C23.0895 11.8751 22.8267 12.2028 22.4557 12.2832C21.1728 12.5553 19.7137 12.2739 18.3442 11.4918C17.7506 11.1518 17.2127 10.7499 16.7057 10.3233C16.6903 12.2337 16.5481 14.1597 16.4059 16.0424C16.3657 16.571 16.3255 17.0996 16.2915 17.6221C16.1245 20.0272 15.7505 22.4941 14.1429 24.2562C12.928 25.5886 11.0454 26.38 9.09468 26.38L9.09159 26.3862Z" fill="#010101"/>
<path d="M8.69589 21.9252C8.30637 21.9252 7.88903 21.8758 7.45314 21.7521C6.09601 21.3688 4.99547 20.327 4.57813 19.0348C4.13297 17.6622 4.52249 16.0948 5.54265 15.1365C6.16402 14.5522 6.99561 14.1751 8.08997 13.9834C8.11779 13.9772 8.16107 13.971 8.20435 13.9618C8.20435 13.8474 8.19817 13.7114 8.19199 13.5506C8.17344 13.0529 8.14871 12.2986 8.17035 11.3372C8.17962 10.8951 8.55059 10.5396 8.98957 10.555C9.43164 10.5643 9.78097 10.9322 9.7717 11.3743C9.75006 12.2893 9.7717 12.988 9.79025 13.495C9.79643 13.6866 9.80261 13.8474 9.80261 13.9772C9.80261 14.1751 9.80879 14.5028 9.6264 14.8243C9.30489 15.3931 8.6928 15.5013 8.36511 15.56C7.58607 15.6991 7.02034 15.9403 6.63392 16.3051C6.0651 16.8399 5.84561 17.758 6.09911 18.5432C6.34951 19.3192 7.05126 19.9746 7.88594 20.2126C9.22143 20.5897 10.3003 19.9004 10.4178 19.82C10.6837 19.6407 10.9681 19.2295 11.237 17.4303C11.4596 15.9372 11.4163 15.0345 11.339 13.5352C11.2927 12.5985 11.2339 11.433 11.2216 9.78218V6.45583C11.2247 5.63661 11.2247 4.27639 11.2247 3.58391V2.12477C11.2247 1.6827 11.5833 1.3241 12.0253 1.3241C12.4674 1.3241 12.826 1.6827 12.826 2.12477V3.5901C12.826 4.28257 12.826 5.64279 12.826 6.46201V9.776C12.8322 11.3928 12.8909 12.5366 12.9373 13.4579C13.0146 15.0005 13.0671 16.0206 12.8198 17.6715C12.5169 19.6963 12.1212 20.6083 11.3081 21.1524C11.0763 21.3069 10.0654 21.9283 8.6897 21.9283L8.69589 21.9252Z" fill="#010101"/>
</svg>
