<svg width="27" height="19" viewBox="0 0 27 19" fill="none" xmlns="http://www.w3.org/2000/svg">
<path d="M13.6473 18.5363C13.3505 18.5363 13.0537 18.5363 12.76 18.5363C10.021 18.5332 7.20167 18.527 4.45032 17.884C3.66201 17.6985 2.68822 17.377 2.17195 16.5083C1.95864 16.1528 1.86899 15.7695 1.80407 15.4882C1.14251 12.6471 0.771544 9.73504 0.700442 6.82603C0.688076 6.31595 0.688076 5.81514 0.839555 5.30196C0.972486 4.84444 1.20434 4.45801 1.40837 4.11796L2.30797 2.61244C2.46254 2.35276 2.64185 2.05599 2.87988 1.78085C2.55219 1.67884 2.31725 1.37279 2.31725 1.01109C2.31725 0.569021 2.67894 0.2166 3.11792 0.2166H3.15193C7.9838 0.244423 12.9826 0.275337 17.8918 0.173321H17.9567C19.4158 0.142407 20.9275 0.111493 22.399 0.547381C24.192 1.0791 25.5584 2.28166 26.0531 3.76554C26.2138 4.2478 26.2787 4.72696 26.3344 5.2185C26.625 7.75963 26.7548 10.3471 26.7146 12.9068C26.7023 13.6086 26.6714 14.2949 26.3993 14.9657C26.0654 15.7942 25.373 16.5269 24.3992 17.0864C22.7947 18.0076 20.9708 18.2519 19.2396 18.3786C17.3786 18.5146 15.4928 18.5301 13.6534 18.5301L13.6473 18.5363ZM5.26645 2.4455C4.86457 2.4455 4.52451 2.48569 4.28647 2.64954C4.05462 2.8072 3.86295 3.12561 3.68056 3.43476L2.78096 4.94027C2.61093 5.22468 2.45327 5.49054 2.37598 5.75022C2.28942 6.0439 2.29252 6.39014 2.30179 6.78584C2.37289 9.58665 2.7284 12.3906 3.36523 15.1203C3.41161 15.3181 3.46416 15.5407 3.54763 15.6829C3.75784 16.0322 4.33594 16.2084 4.8151 16.3197C7.38715 16.9226 10.1169 16.9257 12.7538 16.9318C14.8529 16.938 17.0138 16.938 19.119 16.7834C20.6617 16.6722 22.2723 16.4619 23.5985 15.7015C24.0591 15.4387 24.6588 14.9904 24.9123 14.3691C25.0793 13.9517 25.1009 13.4509 25.1102 12.8821C25.1504 10.3904 25.0267 7.87401 24.7423 5.40089C24.6929 4.98046 24.6465 4.6064 24.5321 4.27253C24.2013 3.28637 23.2337 2.46714 21.9415 2.08381C20.7111 1.71593 19.3262 1.74685 17.9876 1.77467H17.9227C14.1388 1.85505 10.3116 1.85505 6.54629 1.8365C6.46282 2.20747 6.11659 2.47642 5.73016 2.45787C5.56941 2.45169 5.41793 2.4455 5.26954 2.4455H5.26645Z" fill="#010101"/>
<path d="M10.763 14.301C10.5992 14.301 10.4323 14.2485 10.2962 14.1496C10.0613 13.9795 9.93763 13.7013 9.96855 13.4138C10.0922 12.2854 10.1695 11.1354 10.2066 9.9978C10.2097 9.8556 10.188 9.56501 10.1633 9.28678C10.052 7.9482 10.0149 6.95586 10.5312 6.37776C11.2762 5.53999 12.5004 6.22319 13.4835 6.77037C13.6721 6.87548 13.8699 6.98368 13.9626 7.02387C14.8622 7.39484 15.7989 7.70089 16.7418 7.93274L16.9551 7.9853C17.7929 8.18624 18.7451 8.41809 19.4777 9.10748C19.6694 9.28987 19.7621 9.55264 19.7188 9.81541C19.6787 10.0751 19.5117 10.3008 19.2737 10.4151C16.5842 11.6981 13.8359 12.981 11.1 14.233C10.9949 14.2825 10.8805 14.3072 10.7661 14.3072L10.763 14.301ZM11.7059 7.66688C11.6719 8.0904 11.7307 8.80761 11.7585 9.15694C11.7863 9.50936 11.8141 9.81541 11.8048 10.0473C11.7832 10.7614 11.743 11.4786 11.6874 12.1958C13.4958 11.3642 15.3043 10.5172 17.0942 9.67011C16.9242 9.62374 16.7511 9.58355 16.5718 9.54027L16.3523 9.48772C15.3321 9.23732 14.3182 8.90654 13.3444 8.50465C13.1651 8.43046 12.9487 8.30989 12.6983 8.17078C12.4726 8.04403 12.0182 7.79363 11.7028 7.66688H11.7059Z" fill="#010101"/>
</svg>
