<svg width="140" height="90" fill="none" xmlns="http://www.w3.org/2000/svg"><mask id="a" style="mask-type:alpha" maskUnits="userSpaceOnUse" x="0" y="0" width="140" height="90"><path fill="#D9D9D9" d="M0 0h140v90H0z"/></mask><g mask="url(#a)" fill-rule="evenodd" clip-rule="evenodd"><path d="M91.91 6.294c-12.383-2.216-25.371-2.81-38.266-.167-12.682 2.6-24.92 7.382-33.195 14.817-7.94 7.135-8.181 16.15-10.803 24.72C6.77 55.066-2.466 65.687 4.418 73.347c6.902 7.68 24.06 5.815 37.082 7.763 10.73 1.604 20.936 3.297 32.183 2.595 13.632-.85 28.685-.495 39.39-7.062 11.123-6.823 14.149-17.565 16.751-27.377 2.713-10.233 5.784-21.432-1.591-29.79-7.297-8.271-22.554-10.717-36.324-13.182Z" fill="url(#b)"/><path d="M95.034 8.866C82.652 6.65 69.664 6.055 56.77 8.698c-12.682 2.6-24.92 7.382-33.195 14.817-7.94 7.135-8.181 16.151-10.803 24.72C9.895 57.637.659 68.258 7.543 75.918c6.902 7.68 24.06 5.815 37.082 7.763 10.73 1.604 20.936 3.297 32.183 2.595 13.632-.85 28.685-.495 39.39-7.061 11.123-6.824 14.149-17.566 16.751-27.378 2.713-10.233 5.784-21.432-1.591-29.79-7.297-8.271-22.554-10.717-36.324-13.181Z" fill="url(#c)"/></g><path d="M93.863 72.494H51.834a3.502 3.502 0 0 1-3.538-3.448l-1.32-41.509a3.491 3.491 0 0 1 3.53-3.465h9.4a.449.449 0 0 1 .341.736 4.3 4.3 0 0 0-1.06 2.693c0 3.906 6.133 7.076 13.666 7.076S86.52 31.407 86.52 27.5a4.265 4.265 0 0 0-1.069-2.693.458.458 0 0 1 .11-.666.44.44 0 0 1 .24-.07h9.392a3.491 3.491 0 0 1 3.538 3.447l-1.275 41.545a3.494 3.494 0 0 1-3.592 3.43ZM50.496 24.969a2.595 2.595 0 0 0-2.63 2.55l1.32 41.518a2.596 2.596 0 0 0 2.639 2.559h42.038a2.595 2.595 0 0 0 2.64-2.55l1.32-41.536a2.595 2.595 0 0 0-2.64-2.54H86.68c.48.764.738 1.647.745 2.55 0 4.399-6.527 7.973-14.563 7.973-8.036 0-14.563-3.592-14.563-7.974a4.876 4.876 0 0 1 .745-2.55h-8.548Z" fill="#2E2E2E"/><path d="M89.247 67.573h-32.79a2.864 2.864 0 0 1-2.891-2.828l-1.32-32.907a2.803 2.803 0 0 1 .835-2.002.493.493 0 0 1 .395-.126.475.475 0 0 1 .332.252c2.182 4.597 10.012 7.802 19.044 7.802 9.033 0 16.862-3.205 19.044-7.803a.474.474 0 0 1 .332-.25.44.44 0 0 1 .386.125 2.754 2.754 0 0 1 .844 1.984l-1.32 32.934a2.873 2.873 0 0 1-2.89 2.82ZM53.333 30.994c-.131.256-.2.539-.198.826l1.32 32.907a1.976 1.976 0 0 0 1.993 1.948h32.79a1.967 1.967 0 0 0 1.993-1.93l1.32-32.925a1.8 1.8 0 0 0-.197-.817c-2.694 4.552-10.56 7.677-19.51 7.677-8.952 0-16.79-3.143-19.502-7.686h-.01Z" fill="#2E2E2E"/><path d="M72.852 33.975c-7.273 0-12.965-3.07-12.965-6.994s5.692-6.995 12.965-6.995 12.93 3.071 12.93 6.995c0 3.923-5.666 6.994-12.93 6.994Zm0-13.09c-6.653 0-12.067 2.693-12.067 6.096s5.387 6.096 12.067 6.096c6.68 0 12.031-2.738 12.031-6.096s-5.387-6.097-12.031-6.097Z" fill="#2E2E2E"/><path d="M73.5 30.033a.646.646 0 1 1-1.172-.373.629.629 0 0 1 .319-.229V26.55a.206.206 0 0 1 .285-.19.206.206 0 0 1 .128.19v2.882a.638.638 0 0 1 .44.602Zm-.188-6.626v1.275a.457.457 0 0 1-.898 0v-1.275a.457.457 0 0 1 .898 0Zm3.311.278a.449.449 0 0 1 0 .341l-.449 1.203a.449.449 0 0 1-.43.297h-.153a.44.44 0 0 1-.27-.584l.45-1.203a.458.458 0 0 1 .574-.27.45.45 0 0 1 .278.216Zm2.759 1.212a.447.447 0 0 1-.117.333l-.897.96a.457.457 0 0 1-.333.144.45.45 0 0 1-.34-.754l.897-.952a.485.485 0 0 1 .647-.045.476.476 0 0 1 .143.314Zm-9.009.019a.476.476 0 0 1 0 .35.512.512 0 0 1-.26.233h-.162a.449.449 0 0 1-.422-.296L69.079 24a.412.412 0 0 1 0-.341.457.457 0 0 1 .437-.272.449.449 0 0 1 .408.299l.449 1.23Zm-2.379.664a.448.448 0 0 1-.342.754.458.458 0 0 1-.332-.143l-.898-.961a.446.446 0 0 1-.116-.332.476.476 0 0 1 .152-.315.466.466 0 0 1 .638.045l.898.952Z" fill="#2E2E2E"/><defs><linearGradient id="b" x1="77.991" y1="1.343" x2="76.102" y2="88.266" gradientUnits="userSpaceOnUse"><stop stop-color="#6D7582"/><stop offset="1" stop-color="#F4ECFF"/></linearGradient><linearGradient id="c" x1="81.116" y1="3.914" x2="79.227" y2="90.837" gradientUnits="userSpaceOnUse"><stop stop-color="#E8F0FE"/><stop offset="1" stop-color="#F4ECFF"/></linearGradient></defs></svg>