<svg width="140" height="90" fill="none" xmlns="http://www.w3.org/2000/svg"><mask id="a" style="mask-type:alpha" maskUnits="userSpaceOnUse" x="0" y="0" width="140" height="90"><path fill="#D9D9D9" d="M0 0h140v90H0z"/></mask><g mask="url(#a)" fill-rule="evenodd" clip-rule="evenodd"><path d="M42.544 8.294c12.382-2.216 25.37-2.81 38.265-.167 12.683 2.6 24.921 7.382 33.195 14.817 7.94 7.135 8.182 16.15 10.803 24.72 2.876 9.402 12.112 20.023 5.228 27.683-6.902 7.68-24.06 5.815-37.082 7.763-10.73 1.604-20.936 3.297-32.182 2.595-13.633-.85-28.686-.495-39.39-7.062C10.256 71.82 7.23 61.078 4.628 51.266c-2.713-10.233-5.784-21.432 1.59-29.79 7.298-8.271 22.555-10.717 36.325-13.182Z" fill="url(#b)"/><path d="M46.27 9.642c12.383-2.216 25.371-2.81 38.266-.167 12.682 2.6 24.92 7.381 33.195 14.817 7.94 7.135 8.181 16.15 10.803 24.72 2.876 9.401 12.112 20.022 5.228 27.682-6.902 7.68-24.06 5.816-37.082 7.763-10.73 1.605-20.937 3.297-32.183 2.596-13.633-.851-28.685-.495-39.39-7.062-11.124-6.824-14.149-17.565-16.751-27.378-2.714-10.232-5.785-21.431 1.59-29.79 7.298-8.27 22.555-10.717 36.325-13.181Z" fill="url(#c)"/></g><path d="M48.638 76.396a1.159 1.159 0 0 0 .75-.57 1.54 1.54 0 0 0 0-1.27 8.327 8.327 0 0 1-.51-2.47c.078-.24.185-.468.32-.68.33-.59.66-1.2.32-1.62a.93.93 0 0 0-.72-.36 2.3 2.3 0 0 0 .39-.17.37.37 0 0 0 .13-.12c2.08-3.15 6.63-6 9.64-7.92a14.696 14.696 0 0 0 3.32-2.4 20.56 20.56 0 0 0 5.56-6.05c.576.582 1.194 1.12 1.85 1.61.91.75 2 1.68 2.93 2.47a3.001 3.001 0 0 1 .57 2.45 5.437 5.437 0 0 0 .06 1.83 18.751 18.751 0 0 0 1.25 3.36 25.165 25.165 0 0 1 2.14 6.76v.1a2.81 2.81 0 0 0-.71 1.6 2.67 2.67 0 0 0 .2 2.18.72.72 0 0 0 .56.3h2.73a16.27 16.27 0 0 0 3-.33 9.998 9.998 0 0 0 3.73-1.5.319.319 0 0 0 .14-.24 1.22 1.22 0 0 0-.26-.91 1.642 1.642 0 0 0-1.18-.49 8.65 8.65 0 0 1-2.48-.42c-.2-.158-.38-.343-.53-.55-.43-.51-.87-1-1.39-.88-.077.025-.15.059-.22.1a39.25 39.25 0 0 1-1.75-8.42c-.23-1.76-.46-3.43-.77-4.76-.26-2.73-3.4-9-6.27-12.53l.35-1.75c.23-.72.82-2.64 1.38-4.73a.34.34 0 0 0-.07-.32 8.5 8.5 0 0 1-.52-.64 6.29 6.29 0 0 0 3.92 2.56c.38.15 1.47.16 5.09-5.72a5.31 5.31 0 0 0 1.56-3.18c0-.63-.58-1.22-1.66-1.83-.52-.36-1 .21-1.19.49l-.08.1c-.75.24-.8.32-.86.41a2.51 2.51 0 0 0 0 1.91c0 .13.06.27.08.4a5.87 5.87 0 0 1-1.06 1.31 4.128 4.128 0 0 1-1.57.62l-.56.15c-.71-1.93-1.52-3.85-1.83-4.6l-.08-.18a4.462 4.462 0 0 0-1.33-3.29 4.77 4.77 0 0 0-1.26-.88.244.244 0 0 0 0-.08l.15-.83c.464.13.94.213 1.42.25.73 0 .85-.83 1-2.06.41-.12.5-.26.54-.32a.44.44 0 0 0 .05-.3c0-.17-.17-.61-.29-1 0-.17-.1-.32-.13-.44.163-.81.203-1.639.12-2.46a.496.496 0 0 0 0-.13.677.677 0 0 0 .1-.21.289.289 0 0 0 0-.09 2.32 2.32 0 0 0-1.29-2.11 5.29 5.29 0 0 0-4.89-.33 4.421 4.421 0 0 0-2.12 2.9 5.89 5.89 0 0 0 1.39 4.66 4.38 4.38 0 0 1-.28 1.58 4.63 4.63 0 0 1-.56.29 7.179 7.179 0 0 0-1.71 1l-.36.15a16.691 16.691 0 0 0-5.66 3.3c-.38.34-.75.63-1.08.9-1 .83-1.7 1.38-1.72 2.08a1.358 1.358 0 0 0 .55 1 23.449 23.449 0 0 0 7.64 3.61 9.63 9.63 0 0 1-.61 4.1 8.7 8.7 0 0 0-2 6.59 18.352 18.352 0 0 1-1.24 2.86 38.868 38.868 0 0 0-2 4.64 13.61 13.61 0 0 1-3.28 2.29 15.6 15.6 0 0 0-3.36 2.34 13 13 0 0 0-1.67 2.36 17.998 17.998 0 0 1-3.57 4.43.3.3 0 0 0-.1.22 3.57 3.57 0 0 0-1.56 0 2.672 2.672 0 0 0-1.95 1 .72.72 0 0 0-.08.63l1 2.53a16.77 16.77 0 0 0 1.41 2.72 10 10 0 0 0 2.75 2.93.33.33 0 0 0 .19.06l.09.01Zm-2-9.09c.2 1.21.72 2.53 1.43 2.75.2.062.412.082.62.06.24 0 .28 0 .35.08.07.08-.23.62-.37.87a3.38 3.38 0 0 0-.4.93c.043.945.225 1.878.54 2.77a1 1 0 0 1 0 .74.37.37 0 0 1-.19.18 9.608 9.608 0 0 1-2.42-2.63c-.53-.826-.982-1.7-1.35-2.61-.24-.57-.8-1.94-1-2.5 0-.11.4-.55 1.49-.7.308-.046.619-.073.93-.08.31 0 .32.07.33.14h.04Zm30.58 4.61c1.2.25 2.62.25 3.08-.33a1.88 1.88 0 0 0 .29-.56c.07-.23.09-.27.2-.3.11-.03.49.44.68.66.195.275.435.515.71.71a9.418 9.418 0 0 0 2.78.5 1 1 0 0 1 .7.25.51.51 0 0 1 .1.25 9.567 9.567 0 0 1-3.33 1.29c-.961.197-1.939.304-2.92.32h-2.71c-.09 0-.36-.57-.11-1.64.25-1.07.39-1.2.49-1.2l.04.05Zm-2-7.7a19.312 19.312 0 0 1-1.21-3.24 5.22 5.22 0 0 1 0-1.62 3.621 3.621 0 0 0-.75-3c-.94-.84-2.08-1.77-3-2.52-.65-.54-1.32-1.09-1.59-1.34a40.214 40.214 0 0 0 2.42-6.43l.21-.69a.342.342 0 0 0-.64-.24l-.1.24c-.32.79-.87 2.11-2.2 5.16a20 20 0 0 1-6.39 7.73.32.32 0 0 0-.11.12 15.35 15.35 0 0 1-3.14 2.23c-3 1.92-7.61 4.8-9.79 8.05-.19.09-.33.15-.41.11-.08-.04-.47-.5-.94-2.11a18.32 18.32 0 0 0 3.53-4.43c.45-.804.983-1.558 1.59-2.25a15.5 15.5 0 0 1 3.21-2.21 13.37 13.37 0 0 0 3.51-2.51.406.406 0 0 0 .05-.09 38.482 38.482 0 0 1 2-4.61 18.21 18.21 0 0 0 1.3-3c.01-.04.01-.08 0-.12a7.998 7.998 0 0 1 1.93-6.2l.06-.09a10.56 10.56 0 0 0 .66-4.72.34.34 0 0 0-.3-.32 22.859 22.859 0 0 1-7.56-3.49c-.32-.29-.32-.46-.32-.52 0-.38.69-.92 1.47-1.56.34-.27.71-.57 1.1-.91a14.64 14.64 0 0 1 4.55-2.82 4.6 4.6 0 0 0-.85 2.42c-.031.62-.015 1.242.05 1.86l-.63.13c-.36.07-.77.15-1.23.28a.34.34 0 0 0 0 .66c.349.174.683.374 1 .6.42.28.89.59 1.39.88.08.34.19.67.29 1 .1.33.21.66.3 1a.34.34 0 1 0 .67-.12c-.1-.85-.24-1.68-.37-2.49a18.57 18.57 0 0 1-.4-4.19 3.9 3.9 0 0 1 .64-2 .35.35 0 0 0 0-.4h.06l.42-.17a.21.21 0 0 0 .1-.06 6.602 6.602 0 0 1 1.59-1 4.33 4.33 0 0 0 .76-.42.26.26 0 0 0 .11-.14c.258-.655.38-1.356.36-2.06a.32.32 0 0 0-.07-.19 5.34 5.34 0 0 1-1.33-4.21 3.79 3.79 0 0 1 1.8-2.44 4.58 4.58 0 0 1 4.18.32 1.73 1.73 0 0 1 1 1.42c-.15.25-.82.29-2 .12h-.3a.33.33 0 0 0-.37.27.36.36 0 0 0 .24.4 5.58 5.58 0 0 0 2.39.3 8.4 8.4 0 0 1-.17 1.9.29.29 0 0 0 0 .16c0 .13.09.32.16.53.07.21.17.54.22.74l-.26.07c-.14 0-.26.21-.28.36a4.41 4.41 0 0 1-.3 1.63 6.519 6.519 0 0 1-1.58-.33.34.34 0 0 0-.28 0 .311.311 0 0 0-.16.23l-.16.86a12.149 12.149 0 0 0-2.24-.26.35.35 0 0 0-.33.33.34.34 0 0 0 .3.35 6.77 6.77 0 0 1 3.66 1.52 3.88 3.88 0 0 1 1.11 2.87.27.27 0 0 0 0 .12l.1.24c.33.78 1.2 2.86 1.93 4.88a.35.35 0 0 0 .44.2 8.31 8.31 0 0 1 .82-.24 4.61 4.61 0 0 0 1.84-.76 6.768 6.768 0 0 0 1.28-1.59.35.35 0 0 0 0-.23c0-.18-.07-.37-.11-.56a2.51 2.51 0 0 1-.09-1.33l.59-.21h.08a1.2 1.2 0 0 0 .26-.28c.09-.118.19-.229.3-.33 1.07.61 1.32 1 1.34 1.3a4.8 4.8 0 0 1-1.4 2.69.1.1 0 0 0 0 .05c-2.2 3.57-3.85 5.46-4.3 5.46a.321.321 0 0 0-.14 0c-.85 0-2.7-1-4.16-3.28a22.808 22.808 0 0 1-2.2-4.15 4.543 4.543 0 0 0-.37-.79c-.42-.5-1.35-1.77-1-2.84a.342.342 0 0 0-.64-.24c-.33.7-.44 1.92.88 3.66.107.22.197.447.27.68a22.995 22.995 0 0 0 2 4.44 10.36 10.36 0 0 0 1.12 1.6c-.55 2-1.11 3.83-1.34 4.56l-.4 1.95a.32.32 0 0 0 .08.28c2.83 3.42 6 9.62 6.22 12.33.32 1.35.54 3 .78 4.74.271 2.925.871 5.81 1.79 8.6a.7.7 0 0 1-.23.48 3.47 3.47 0 0 1-2.17 0 25.4 25.4 0 0 0-2.27-6.76h.07Zm-12.19-32.34a15 15 0 0 0 1-.21c.06.43.13.86.21 1.3-.43-.25-.84-.53-1.2-.77l-.35-.23.34-.09Z" fill="#2E2E2E"/><defs><linearGradient id="b" x1="56.462" y1="3.343" x2="58.352" y2="90.266" gradientUnits="userSpaceOnUse"><stop stop-color="#6D7582"/><stop offset="1" stop-color="#F4ECFF"/></linearGradient><linearGradient id="c" x1="60.189" y1="4.691" x2="62.078" y2="91.614" gradientUnits="userSpaceOnUse"><stop stop-color="#E8F0FE"/><stop offset="1" stop-color="#F4ECFF"/></linearGradient></defs></svg>