<svg width="140" height="90" fill="none" xmlns="http://www.w3.org/2000/svg"><mask id="a" style="mask-type:alpha" maskUnits="userSpaceOnUse" x="0" y="0" width="140" height="90"><path fill="#D9D9D9" d="M0 0h140v90H0z"/></mask><g mask="url(#a)" fill-rule="evenodd" clip-rule="evenodd"><path d="M91.91 83.409c-12.383 2.216-25.371 2.81-38.266.167-12.682-2.6-24.92-7.382-33.195-14.817-7.94-7.135-8.181-16.15-10.803-24.72C6.77 34.638-2.466 24.017 4.418 16.357c6.902-7.68 24.06-5.816 37.082-7.763 10.73-1.605 20.936-3.297 32.183-2.596 13.632.851 28.685.495 39.39 7.062 11.123 6.824 14.149 17.565 16.751 27.378 2.713 10.232 5.784 21.431-1.591 29.79-7.297 8.27-22.554 10.717-36.324 13.18Z" fill="url(#b)"/><path d="M95.636 81.188C83.253 83.404 70.265 84 57.37 81.356c-12.683-2.6-24.921-7.382-33.195-14.818-7.94-7.135-8.182-16.15-10.803-24.72-2.877-9.401-12.112-20.022-5.229-27.682 6.903-7.68 24.06-5.816 37.083-7.763 10.73-1.605 20.936-3.297 32.182-2.595 13.633.85 28.685.494 39.39 7.061 11.124 6.824 14.149 17.566 16.751 27.378 2.714 10.232 5.785 21.431-1.59 29.79-7.298 8.27-22.554 10.717-36.324 13.181Z" fill="url(#c)"/></g><path d="M66.28 30.09c.136-.297.327-.567.563-.795a1.871 1.871 0 0 1 1.648-.518c.333.051.646.193.904.41a1.81 1.81 0 0 0-1.021-.302 2.13 2.13 0 0 0-1.741 1.047 2.53 2.53 0 0 0-.227.489c-.063.187-.082.378-.126.571-.026.109-.204.165-.217.026-.005-.322.07-.64.217-.927Z" fill="#2E2E2E"/><path d="M58.527 35.785c.123-.443.316-.864.571-1.247a3.76 3.76 0 0 1 .943-.973 1.952 1.952 0 0 1 1.143-.415 2.63 2.63 0 0 1 .11-1.035c.1-.355.255-.693.461-1a3.02 3.02 0 0 1 1.639-1.208c.358-.104.754-.183 1.112-.097.192.046.073.344-.095.336-.169-.009-.377-.033-.572-.032-.192.006-.382.04-.564.102-.37.12-.712.318-1 .581-.32.299-.574.663-.744 1.067a4.531 4.531 0 0 0-.286 1.286h.053a1.09 1.09 0 0 1 .901.748c.329.076.715.202 1.053.056.302-.132.469-.446.582-.761.232-.642.297-1.385.857-1.822.651-.51 1.428-.317 2.102-.101.429.143.857.296 1.314.277a1.306 1.306 0 0 0 1.043-.539c0-.007.019 0 .014 0-.344.643-1.095.806-1.697.715-.428-.063-.84-.216-1.264-.316a2.328 2.328 0 0 0-1.041-.021 1.142 1.142 0 0 0-.78.6c-.15.326-.264.667-.338 1.018a2.187 2.187 0 0 1-.392.871 1.142 1.142 0 0 1-.873.389c-.637 0-1.514-.51-1.964.285-.054.095-.22.063-.198-.058.057-.337.354-.536.634-.621.285-.074.585-.074.87 0a1.211 1.211 0 0 0-.817-.529c-.396-.041-.802.186-1.129.429a3.878 3.878 0 0 0-1.33 1.948 3.736 3.736 0 0 0-.172.988 1.47 1.47 0 0 1-.025.363c-.033.119-.198.2-.258.066-.083-.193-.043-.467-.02-.677.033-.228.086-.453.157-.673Z" fill="#2E2E2E"/><path d="M60.02 35.266a.113.113 0 0 1 .1-.036.499.499 0 0 1 .06-.143.098.098 0 0 1 .153-.025.096.096 0 0 1 .028.052c.008.125.003.25-.015.375 0 .126.01.252.031.377.033.256.127.5.274.714a.019.019 0 0 1 .005.013c0 .005-.002.01-.005.013a.018.018 0 0 1-.014.005.018.018 0 0 1-.013-.005 1.557 1.557 0 0 1-.453-.682 2.046 2.046 0 0 1-.067-.321 2.19 2.19 0 0 0-.215.538 1.93 1.93 0 0 0 0 .809c.05.232.148.451.285.645.142.18.303.344.479.49.037.036-.023.09-.059.082-.47-.127-.81-.67-.925-1.162-.139-.55-.039-1.302.35-1.74Zm-3.39 5.799c-.07-.428.048-.868.185-1.272a6.77 6.77 0 0 1 1.219-2.162c.143-.17.297-.333.461-.485a4.27 4.27 0 0 1 .523-.4c.016-.01.027.011.014.024-.246.27-.481.557-.705.848a8.36 8.36 0 0 0-.616.933c-.183.32-.341.655-.471 1a3.59 3.59 0 0 0-.286 1.134 1.24 1.24 0 0 0 .097.543.918.918 0 0 0 .234.296c.074-.14.118-.294.129-.452 0-.05.088-.078.104-.025.154.497-.261.98-.541 1.338a3.144 3.144 0 0 0-.622 1.256c-.11.452-.114.923-.01 1.377.127.43.342.828.632 1.17.232.27.4.588.494.932.074-.175.157-.346.248-.512.009-.015.039-.019.033 0-.105.402-.18.812-.227 1.225-.058.42-.076.845-.054 1.269.044.714.233 1.487.76 1.934.223.193.5.313.794.343.029-.254.077-.504.143-.75 0-.015.026-.017.024 0a2.76 2.76 0 0 0 .017.754h.027c.196-.014.183.27.033.347l.026.12c.076.38.217.746.417 1.078a2.699 2.699 0 0 0 1.857 1.276c.438.066.885.028 1.306-.108a.168.168 0 0 1 .19.074c.012.02.02.044.023.068a.24.24 0 0 1-.175.239 2.836 2.836 0 0 1-2.51-.286c-.714-.447-1.172-1.211-1.338-2.095a3.08 3.08 0 0 1-.044-.332c-.692.032-1.286-.477-1.582-1.134-.347-.758-.377-1.701-.25-2.55.02-.131.047-.262.08-.391a.101.101 0 0 1-.066-.038.098.098 0 0 1-.02-.073c0-.453-.252-.819-.492-1.143a3.608 3.608 0 0 1-.639-1.176 3.333 3.333 0 0 1 .409-2.721c.169-.248.409-.464.606-.703-.248-.124-.392-.493-.438-.77Z" fill="#2E2E2E"/><path d="M62.575 53.603c.186.255.414.476.675.654.255.154.547.238.845.243.293.005.583-.057.849-.182a2.245 2.245 0 0 0 .534-.364 1.652 1.652 0 0 1-1.18-.873c-.083-.168.187-.344.286-.206.183.262.425.476.707.625.266.13.563.18.857.143.617-.08 1.186-.557 1.451-1.177.012-.028.049-.019.04.011a2.084 2.084 0 0 1-1.477 1.471 1.637 1.637 0 0 1-.521.032 2.139 2.139 0 0 1-.614.578 1.953 1.953 0 0 1-.989.325c-.684.028-1.477-.393-1.742-1.092-.048-.16.178-.314.28-.188Zm5.315-24.144a.1.1 0 0 1 .12-.066.102.102 0 0 1 .044.023c.063.064.067.196.104.286.041.095.1.183.171.258a.857.857 0 0 0 .548.277c.021 0 .018.033 0 .037a.758.758 0 0 1-.667-.142 1.49 1.49 0 0 1-.049.265c-.047.17-.143.382-.296.462a.013.013 0 0 1-.006.001c-.003 0-.005 0-.007-.002a.013.013 0 0 1-.004-.005v-.007c.029-.157.067-.312.113-.464a1.905 1.905 0 0 0 0-.518.114.114 0 0 1 0-.038.449.449 0 0 1-.071-.367Zm.278-.724c.114-.052.232-.095.353-.129.118-.047.233-.102.344-.164.238-.127.456-.285.65-.471-.168.218-.367.41-.591.571-.116.08-.24.15-.369.207a.924.924 0 0 1-.377.119c-.07-.005-.068-.096-.01-.133Zm-1.017 11.228a1.941 1.941 0 0 1 1.787-.677c.36.07.687.252.937.52.28.273.457.635.5 1.024 0 .12-.17.207-.216.085a2.668 2.668 0 0 0-.428-.836 1.57 1.57 0 0 0-.734-.484c-.572-.169-1.237.048-1.672.521-.508.554-.621 1.391-.547 2.117.079.771.376 1.469.639 2.168.153.39.286.785.4 1.187.053.194.093.391.118.59.026.219.022.439.029.659 0 .013-.02.018-.022 0a4.447 4.447 0 0 0-.27-1.201c-.122-.385-.278-.752-.428-1.119-.317-.734-.637-1.506-.714-2.337-.069-.763.108-1.625.621-2.217Z" fill="#2E2E2E"/><path d="M68.483 42.1c.143.031.283.074.42.128.13.061.25.143.357.241.237.201.402.473.473.776a.112.112 0 0 1-.071.118.113.113 0 0 1-.132-.038 3.99 3.99 0 0 0-.429-.69 1.796 1.796 0 0 0-.625-.523c-.007-.004 0-.016.007-.013Zm-5.238 7.78c.226-.818.878-1.474 1.665-1.495a1.206 1.206 0 0 1 1.06.52c.078.115-.09.255-.178.158a1.226 1.226 0 0 0-1.714-.09c-.554.476-.744 1.274-.65 1.989.029.211.082.419.159.618.065.206.154.404.264.59 0 .009 0 .02-.014.011a3.579 3.579 0 0 1-.36-.475 2.645 2.645 0 0 1-.231-.592 2.378 2.378 0 0 1 0-1.234Zm8.215-14.107a2.86 2.86 0 0 1 .34-.084 1.598 1.598 0 0 0 .884-.677h.011c-.109.25-.27.475-.473.658a1.46 1.46 0 0 1-.338.223.803.803 0 0 1-.397.12.124.124 0 0 1-.09-.189.124.124 0 0 1 .064-.05ZM58.853 44.22a2.466 2.466 0 0 1 1.564-1.414 1.61 1.61 0 0 1 1.072.026c.011 0 0 .02 0 .02a2.346 2.346 0 0 0-1.696.556 2.671 2.671 0 0 0-.818 1.742c-.033.38.011.76.131 1.122.021.067-.077.143-.119.083a2.428 2.428 0 0 1-.134-2.134Zm.059-5.749a3.427 3.427 0 0 1 .61-.99.753.753 0 0 1 .299-.244.089.089 0 0 1 .092.03.09.09 0 0 1 .01.097c-.058.095-.131.18-.216.252-.083.09-.16.185-.229.285a3.087 3.087 0 0 0-.361.657c-.092.232-.162.47-.21.715l-.039.194c.202-.29.469-.53.779-.701.183-.096.275.155.108.267a2.47 2.47 0 0 0-.811 3.3c.162.303.386.57.657.78.013.01 0 .03-.014.026a2.014 2.014 0 0 1-1.192-1.44 2.758 2.758 0 0 1 .327-2 1.974 1.974 0 0 1 0-.44c.027-.27.09-.535.19-.788Zm1.6 5.867a2.442 2.442 0 0 1 .951 1.965c.005.4-.076.797-.235 1.163-.205.453-.533.826-.835 1.204-.361.459-.714.983-.748 1.597 0 .116-.19.143-.206.025-.133-1.02.752-1.679 1.296-2.393 0-.008 0-.017.01-.027.17-.316.242-.676.204-1.033a1.572 1.572 0 0 0-.406-.941s0-.019.012-.015c.297.221.497.55.557.915.019.12.027.243.024.365a2.84 2.84 0 0 0 .036-1.714c-.116-.42-.349-.8-.671-1.093-.009-.01.002-.028.011-.018Zm4.418-1.133c.866 0 1.362.94 1.532 1.757.18.978.223 1.976.129 2.965a8.168 8.168 0 0 1-.222 1.409.065.065 0 0 1 .066.066 4.004 4.004 0 0 0 .497 1.538c.078.171.168.336.272.493 0 0 0 .008 0 0a3.228 3.228 0 0 1-.39-.411 3.591 3.591 0 0 1-.523-1.404 3.415 3.415 0 0 1-.023-.173.098.098 0 0 1 .046-.093c.096-.865.133-1.736.112-2.606a11.46 11.46 0 0 0-.142-1.367 3.285 3.285 0 0 0-.412-1.205 1.5 1.5 0 0 0-1.013-.706c-.16-.029-.058-.264.07-.263Z" fill="#2E2E2E"/><path d="M59.516 42.38c.623-.75 1.681-1.23 2.504-.713a1.358 1.358 0 0 1 .64 1.054c.011.223-.037.448-.02.671.021.276.201.429.457.347.286-.085.484-.364.758-.475a.458.458 0 0 1 .572.122c0 .009-.007.02-.013.013-.2-.238-.541-.057-.743.107a1.855 1.855 0 0 1-.571.39.48.48 0 0 1-.523-.117.824.824 0 0 1-.151-.53c.009-.21-.004-.42-.039-.628a1.104 1.104 0 0 0-.276-.489 1.225 1.225 0 0 0-1.091-.375c-.507.084-.937.414-1.327.772-.101.099-.282-.023-.177-.148Zm-1.814.925c.003 0 .006 0 .008.003a.012.012 0 0 1 .003.008.012.012 0 0 1-.003.008 1.909 1.909 0 0 1-.26.655c.073.012.146.02.22.021.01 0 .008.017 0 .02a2.293 2.293 0 0 0-.225.109 2.076 2.076 0 0 1-.202.067 2 2 0 0 1-.415.079.071.071 0 0 1-.056-.013.07.07 0 0 1-.027-.05l-.017.034a2.093 2.093 0 0 0-.126 1.446c.046.167-.207.311-.263.142-.337-1.045.316-2.354 1.363-2.53Zm2.284 5.388a4.26 4.26 0 0 1 .44-.481c.161-.15.338-.278.504-.42.014-.012.03 0 .016.018a3.61 3.61 0 0 0-.672.89 5.91 5.91 0 0 0-.46.981 5.077 5.077 0 0 0-.304 2.143c.035.414.102.824.2 1.227a.173.173 0 0 1-.313.12c-.335-.687-.403-1.51-.305-2.295a4.477 4.477 0 0 1 .894-2.183Zm-1.283.94c.24-.372.411-.785.503-1.219.074-.44.101-.886.08-1.331.301.724.117 1.611-.229 2.313-.18.365-.428.737-.517 1.142a.989.989 0 0 0 .222.895c.112.112-.088.297-.199.222-.286-.185-.371-.555-.324-.908.073-.4.23-.78.464-1.114Zm8.735-2.777c.375.2.675.515.857.9.11.205.193.422.248.648 0-.014 0-.027.012-.04.19-.526.46-1.02.8-1.465.013-.016.042 0 .032.014-.217.48-.392.979-.522 1.49-.143.518-.226 1.05-.35 1.571-.022.09-.165.134-.179.022a2.974 2.974 0 0 1 .02-.796.1.1 0 0 1-.06-.074 7.87 7.87 0 0 0-.331-1.173 6.856 6.856 0 0 0-.586-1.036.046.046 0 0 1 .032-.063.045.045 0 0 1 .027.002Zm-5.937 2.64a2.94 2.94 0 0 1 1.113-1.076.018.018 0 0 1 .022.008.02.02 0 0 1 .003.012.02.02 0 0 1-.007.012 3.521 3.521 0 0 0-1.362 2.224 3.072 3.072 0 0 0 .621 2.365c.133.167.284.318.45.451.117.14.244.268.381.386.068.077.143.148.225.21a.237.237 0 0 1-.239.12c-.411-.108-.786-.428-1.057-.773a3.272 3.272 0 0 1-.601-1.214 3.628 3.628 0 0 1 .451-2.725Zm2.979-16.134c.098-.21.236-.401.405-.561.182-.153.398-.259.63-.309.428-.094.973-.041 1.271.326.114.143-.091.31-.218.243-.326-.173-.656-.299-1.034-.232a2.09 2.09 0 0 0-.529.173 1.348 1.348 0 0 0-.506.374c-.01.015-.03.003-.02-.014ZM62.505 34.7c.033-.026.077 0 .051.045a3.326 3.326 0 0 0-.411 1.057 2.53 2.53 0 0 0 .056 1.125c.037.13-.143.235-.205.11-.341-.732-.158-1.834.509-2.337Zm1.585-4.627c.115.158.37.203.545.241.194.045.394.061.593.049.2-.012.399-.05.59-.113.143-.054.383-.12.48-.269v-.015a.573.573 0 0 0-.212.024c-.091.016-.18.037-.271.049a2.91 2.91 0 0 1-1.036-.045c.09-.175.155-.366.247-.541.09-.165.19-.324.302-.474a3.77 3.77 0 0 1 1.532-1.247 3.959 3.959 0 0 1 1.916-.277c-.02.025-.038.052-.061.077-.023.024.008.025.018.017.074-.054.152-.101.233-.143a2.494 2.494 0 0 1 .614-.243 1.81 1.81 0 0 1 .839-.023c.288.068.556.204.781.396.218.202.407.435.56.69.083.127.261-.032.227-.16a1.62 1.62 0 0 0-.474-.773 2.097 2.097 0 0 1 .66.204 2.378 2.378 0 0 1 .938.863 1.426 1.426 0 0 0-.207-.153c-.082-.05-.17-.09-.261-.118a.338.338 0 0 0-.13-.02c-.033 0-.063.024-.092.024-.028 0-.06.049-.027.066s.027.037.046.058c.028.026.06.048.094.065.075.043.147.093.213.15.121.111.224.24.306.384.057.102.105.208.143.318.076.49.124.985.142 1.482a11.38 11.38 0 0 1-.344 3.036c-.122.499-.28.987-.475 1.462-.195.475-.438.924-.655 1.387-.015.034.029.043.047.021.37-.471.673-.992.899-1.547.222-.5.403-1.018.541-1.548a3.9 3.9 0 0 0 .605-.977 3.737 3.737 0 0 0 .275-1.966 4.024 4.024 0 0 0-.437-1.348 1.994 1.994 0 0 0-.215-.342c-.08-.3-.212-.585-.39-.841a2.308 2.308 0 0 0-.883-.767 2.06 2.06 0 0 0-1.164-.226.154.154 0 0 0-.065.026 1.878 1.878 0 0 0-1.571-.069 1.79 1.79 0 0 0-.64.423.755.755 0 0 0-.069.083 2.581 2.581 0 0 0-1.13-.164 3.589 3.589 0 0 0-1.966.832 4.06 4.06 0 0 0-.746.83 3.41 3.41 0 0 0-.496.959.677.677 0 0 0-.227-.044.155.155 0 0 0-.141.237Zm9.55-.207a2.58 2.58 0 0 0 .031-.412c.05.102.096.206.143.312a3.837 3.837 0 0 1-.414 3.514c.109-.443.187-.892.236-1.345a9.638 9.638 0 0 0 .004-2.07Z" fill="#2E2E2E"/><path d="M70.256 27.861a1.042 1.042 0 0 1 .67.63 1.2 1.2 0 0 1 .08.507c-.01.166-.04.404-.19.492-.043.025-.123.017-.143-.042-.037-.128.053-.286.069-.418a1.414 1.414 0 0 0-.022-.429c-.057-.286-.227-.601-.48-.714-.014-.004 0-.032.016-.026Zm-.523 16.466c.083-.177.184-.345.27-.52.085-.174.16-.33.234-.497a16.9 16.9 0 0 0 .416-1.055c.13-.357.233-.73.328-1.1.096-.37.167-.746.277-1.11 0-.021.049-.033.049 0-.005.38-.053.757-.143 1.126-.081.38-.183.757-.304 1.127a11.67 11.67 0 0 1-.41 1.085c-.144.361-.318.71-.519 1.043-.055.097-.255.021-.198-.099ZM62.642 54.43a2.526 2.526 0 0 0 4.182.421c.413-.497.652-1.117.858-1.714.13-.38.247-.765.352-1.151.053-.193.102-.389.143-.584.04-.193.091-.384.152-.572 0-.008.023-.01.023 0a3.131 3.131 0 0 1-.06.54c-.03.186-.069.369-.109.552-.079.372-.173.74-.286 1.105-.194.659-.413 1.326-.824 1.884a2.8 2.8 0 0 1-4.738-.35c-.07-.165.221-.291.307-.131Zm9.149-16.412a9.342 9.342 0 0 0 1.379-3.571c.058-.361.09-.727.124-1.091 0-.036.067-.043.07 0a7.281 7.281 0 0 1-.2 1.94 8.912 8.912 0 0 1-1.192 2.84.11.11 0 0 1-.112.054.108.108 0 0 1-.069-.172Zm-8.276 8.277c.064-.138.142-.269.233-.391.087-.13.186-.252.295-.363a2.34 2.34 0 0 1 .344-.294c.125-.08.254-.152.388-.215a2.782 2.782 0 0 0-.652.572 3.163 3.163 0 0 0-.257.332c-.076.13-.145.263-.207.399-.04.09-.184.059-.144-.04Zm-5.872-6.751c.084-.245.193-.481.324-.705a4.039 4.039 0 0 1 1.344-1.4c.121-.084.255-.15.396-.194a.077.077 0 0 1 .101.042.078.078 0 0 1-.041.101c-.125.099-.274.166-.406.252a4.582 4.582 0 0 0-1.034.936 4.366 4.366 0 0 0-.507.795 3.91 3.91 0 0 0-.334.91c0 .007-.015.007-.013 0a4.29 4.29 0 0 1 .17-.737Z" fill="#2E2E2E"/><path d="M72.626 36.472c-.321.672-.647 1.378-1.224 1.877a2.222 2.222 0 0 1-1.841.551.043.043 0 0 0-.022.081c.6.286 1.329.115 1.873-.232 0 .177 0 .354-.013.531a12.27 12.27 0 0 1-.058.786 9.392 9.392 0 0 1-.315 1.6 9.16 9.16 0 0 1-1.428 2.918c-.374.497-.784.965-1.227 1.402-.107.108.074.322.197.228a6.94 6.94 0 0 0 1.45-1.527c-.103.371-.192.75-.286 1.118a47.07 47.07 0 0 1-.47 1.659 30.364 30.364 0 0 1-.537 1.61c-.198.542-.428 1.075-.608 1.622a.167.167 0 0 0 .064.187 3.477 3.477 0 0 1-.891 1.154c-.098.083.024.267.127.186a2.943 2.943 0 0 0 .95-1.296c.02-.054.042-.115.062-.178.24-.496.45-1.005.629-1.526.19-.533.368-1.07.534-1.612a23.62 23.62 0 0 0 .429-1.632c.137-.559.229-1.128.274-1.702.14-.226.27-.457.393-.693a8.801 8.801 0 0 0 .937-3.258c.028-.308.035-.617.02-.925a4.21 4.21 0 0 0-.086-.745c.669-.49 1.087-1.267 1.363-2.032.05-.18-.206-.347-.296-.152Zm-7.081 4.578a2.409 2.409 0 0 1-2.201-1.768c-.306-1.08.084-2.241.757-3.098.407-.51.888-.955 1.428-1.32.024-.016 0-.053-.028-.04-1.092.571-2.046 1.458-2.41 2.67-.339 1.125-.113 2.397.791 3.195a2.316 2.316 0 0 0 1.686.604c.164-.012.117-.24-.023-.242Zm7.925-10.657c-.744.117-1.097.908-1.278 1.55-.122.428-.216.874-.437 1.271-.201.35-.463.661-.774.919-1.243 1.052-2.969 1.3-4.184 2.392-.61.547-1.067 1.319-1.054 2.157 0 .012.02.016.02 0 .074-1.698 1.82-2.571 3.168-3.168.698-.313 1.404-.633 2.011-1.109a3.87 3.87 0 0 0 .764-.775 3.39 3.39 0 0 0 .486-1.076c.22-.758.446-1.771 1.358-1.951.135-.023.042-.23-.08-.21Zm-.563-2.063c-.498-.286-1.142.062-1.481.448-.456.523-.556 1.251-.783 1.884a5.91 5.91 0 0 1-2.214 2.821 6.05 6.05 0 0 1-1.857.873c-.013 0 0 .021 0 .018a5.571 5.571 0 0 0 2.991-1.63 5.867 5.867 0 0 0 1.013-1.43c.294-.586.413-1.232.68-1.83a1.77 1.77 0 0 1 .676-.826 1.135 1.135 0 0 1 .918-.12c.137.031.156-.153.057-.209Z" fill="#2E2E2E"/><path d="M67.115 37.66c-.17-.467-.015-.943.308-1.303.064-.07-.044-.197-.124-.143-.46.317-.53 1.016-.217 1.46a.019.019 0 0 0 .01.007.02.02 0 0 0 .012-.001.02.02 0 0 0 .009-.008.02.02 0 0 0 .002-.012Zm.632 1.792a4.57 4.57 0 0 0-.973.756 5.055 5.055 0 0 0-.414.458 1.643 1.643 0 0 0-.316.524c-.008.03.026.078.059.052.136-.123.259-.26.367-.409.134-.157.27-.313.416-.458.296-.288.613-.553.948-.794.073-.053-.01-.173-.087-.129Zm-.906 3.571a2.83 2.83 0 0 0-2.372-.536v.01c.405-.004.81.055 1.197.175.375.136.729.324 1.053.557.13.084.227-.117.122-.206Zm-5.153-1.552a2.255 2.255 0 0 1-.398-.357 1.23 1.23 0 0 1-.223-.503c-.076-.428.109-.794.361-1.127a.008.008 0 0 0 .003-.005c0-.002 0-.004-.002-.006a.008.008 0 0 0-.005-.002c-.002 0-.004 0-.005.002-.402.208-.592.728-.545 1.162.044.4.322.909.733 1.033.127.04.159-.126.081-.197Zm2.086-6.493c-.516.035-1 .383-1.296.785-.191.255-.33.547-.406.857l-.081-.143c-.076-.114-.217-.01-.154.106.074.136.134.28.181.428-.005.08-.005.16 0 .239a.107.107 0 0 0 .066.081 2.403 2.403 0 0 1-.339 1.568c-.057.103-.108.213-.167.315 0 0 0 .008.009 0 .108-.059.205-.136.285-.23.076-.094.14-.197.193-.306a2.15 2.15 0 0 0 .226-.734c.041-.327.014-.66-.08-.976.045-.393.19-.767.421-1.088.149-.195.32-.372.51-.526.192-.148.4-.273.62-.373l.003.002a.01.01 0 0 0 .004 0s.002 0 .003-.002l.002-.003Zm8.585.362a5.497 5.497 0 0 1-1.664.589c-.223.035-.606.125-.785-.066-.26-.276.189-.644.395-.774.008 0 0-.017-.009-.013-.27.136-.603.296-.571.655.02.328.347.45.63.458.368 0 .734-.056 1.085-.166a3.66 3.66 0 0 0 1.062-.481c.112-.08-.022-.265-.143-.202Zm-1.269 1.67c-.746.428-1.647.142-2.441.385a1.376 1.376 0 0 0-.817.613 1.05 1.05 0 0 0 0 .977.983.983 0 0 0 .947.54c.111-.011.075-.161-.02-.17-.429-.037-.825-.324-.858-.781-.032-.457.31-.812.715-.973.805-.32 1.77-.009 2.494-.572.003-.01-.009-.027-.02-.02Zm10.184-2.539a2.644 2.644 0 0 0-.047-.972 1.871 1.871 0 0 0-1.111-1.325 1.848 1.848 0 0 0-.983-.142c.365-.007.723.096 1.028.297a2.13 2.13 0 0 1 .904 1.818 2.42 2.42 0 0 1-.07.534 5.59 5.59 0 0 1-.2.549c-.037.106.082.248.168.143.176-.27.283-.58.311-.902Z" fill="#2E2E2E"/><path d="M84.745 43.436c.133-.441.195-.901.184-1.362a3.737 3.737 0 0 0-.272-1.327 1.94 1.94 0 0 0-.739-.965c.215-.276.373-.593.463-.932a3.47 3.47 0 0 0 .143-1.086 3.01 3.01 0 0 0-.732-1.898c-.245-.286-.537-.562-.885-.682-.186-.064-.247.252-.1.335.147.083.335.175.495.278.163.107.308.238.43.389.248.3.427.65.528 1.025.11.425.128.868.052 1.3-.088.431-.24.847-.45 1.234l-.047-.023a1.086 1.086 0 0 0-1.162.143c-.318-.111-.715-.214-.918-.518-.184-.273-.155-.629-.081-.954.143-.666.494-1.327.259-2-.275-.78-1.029-1.033-1.715-1.216-.437-.117-.877-.208-1.257-.474a1.305 1.305 0 0 1-.59-1.014c0-.009-.014-.013-.015 0-.055.725.49 1.268 1.044 1.517.398.18.824.271 1.236.414.333.112.637.297.89.541a1.143 1.143 0 0 1 .332.927 4.701 4.701 0 0 1-.261 1.04 2.182 2.182 0 0 0-.143.946 1.125 1.125 0 0 0 .527.796c.533.348 1.55.384 1.5 1.3 0 .11.151.17.199.057.134-.315-.01-.642-.202-.865a1.73 1.73 0 0 0-.73-.471 1.208 1.208 0 0 1 .973 0c.357.177.571.587.714.97a3.918 3.918 0 0 1-.317 3.281c-.07.1-.129.206-.174.319-.036.118.06.275.183.194.174-.116.285-.37.381-.56a4 4 0 0 0 .257-.659Z" fill="#2E2E2E"/><path d="M83.272 38.62a.924.924 0 0 0-.522-.295 2.254 2.254 0 0 0 .55-.807c.034-.087.06-.177.077-.269.01-.09.013-.18.009-.27h-.01a1.123 1.123 0 0 1-.069.16c-.014.033-.026.069-.038.103-.033.08-.066.16-.105.237a1.97 1.97 0 0 1-.273.413 1.86 1.86 0 0 1-.358.322 1.595 1.595 0 0 1-.203.117.784.784 0 0 0-.143.05.603.603 0 0 0-.1.037.144.144 0 0 0-.075.083l-.032.033c-.074.084.017.267.12.215l.11-.057a.778.778 0 0 0 .143-.078.858.858 0 0 1 .9.041c.019.011.031-.02.019-.034Zm.491 3.573a.114.114 0 0 0-.065-.084.53.53 0 0 0 .026-.153.098.098 0 0 0-.056-.096.098.098 0 0 0-.11.02c-.074.101-.138.21-.19.324a2.356 2.356 0 0 1-.228.302 1.639 1.639 0 0 1-.617.457c-.022 0-.009.038.01.036a1.553 1.553 0 0 0 .977-.566c-.01.194-.047.387-.109.571-.093.256-.239.49-.428.685a1.781 1.781 0 0 1-.583.392 3.418 3.418 0 0 1-.669.157c-.05.01-.028.088 0 .1.465.142 1.045-.13 1.406-.48.411-.4.731-1.085.636-1.665Zm-.257 6.714c.286-.32.429-.757.529-1.173.198-.81.244-1.65.134-2.477a5.337 5.337 0 0 0-.127-.657 3.999 3.999 0 0 0-.226-.618c-.007-.017-.028 0-.025.013.062.358.107.728.142 1.094.031.372.037.746.016 1.118-.018.37-.065.737-.143 1.099a3.602 3.602 0 0 1-.368 1.11c-.092.162-.22.3-.374.405a.916.916 0 0 1-.356.125c.012-.158.057-.312.134-.45.024-.046-.033-.115-.074-.079-.397.337-.307.967-.263 1.42.054.47.002.945-.151 1.393-.15.44-.401.84-.733 1.165a3.204 3.204 0 0 1-1.162.647 2.38 2.38 0 0 0-.918.522c.032-.19.055-.38.067-.572 0-.015-.023-.035-.03-.012a8.675 8.675 0 0 1-.468 1.154c-.177.385-.39.753-.636 1.098-.429.58-1 1.129-1.681 1.223a1.437 1.437 0 0 1-.857-.143c.113-.23.208-.47.285-.714 0-.013-.013-.027-.02-.012a2.813 2.813 0 0 1-.428.626l-.022-.016c-.157-.115-.298.13-.215.276l-.086.087c-.269.28-.584.513-.931.686a2.703 2.703 0 0 1-2.25.077 2.874 2.874 0 0 1-1.041-.793.166.166 0 0 0-.256 0 .238.238 0 0 0 .018.294 2.837 2.837 0 0 0 2.266 1.116c.837 0 1.64-.391 2.255-1.047.076-.081.148-.167.215-.256.571.397 1.338.286 1.944-.105.701-.453 1.231-1.232 1.581-2.016.055-.121.103-.246.143-.373a.1.1 0 0 0 .133-.047c.238-.384.653-.554 1.032-.703a3.59 3.59 0 0 0 1.175-.637 3.334 3.334 0 0 0 1.12-2.512c-.01-.302-.096-.612-.133-.919.278.024.598-.208.785-.417Z" fill="#2E2E2E"/><path d="M71.751 56.28a2.69 2.69 0 0 1-.92.188 1.676 1.676 0 0 1-.842-.249 1.892 1.892 0 0 1-.618-.61 2.281 2.281 0 0 1-.207-.428 1.873 1.873 0 0 1-.048-.166 1.655 1.655 0 0 0 1.465-.101c.159-.098.026-.39-.142-.33-.295.12-.614.17-.932.142a1.541 1.541 0 0 1-.801-.344c-.477-.398-.7-1.107-.59-1.772 0-.029-.031-.043-.04-.013a2.09 2.09 0 0 0 .454 2.037c.126.124.27.227.429.305a2.12 2.12 0 0 0 .204.816c.143.323.37.601.66.804.56.393 1.456.463 2.055.017.133-.095.028-.348-.127-.295Zm-.132-12.59c.348-.371.73-.71 1.142-1.008.022-.016 0-.049-.02-.038a5.411 5.411 0 0 0-1.364.993c.027-.091.052-.183.075-.271.079-.323.14-.65.184-.979.088-.642.143-1.285.226-1.934.16-1.17.45-2.387 1.285-3.254.371-.41.866-.688 1.41-.791.053-.009.046-.094 0-.092-.95.06-1.758.795-2.25 1.673-.661 1.183-.764 2.571-.951 3.88a17.86 17.86 0 0 1-.197 1.127 13.51 13.51 0 0 1-.13.555c-.047.185-.12.38-.156.572a.144.144 0 0 0 0 .074 7.343 7.343 0 0 0-1.381 2.826 5.614 5.614 0 0 0-.185 1.62.176.176 0 0 0 .18.158c-.898.857-1.47 2.233-1.272 3.472 0 .015.021.023.024 0 .09-.65.277-1.283.556-1.878a5.302 5.302 0 0 1 1.155-1.563c.143-.131 0-.417-.164-.292-.07.052-.143.11-.204.17v-.032c.021-.453.073-.905.154-1.351a7.705 7.705 0 0 1 1.877-3.63l.006-.007Zm8.811-4.318a3.1 3.1 0 0 0 .032-.539 2.881 2.881 0 0 0-.214-1.01 2.381 2.381 0 0 0-.754-.974c.208.049.417.09.627.123.16.024.18-.21.046-.258-.858-.313-1.769-.45-2.627-.753a3 3 0 0 1-1.726-1.469 3.572 3.572 0 0 1-.387-1.262c0-.009-.013-.01-.013 0 0 .784.277 1.542.781 2.142.603.703 1.457.99 2.305 1.219l.468.125c.02.02.04.04.063.056l.17.127c.12.09.233.19.336.3.203.215.364.467.474.742a2.61 2.61 0 0 1 .151 1.35c-.023.157-.097.33-.061.482.016.067.104.129.167.076.124-.104.141-.321.163-.477Zm-2.827-8.565a1.774 1.774 0 0 0-1.975-.417 2.096 2.096 0 0 0-1 .77c-.075.111.054.266.151.16a2.042 2.042 0 0 1 1.726-.714c.635.061 1.127.501 1.384 1.11.148.359.214.746.193 1.134 0 0 .01.011.011 0a2.081 2.081 0 0 0-.49-2.043Zm2.651 2.259a.102.102 0 0 0-.025-.093.102.102 0 0 0-.091-.031c-.089.02-.163.13-.24.183a.845.845 0 0 1-.286.126.858.858 0 0 1-.61-.06c-.02-.012-.034.017-.02.03a.762.762 0 0 0 .642.238c-.042.08-.076.164-.103.25-.052.168-.089.396 0 .547 0 .002.002.004.004.005a.012.012 0 0 0 .013 0 .12.12 0 0 0 .464-.922c.099-.06.23-.153.252-.273Zm.156-.758a2.205 2.205 0 0 0-.23-.299 3.597 3.597 0 0 1-.2-.324 2.962 2.962 0 0 1-.296-.748c.025.273.09.543.192.798.055.13.122.254.199.371a.931.931 0 0 0 .254.305c.062.035.109-.042.08-.103Z" fill="#2E2E2E"/><path d="M80.235 41.765a4.725 4.725 0 0 1-.024-1.197c.022-.196.041-.391.076-.587.034-.196.091-.406.117-.611a.132.132 0 0 0-.063-.129c.023-.103-.118-.186-.167-.076a4.84 4.84 0 0 1-.733 1.257c-.32.366-.708.665-1.143.882-.012 0 0 .028.008.024.477-.136.91-.398 1.25-.759.18-.181.34-.382.478-.598a3.31 3.31 0 0 0-.041.571c.01.42.086.835.222 1.232 0 .008.023.01.02-.009Zm-5.01.563a1.94 1.94 0 0 0-1.142-1.533 1.737 1.737 0 0 0-1.069-.064c-.383.08-.727.29-.973.594-.07.097.032.266.143.188.24-.205.515-.365.812-.473a1.57 1.57 0 0 1 .88-.015c.57.165 1.018.708 1.13 1.34.13.742-.226 1.507-.68 2.08-.479.607-1.105 1.034-1.703 1.483-.333.25-.666.501-.976.785a4.452 4.452 0 0 0-.417.429c-.143.17-.253.357-.378.54 0 .011.007.027.015.016.25-.328.544-.62.873-.867.31-.258.64-.485.97-.715.663-.448 1.347-.927 1.857-1.59.458-.608.774-1.43.658-2.198Z" fill="#2E2E2E"/><path d="M72.958 43.405c-.14-.05-.283-.09-.429-.117a1.413 1.413 0 0 0-.428.01 1.442 1.442 0 0 0-.817.4c-.088.088.035.23.128.177.231-.142.476-.26.732-.352.257-.096.534-.132.808-.104.011.001.013-.013.006-.014Zm.231 9.375c.25-.81.053-1.713-.598-2.156a1.21 1.21 0 0 0-1.175-.132c-.127.056-.061.265.065.23a1.227 1.227 0 0 1 1.497.847c.211.699-.059 1.474-.522 2.026-.138.163-.295.31-.467.437a2.899 2.899 0 0 1-.54.354c-.01 0 0 .022 0 .019a3.58 3.58 0 0 0 .56-.209c.186-.103.358-.23.513-.374.311-.282.541-.641.667-1.041Z" fill="#2E2E2E"/><path d="M71.984 51.877a.092.092 0 0 0-.04-.106.093.093 0 0 0-.111.01c-.099.11-.175.241-.269.357-.094.119-.196.23-.306.336a2.642 2.642 0 0 1-.571.408c.064-.1.117-.207.159-.318.056-.14.087-.288.09-.439a2.48 2.48 0 0 0-.071-.455.007.007 0 0 0-.005-.002c-.002 0-.004 0-.005.002a2.21 2.21 0 0 1-.63 1.38 2.143 2.143 0 0 1-1.475-.142c-.014-.007-.021.016-.01.023.267.183.57.304.89.357.205.027.413.021.616-.017a.08.08 0 0 0 .031 0c.106-.021.211-.05.313-.087a2.37 2.37 0 0 0 .833-.496c.258-.214.452-.494.561-.812Zm1.866-15.406a3.08 3.08 0 0 0-.24-.251 1.749 1.749 0 0 1-.194-.302 1.607 1.607 0 0 1-.184-.752c0-.008-.011-.01-.013 0a1.93 1.93 0 0 0 .044.81c.039.13.095.254.166.37a.799.799 0 0 0 .272.314.124.124 0 0 0 .15-.189Zm6.37 7.024c.157-.08.31-.17.455-.271.548-.392 1.087-.985 1.327-1.654.05-.143-.121-.276-.203-.126-.254.51-.617.958-1.064 1.313-.163.122-.336.23-.517.322a.114.114 0 0 0-.109.053 3.38 3.38 0 0 1-.814.26c-.571.107-1.266.043-1.714-.347a1.698 1.698 0 0 1-.522-1.507 2.01 2.01 0 0 1 1.219-1.525c.058-.022.027-.118-.029-.103a1.954 1.954 0 0 0-1.285 1.285 2.142 2.142 0 0 0 .216 1.806c.594.903 1.714 1 2.683.644a2.655 2.655 0 0 0 .152 2.143.014.014 0 1 0 .026-.013 3.181 3.181 0 0 1 .178-2.28Zm-.286 6.875a2.467 2.467 0 0 0-.558-2.031 1.587 1.587 0 0 0-.917-.556c-.011 0-.014.014 0 .02.545.293.952.79 1.133 1.382.158.644.07 1.325-.248 1.908a2.794 2.794 0 0 1-.714.874c-.054.046-.014.167.056.134a2.43 2.43 0 0 0 1.248-1.73Zm3.04-4.876c.048-.254.068-.513.058-.771a3.23 3.23 0 0 0-.04-.391.766.766 0 0 0-.12-.367.09.09 0 0 0-.156.052c-.001.112.015.222.048.329a3.141 3.141 0 0 1-.006 1.107 4.152 4.152 0 0 1-.206.714l-.071.184a2.303 2.303 0 0 0-.286-1.01c-.103-.18-.317-.018-.236.166a2.473 2.473 0 0 1-1.084 3.217c-.3.17-.631.274-.974.306a.014.014 0 0 0-.014.014.014.014 0 0 0 .014.014 2.015 2.015 0 0 0 1.78-.571c.497-.5.784-1.17.801-1.874a1.98 1.98 0 0 0 .242-.369c.116-.237.2-.49.25-.75Zm-4.5 4.084a2.44 2.44 0 0 0-1.857 1.143c-.22.334-.366.712-.428 1.107-.072.493 0 .983.054 1.464.06.58.073 1.211-.226 1.748-.057.102.082.225.16.132.657-.791.267-1.816.193-2.714v-.029c.025-.358.159-.7.383-.98.211-.28.51-.48.849-.571.008 0 0-.02 0-.019a1.43 1.43 0 0 0-.962.472c-.08.092-.153.19-.216.295.139-.57.451-1.084.895-1.47a2.285 2.285 0 0 1 1.152-.56c.015 0 .013-.018.003-.018Zm-3.118-3.33c-.732-.463-1.654.06-2.236.657a10.74 10.74 0 0 0-1.705 2.428 8.15 8.15 0 0 0-.571 1.307.069.069 0 0 0-.091.02c-.231.287-.5.541-.8.756-.143.099-.292.19-.445.273a3.61 3.61 0 0 1-.492.27c.187-.031.37-.079.55-.142.164-.073.322-.161.471-.263.269-.18.512-.395.724-.64a3.66 3.66 0 0 0 .114-.134.097.097 0 0 0 .01-.103c.385-.78.822-1.535 1.307-2.257.264-.376.55-.735.858-1.075a3.286 3.286 0 0 1 1-.796 1.504 1.504 0 0 1 1.234-.051c.141.071.182-.182.072-.25Zm1.341 4.229c.021-.08-.06-.171-.133-.142-.072.041-.14.09-.204.142a.614.614 0 0 1-.23.075.747.747 0 0 1-.444-.09c-.353-.199-.565-.59-.82-.903-.232-.286-.54-.571-.917-.559a.76.76 0 0 0-.715.512s0 .016.012 0c.201-.364.658-.403.961-.237.36.195.572.584.823.908.226.294.501.572.868.633.243.044.71-.009.799-.339Z" fill="#2E2E2E"/><path d="M80.364 48.47c-.122-.968-.757-1.94-1.726-1.952a1.357 1.357 0 0 0-1.106.544c-.13.183-.21.399-.344.571-.167.222-.398.25-.571.047-.194-.225-.212-.57-.383-.808a.46.46 0 0 0-.55-.206c-.01 0 0 .022 0 .019.297-.094.486.243.572.49.051.229.145.446.277.64a.48.48 0 0 0 .502.181.834.834 0 0 0 .415-.366 2.87 2.87 0 0 1 .37-.508c.14-.13.31-.22.495-.264a1.222 1.222 0 0 1 1.117.278c.382.342.572.857.702 1.364.035.135.25.126.23-.03Zm1.032 1.749a.011.011 0 0 0-.008-.004h-.004a.014.014 0 0 0-.004.003.01.01 0 0 0-.003.004.012.012 0 0 0 0 .009 1.65 1.65 0 0 0-.136.694 1.7 1.7 0 0 1-.196-.1c-.009 0-.017.01-.01.018.045.064.087.13.126.198a2.135 2.135 0 0 0 .44.452.07.07 0 0 0 .055.018.069.069 0 0 0 .049-.028v.04c-.064.495-.302.95-.672 1.285-.128.116 0 .373.143.26.856-.682 1.009-2.137.22-2.85Zm-4.824 3.315a4.386 4.386 0 0 0-.112-.643c-.055-.215-.142-.416-.198-.626v-.006a.013.013 0 0 0-.007-.01.012.012 0 0 0-.011 0 .013.013 0 0 0-.007.01v.006c.088.364.117.739.09 1.111a6.075 6.075 0 0 1-.144 1.075 5.096 5.096 0 0 1-.895 1.97 8 8 0 0 1-.829.926c-.133.13.056.358.199.269.653-.398 1.153-1.056 1.492-1.771.344-.72.49-1.517.422-2.311Zm.58 1.481a3.572 3.572 0 0 1 .231-1.296c.173-.41.39-.801.647-1.165-.644.447-.965 1.294-1.051 2.07-.046.407-.031.858-.18 1.244a.985.985 0 0 1-.667.634c-.156.033-.086.297.048.294.335 0 .612-.268.76-.591.156-.377.228-.783.212-1.19Zm1.177-10.475c-.715.286-1.439.554-2.189.642a5.554 5.554 0 0 1-1.1.018 4.53 4.53 0 0 1-.811-.146 2.44 2.44 0 0 0-.286-.098.131.131 0 0 0-.073.243c.093.033.189.055.286.067a5.862 5.862 0 0 0 1.998.114 4.56 4.56 0 0 0 2.193-.803c.013-.013 0-.044-.018-.037Zm-.978-5.156a2.497 2.497 0 0 0-.76-.816 2.295 2.295 0 0 0-2.095-.257.017.017 0 0 0-.007.009.017.017 0 0 0 .005.02.017.017 0 0 0 .01.003 2.544 2.544 0 0 1 1.956.348c.288.188.529.438.706.732.094.155.166.324.213.5.038.18.061.364.068.548 0 .057.09.109.117.034.132-.375-.034-.81-.213-1.12Zm-6.07 8.593a1.97 1.97 0 0 0-1.21.294 2.77 2.77 0 0 0-.56.414c0-.014.01-.027.012-.041a5.426 5.426 0 0 0 .117-1.661c0-.019-.031-.029-.034 0a8.912 8.912 0 0 1-.361 1.535c-.153.517-.375 1.007-.552 1.516-.03.088.067.203.143.114a2.99 2.99 0 0 0 .411-.681.101.101 0 0 0 .09-.03c.282-.294.586-.565.91-.812a6.814 6.814 0 0 1 1.052-.557.047.047 0 0 0-.017-.091Z" fill="#2E2E2E"/><path d="M77.07 39.014c-.236-.278-.63-.355-.975-.35a1.457 1.457 0 0 0-.986.395v.008c.3-.137.628-.204.957-.194.335.014.606.17.902.304.104.046.17-.081.101-.163Zm.28-3.13a1.27 1.27 0 0 1-.43-.508 2.087 2.087 0 0 1-.13-.784c0-.286.015-.579 0-.868-.008-.322-.048-.641-.046-.965-.026.341-.1.678-.125 1.02-.024.341-.052.664-.048 1 .008.51.174 1.25.714 1.35.134.018.161-.173.064-.245Zm-1.601.159a1.089 1.089 0 0 0-.99-.614c-.017 0-.017.027 0 .031a1.267 1.267 0 0 1 .843.689c.165.354.114.731 0 1.11a.097.097 0 0 0 .177.08 1.487 1.487 0 0 0-.03-1.296Zm-.883 17.35a2.946 2.946 0 0 0-.36-1.504.018.018 0 0 0-.023-.005.019.019 0 0 0-.009.008.02.02 0 0 0-.001.013 3.51 3.51 0 0 1-.047 2.608 3.073 3.073 0 0 1-1.797 1.662 2.82 2.82 0 0 1-.622.142 2.822 2.822 0 0 1-.528.12c-.099.03-.2.05-.303.059a.234.234 0 0 0 .143.228c.404.13.896.06 1.306-.082a3.26 3.26 0 0 0 1.16-.7 3.634 3.634 0 0 0 1.08-2.549Z" fill="#2E2E2E"/><path d="M76.279 52.909c.154-1.102-.242-2.332-1.247-2.689a1.367 1.367 0 0 0-1.311.242 1.54 1.54 0 0 0-.528 1.377c.066.714.382 1.371.542 2.062 0 .019.03.012.025-.008-.068-.294-.104-.6-.15-.9-.042-.259-.098-.513-.144-.77-.074-.47-.103-.976.242-1.361a1.162 1.162 0 0 1 1.085-.372 1.491 1.491 0 0 1 .973.826c.237.478.294 1.02.321 1.571.01.103.173.154.192.022Zm4.733-6.195a1.166 1.166 0 0 1-.238-.133.091.091 0 0 0-.012-.107 4.16 4.16 0 0 1-.661-.821 3.526 3.526 0 0 1-.236-.463c-.038-.204-.078-.407-.111-.613v-.06a.119.119 0 0 0 .087-.101c.036-.183.083-.36.12-.541a.157.157 0 0 0 0-.073l.016-.072c.035-.074.072-.143.112-.221.089-.162-.132-.361-.255-.21a2.004 2.004 0 0 0-.216.336c-.007-.105-.143-.178-.201-.058-.038.073-.075.143-.113.219-.189-.174-.484-.286-.714-.127a.122.122 0 0 0-.002.186c.018.016.04.026.063.03.111-.01.223 0 .331.027.106.037.2.102.273.188a.617.617 0 0 1 .132.319c-.013.104-.02.208-.02.313a1.036 1.036 0 0 1-.045.142c-.233.632-.857.926-1.39 1.143-.015 0-.01.032 0 .03.55-.043 1.166-.285 1.48-.798a2.097 2.097 0 0 0 .676 1.19c.127.107.272.192.428.251.159.047.323.072.488.073.032.001.027-.042.008-.049Zm-7.849-5.931a2.38 2.38 0 0 1-.527-.194 1.238 1.238 0 0 1-.404-.385c-.202-.299-.223-.645-.215-1.015a.113.113 0 0 0-.096-.119.113.113 0 0 0-.127.088 1.504 1.504 0 0 0 .276 1.227c.177.234.43.399.714.466a1.772 1.772 0 0 0-.36.142 2.362 2.362 0 0 0-1.198 2.363c.021.143.213.164.207 0a2.572 2.572 0 0 1 .507-1.647c.159-.203.352-.376.572-.511.108-.069.222-.127.341-.176.084-.034.231-.069.286-.154a.017.017 0 0 0 .005-.012c0-.003 0-.005-.002-.007a.016.016 0 0 0-.003-.005l.027-.009c.026-.009.018-.046-.003-.052Z" fill="#2E2E2E"/><path d="M78.59 49.491a1.101 1.101 0 0 0-.827-.036 2.242 2.242 0 0 0-1.311 1 .13.13 0 0 0-.035.025 2.9 2.9 0 0 0-.195.237.085.085 0 0 0-.06-.042.086.086 0 0 0-.072.02.101.101 0 0 0-.114 0c-.099.069-.203.112-.198.253a.298.298 0 0 0 .142.252.76.76 0 0 0 .093.38c.016.028.038.05.066.065v.114c.008.175.263.253.298.042.105-.617.329-1.189.785-1.617.198-.187.432-.333.688-.429.244-.091.499-.122.742-.214a.029.029 0 0 0-.002-.05Zm-.998-9.063c.19-.124 0-.428-.186-.331-.63.33-1.082.976-1.329 1.668-.247.693-.294 1.429-.02 2.073a.01.01 0 0 0 .01.006.01.01 0 0 0 .009-.006 3.745 3.745 0 0 1 .266-1.944c.265-.6.7-1.109 1.25-1.466Zm3.439-2.235a1.896 1.896 0 0 0-.041-.692 1.443 1.443 0 0 0-.366-.6c-.313-.312-.797-.557-1.245-.408-.173.057-.09.31.052.321.369.03.715.102 1 .362.136.126.254.27.352.428.12.175.198.376.225.587-.001.02.022.022.023.002Zm.944 2.187c-.014-.04-.066-.04-.068.01-.01.381-.084.758-.222 1.113a2.522 2.522 0 0 1-.651.917c-.102.092 0 .277.114.203.68-.438 1.119-1.46.827-2.243Zm1.17-5.018a.66.66 0 0 0-.216-.085c.089-.351.122-.714.099-1.075a4.061 4.061 0 0 0-.184-1.1 3.58 3.58 0 0 0-1.209-1.76 2.577 2.577 0 0 0-1.041-.47.688.688 0 0 0-.013-.106 1.882 1.882 0 0 0-.311-.701 1.886 1.886 0 0 0-1.363-.788.155.155 0 0 0-.042-.057 2.046 2.046 0 0 0-1.102-.428c-.398-.048-.8.01-1.169.165a2.738 2.738 0 0 0-.781.502 1.968 1.968 0 0 0-.364.171 3.985 3.985 0 0 0-1.091.899 3.73 3.73 0 0 0-.83 1.8 3.911 3.911 0 0 0-.016 1.142 10.36 10.36 0 0 0-.377 1.599 6.482 6.482 0 0 0-.073 1.786c0 .028.045.045.05 0 .067-.507.104-1.015.194-1.52.091-.506.22-1.003.386-1.49a11.44 11.44 0 0 1 1.342-2.745c.284-.407.592-.797.922-1.168a1.83 1.83 0 0 1 .295-.19 1.59 1.59 0 0 1 .465-.159 1.39 1.39 0 0 1 .258-.012.351.351 0 0 0 .116 0c.025-.008.045-.026.07-.025.024.002.035-.056.011-.07-.024-.014-.038-.048-.063-.068a.348.348 0 0 0-.12-.055 1.275 1.275 0 0 0-.541-.023 2.376 2.376 0 0 1 1.254-.223 2.142 2.142 0 0 1 .667.184c-.304.051-.587.19-.815.397-.099.09-.033.318.105.257.266-.135.55-.231.843-.286.293-.04.592-.01.871.087.266.1.504.261.695.47a2.47 2.47 0 0 1 .385.537c.047.077.089.157.123.24 0 .013.029.015.026 0a.784.784 0 0 1-.01-.094c.586.293 1.09.728 1.466 1.264.37.56.585 1.208.62 1.878.015.188.015.376 0 .563-.015.197-.062.392-.082.589a2.89 2.89 0 0 1-.897-.52c-.07-.059-.134-.124-.201-.187a.57.57 0 0 0-.166-.133s-.012 0-.012.01c0 .177.163.36.26.484.127.156.273.294.436.412.16.12.337.216.526.285.168.063.408.163.59.09a.155.155 0 0 0 .014-.273Zm-9.06-3.294c-.203.408-.377.83-.523 1.26a3.837 3.837 0 0 1 1.54-3.185c.095-.068.19-.13.285-.189a2.5 2.5 0 0 0-.194.365 9.687 9.687 0 0 0-1.109 1.75Z" fill="#2E2E2E"/><path d="M79.119 30.448a1.043 1.043 0 0 0-.903.17c-.14.103-.256.234-.341.386-.08.142-.183.36-.105.515.025.046.095.082.143.04.1-.088.107-.267.167-.39.064-.128.148-.245.247-.347.202-.21.515-.384.789-.343.016.003.02-.027.003-.031Zm-8.412 14.166c.026-.193.03-.39.052-.583a13.994 13.994 0 0 1 .287-1.659c.087-.367.197-.74.315-1.104.119-.364.26-.714.363-1.086 0-.02-.024-.051-.04-.027-.2.322-.364.666-.487 1.024-.136.365-.253.737-.35 1.115a13.86 13.86 0 0 0-.238 1.135 7.504 7.504 0 0 0-.125 1.157c.002.117.205.157.223.028Zm.544 12.328a2.525 2.525 0 0 1-3.754-1.901c-.08-.641.053-1.286.201-1.913a19.06 19.06 0 0 1 .51-1.731 5.6 5.6 0 0 0 .18-.564c0-.01-.012-.022-.02-.012a3.27 3.27 0 0 0-.24.49 14.752 14.752 0 0 0-.564 1.604c-.191.659-.364 1.34-.318 2.032A2.8 2.8 0 0 0 71.43 57.2c.161-.086-.02-.349-.179-.259Zm1.111-18.757a9.363 9.363 0 0 1 .757-3.748c.143-.337.314-.663.483-.987.016-.031-.034-.073-.057-.041a7.234 7.234 0 0 0-.876 1.744 8.807 8.807 0 0 0-.524 3.035.108.108 0 0 0 .068.1.108.108 0 0 0 .118-.025.11.11 0 0 0 .031-.078Zm2.528 11.428c.021-.151.026-.304.015-.456a2.55 2.55 0 0 0-.186-.894 3.966 3.966 0 0 0-.211-.39c.123.265.204.547.24.837.021.139.033.279.035.419-.004.15-.017.299-.038.447-.01.091.133.141.146.037Zm1.664-11.048a2.856 2.856 0 0 0-2.975-.796c-.281.094-.546.23-.786.404v.01a2.954 2.954 0 0 1 1.87-.428 2.898 2.898 0 0 1 1.805.913c.069.067.145-.039.086-.103Zm-1.285-3.032a1.663 1.663 0 0 1-.413-.428 1.725 1.725 0 0 1-.227-.56 3.841 3.841 0 0 1 .014-1.45c-.098.505-.215 1-.108 1.522.083.4.294.838.665 1.042.078.047.139-.073.069-.126Zm-.167 9.684c-.15-.006-.3.008-.445.04a8.167 8.167 0 0 0-.286.054.089.089 0 0 0 0-.027c0-.046-.031-.096-.08-.089l-.124.016a.102.102 0 0 0-.12-.076l-.122.032a.094.094 0 0 0-.118-.02 9.492 9.492 0 0 0-.396.24.084.084 0 0 0-.04.072.083.083 0 0 0 .04.072 8.045 8.045 0 0 0-.258.09.078.078 0 0 0-.037.098.077.077 0 0 0 .022.03 5.717 5.717 0 0 0-.607.35c-.26.158-.493.356-.691.587l.008.01c.258-.142.498-.321.752-.47a6.873 6.873 0 0 1 2.081-.804c.15-.02.298-.051.444-.091.067-.027.037-.109-.023-.114Zm8.368 1.863c.06-.252.095-.51.105-.769a4.06 4.06 0 0 0-.38-1.902 1.475 1.475 0 0 0-.23-.377c-.061-.068-.151.01-.124.085.05.143.143.286.206.429a4.693 4.693 0 0 1 .368 1.346c.034.313.034.629 0 .942-.03.324-.1.642-.207.949 0 0 0 .012.01 0a4.39 4.39 0 0 0 .251-.703Zm-22.86 8.417c-.238-.204-.493-.378-.715-.598a6.941 6.941 0 0 1-.653-.714 8.127 8.127 0 0 1-1.02-1.757h-.01c.195.665.5 1.292.902 1.857.188.27.397.525.626.761.225.252.482.474.764.661.108.072.203-.127.105-.21Z" fill="#2E2E2E"/><path d="M60.626 56.256a.123.123 0 0 0-.082-.124.19.19 0 0 0-.083-.011.437.437 0 0 1 .218-.366.134.134 0 0 0 .01-.23.134.134 0 0 0-.087-.021c-.237.055-.384.452-.261.665a.32.32 0 0 0-.095.382c0 .01.02.007.023 0a.26.26 0 0 1 .267-.179c.057-.003.089-.067.09-.116Z" fill="#2E2E2E"/><path d="M73.178 59.004c-.371-.176-.804-.246-1.2-.35-.395-.105-.812-.23-1.218-.345l-2.428-.691c-1.614-.459-3.227-.923-4.844-1.369-.452-.125-.904-.247-1.357-.37a8.493 8.493 0 0 0-1.35-.32c-.063 0-.057.09-.013.11.379.163.77.296 1.169.398.404.123.81.242 1.215.364.809.241 1.621.473 2.429.707 1.613.468 3.226.933 4.84 1.397l1.355.391c.447.13.904.333 1.367.383.172.017.162-.248.035-.305Z" fill="#2E2E2E"/><path d="M73.2 59.04a.116.116 0 0 0-.154-.01.116.116 0 0 0-.035.043c-.05.127.017.271-.02.407a.75.75 0 0 1-.249.356l-.01.01a.12.12 0 0 0-.037-.03c-.366-.19-.803-.262-1.196-.376a413.943 413.943 0 0 1-3.631-1.09c-1.602-.487-3.202-.984-4.802-1.477a172.13 172.13 0 0 0-1.344-.411 9.645 9.645 0 0 0-1.374-.377.078.078 0 0 0-.039.151 8.34 8.34 0 0 0 1.161.429c.4.143.8.27 1.203.401.801.261 1.604.521 2.408.774 1.609.506 3.22 1.004 4.833 1.494l1.375.418.66.204c.228.084.465.144.706.178.103.009.143-.068.143-.151a.08.08 0 0 0 .031 0 .63.63 0 0 0 .415-.376c.06-.161.117-.438-.045-.567Z" fill="#2E2E2E"/><path d="M61.066 57.59c0-.175.013-.349.016-.523a2.583 2.583 0 0 0-.022-.663c0-.027-.048-.036-.06-.009a2.494 2.494 0 0 0-.095.683c-.016.192-.029.383-.042.572a.358.358 0 0 1 .203-.06ZM61 59.2a.76.76 0 0 1-.065-.053.672.672 0 0 1-.158-.207l-.022.342c-.031.487-.064.975-.091 1.463 0 .071-.009.143-.012.214a1.06 1.06 0 0 1 .22-.193.278.278 0 0 1 .057-.03c.026-.482.045-.965.068-1.448l.002-.087Zm10.742 1.72c.01.021.018.043.025.065.068-.164.135-.329.205-.493.102-.212.186-.432.253-.657.02-.076-.096-.143-.143-.081a3.54 3.54 0 0 0-.35.602 14.9 14.9 0 0 0-.154.303.286.286 0 0 1 .164.261Zm-1.17 2.236a.541.541 0 0 1 .328.054c.09-.25.183-.501.277-.751.075-.199.152-.397.232-.596a.519.519 0 0 1-.349 0l-.041-.014c-.064.143-.127.295-.19.444-.119.286-.236.571-.348.857a.39.39 0 0 1 .09.006Zm-.185.855-.027-.027a.356.356 0 0 1-.143-.117c-.106.309-.204.62-.286.932a.204.204 0 0 0-.047.328l.067.074a.177.177 0 0 0 .155.05.178.178 0 0 0 .131-.097c.127-.35.236-.705.351-1.06a.344.344 0 0 1-.201-.082Zm-1.082 2.396c-.249-.16-.593-.203-.874-.286-.282-.083-.592-.16-.888-.237l-1.744-.461a214.453 214.453 0 0 0-3.52-.903c-.334-.082-.666-.169-1-.242a6.078 6.078 0 0 0-.96-.17c-.035 0-.032.047-.008.059.533.27 1.143.414 1.715.587.57.173 1.158.343 1.738.511 1.168.34 2.338.674 3.508 1 .331.096.665.19 1 .286l.47.131c.168.064.345.098.524.102.209-.009.182-.28.039-.377Zm.461-.063a.563.563 0 0 1-.301.075v.212c0 .04.061.072.088.036.028-.036.059-.086.09-.127a.56.56 0 0 1 .08-.114.145.145 0 0 0 .063-.099l-.02.017Z" fill="#2E2E2E"/><path d="M68.958 66.06c-.203-.197-.523-.296-.776-.417l-.801-.384c-.534-.257-1.07-.509-1.606-.762a206.542 206.542 0 0 0-3.225-1.494 14.37 14.37 0 0 0-1.808-.733c-.02 0-.02.023 0 .032.498.328 1.019.621 1.557.88.527.271 1.057.539 1.588.803 1.062.53 2.126 1.054 3.192 1.57l.879.43.464.224c.143.082.3.138.462.165.168.015.164-.225.074-.314Zm1.01-1.101a6.264 6.264 0 0 0-.871-.447l-.879-.429-1.755-.857c-1.163-.571-2.324-1.142-3.493-1.704a62.259 62.259 0 0 0-.988-.465 7.352 7.352 0 0 0-1-.413c-.077-.023-.113.09-.054.133.515.377 1.115.65 1.682.944.567.293 1.163.595 1.746.89l3.52 1.76.978.49c.323.187.66.348 1.008.48a.173.173 0 0 0 .215-.123.239.239 0 0 0-.109-.259Zm.337-1.115c-.261-.211-.603-.341-.903-.493l-.893-.454-1.815-.924a380.858 380.858 0 0 0-3.646-1.822 63.56 63.56 0 0 0-1.028-.497 19.786 19.786 0 0 0-.494-.227 2.365 2.365 0 0 0-.522-.185.034.034 0 0 0-.026.062c.26.21.542.39.842.535.286.164.589.324.884.483.6.32 1.202.637 1.804.952a1642.902 1642.902 0 0 0 4.644 2.4l.486.249c.17.102.351.184.54.245.188.05.27-.211.127-.324Zm.714-.752c-.286-.243-.66-.404-.987-.59l-.949-.537-1.95-1.107c-1.285-.727-2.56-1.459-3.856-2.166-.369-.2-.737-.404-1.109-.6-.371-.195-.705-.411-1.093-.515-.037-.01-.047.038-.024.06.284.242.592.454.92.632.31.193.624.382.937.572.642.385 1.286.762 1.934 1.142 1.275.748 2.556 1.483 3.833 2.222.365.211.731.428 1.095.634l.549.317c.175.113.36.209.554.286.212.07.289-.235.146-.35Zm.417-1.367c-.55-.361-1.155-.65-1.732-.967l-1.74-.947c-1.143-.62-2.286-1.24-3.441-1.84a60.857 60.857 0 0 0-.967-.5c-.17-.085-.342-.17-.514-.252a1.213 1.213 0 0 0-.443-.154c-.02 0-.026.024-.016.037.177.225.484.367.729.512.285.174.575.345.87.513.57.33 1.145.658 1.724.984 1.132.645 2.273 1.273 3.415 1.903l.956.529c.334.184.664.384 1.012.54.256.115.353-.223.147-.358Z" fill="#2E2E2E"/><path d="M71.792 60.519a.075.075 0 0 0-.043 0 3.894 3.894 0 0 0-.486-.252l-.562-.285c-.383-.193-.77-.382-1.156-.572-.386-.19-.753-.37-1.133-.551-.38-.181-.735-.397-1.134-.477-.01 0-.013.01 0 .016.296.277.68.455 1.03.655.374.215.75.426 1.128.636.369.204.736.411 1.107.613l.555.303c.182.12.378.218.583.294a.16.16 0 0 0 .117-.009.656.656 0 0 1 .016.467.609.609 0 0 1-.208.279c-.103.078-.262.1-.335.207a.182.182 0 0 0 .065.261c.18.09.377-.02.519-.142a.947.947 0 0 0 .317-.485c.083-.325-.029-.824-.38-.958Zm-.799 2.568c-.113-.071-.177.075-.13.162a.446.446 0 0 1 0 .517.429.429 0 0 1-.209.143c-.088.026-.174.016-.25.075a.164.164 0 0 0 0 .253c.255.233.675-.037.802-.285a.68.68 0 0 0-.213-.864Zm-.922 2.039a.094.094 0 0 0-.154.104c.072.175.093.367.063.554.017.042.02.088.01.131v.013a.236.236 0 0 1 0 .083.478.478 0 0 1-.219.333.62.62 0 0 1-.407.067.231.231 0 0 1-.143-.08c-.217.014-.143.357.063.37a.981.981 0 0 0 .92-.521.925.925 0 0 0-.133-1.054Zm-9.111-2.769c-.078-.13-.26-.19-.362-.304a.787.787 0 0 1-.204-.45.763.763 0 0 1 .108-.449c.098-.133.218-.248.355-.34a.182.182 0 0 0-.045-.3.183.183 0 0 0-.117-.014c-.463.086-.721.705-.658 1.126.036.238.15.457.324.624.12.116.413.337.584.213a.08.08 0 0 0 .014-.106Zm.07-3.088a.74.74 0 0 0-.189-.183 1.247 1.247 0 0 1-.181-.214.806.806 0 0 1-.143-.472c.014-.37.286-.615.61-.75.24-.1.083-.428-.143-.392-.513.075-.857.648-.847 1.142.01.261.111.511.286.706.12.143.405.38.602.27.029-.029.02-.077.005-.107Zm-.195 4.914a1 1 0 0 0 .026-.225.143.143 0 0 0-.02-.068c.038-.398.054-.797.05-1.197 0-.047-.086-.086-.102-.029-.094.412-.168.828-.221 1.247a.965.965 0 0 0-.04.189c-.044.188.257.291.307.083Zm7.615 2.511c.055-.213-.318-.398-.394-.16a1.473 1.473 0 0 1-.965.93c-.516.176-1.079.122-1.604.033-1.075-.184-2.342-.361-3.11-1.214a1.96 1.96 0 0 1-.514-1.47c0-.034-.047-.066-.065-.026a1.313 1.313 0 0 0-.085.723 2.1 2.1 0 0 0 .26.721c.309.513.777.91 1.334 1.13.628.246 1.282.42 1.95.519.617.116 1.27.208 1.885.034.616-.174 1.149-.597 1.309-1.22ZM55.055 38.705a1.57 1.57 0 0 0-.32-.248c-.128-.066-.254-.136-.384-.196-.268-.127-.541-.24-.813-.36l-1.598-.714c-1.091-.483-2.213-.895-3.335-1.3-.306-.112-.612-.227-.922-.327l-.463-.152c-.222-.072-.458-.175-.692-.081a.608.608 0 0 0-.25.94c.087.13.206.235.347.304.094.043.195.077.295.111l.406.143c.286.099.56.192.843.286.554.176 1.105.356 1.663.519.557.162 1.088.327 1.64.46l1.678.404.935.224c.156.037.312.066.47.094.07.017.14.028.212.036a2.77 2.77 0 0 0 .257-.03.066.066 0 0 0 .05-.047.066.066 0 0 0-.019-.066ZM78.79 17.44a.928.928 0 0 0-.143-.476.581.581 0 0 0-.634-.255c-.397.157-.447.538-.541.904l-.216.836-.428 1.672c-.286 1.143-.592 2.277-.809 3.429-.033.17-.286 1.677.009 1.652.095-.008.142-.077.195-.143.095-.11.177-.233.245-.362.115-.245.228-.493.33-.743.21-.514.38-1.05.544-1.58.328-1.063.653-2.127.972-3.191l.27-.901c.045-.143.09-.286.132-.439a1.49 1.49 0 0 0 .074-.403Zm-13.421 4.604a10.65 10.65 0 0 0-.507-1.243l-.572-1.224c-.216-.466-.39-1-.74-1.379a.513.513 0 0 0-.563-.101.476.476 0 0 0-.255.495c.05.252.142.493.271.715l.307.62.6 1.214c.204.434.435.855.693 1.26.241.36.466.765.869.97a.067.067 0 0 0 .1-.049c.11-.421-.076-.866-.203-1.278Zm-6.005 7.439a19.804 19.804 0 0 0-2.656-1.752c-.916-.508-1.842-1-2.77-1.478l-.766-.397c-.308-.16-.661-.361-1.014-.339-.414.029-.571.495-.34.815a1.3 1.3 0 0 0 .413.391c.116.07.23.143.351.201l.715.362 1.385.697c.933.468 1.883.893 2.843 1.301.547.228 1.11.419 1.682.572.227.061.318-.242.157-.373Zm33.101 2.846c-.339-.164-.696-.023-1.041.058l-.833.199c-.539.126-1.074.263-1.611.397l-1.612.402c-.275.068-.558.128-.83.214-.271.085-.562.151-.778.33a.214.214 0 0 0 .091.364c.284.047.574.044.857-.009.297-.031.593-.091.886-.142l1.657-.286c.551-.093 1.104-.182 1.655-.286l.858-.157c.304-.057.714-.058.912-.326a.532.532 0 0 0-.211-.758Zm4.568 15.32a.75.75 0 0 0-.23-.516c-.178-.206-.415-.244-.667-.286l-.513-.078c-.331-.05-.664-.103-1-.143l-2-.276c-1.364-.188-2.73-.351-4.098-.517a23.083 23.083 0 0 0-1.128-.104c-.347-.024-.799-.103-1.108.089-.143.084-.093.285 0 .375.252.245.66.319 1 .397.338.079.654.165.986.227l1.983.378c1.332.252 2.667.481 4 .714.378.066.758.126 1.143.185l.54.086c.297.047.61.135.87-.071a.553.553 0 0 0 .222-.46Z" fill="#2E2E2E"/><defs><linearGradient id="b" x1="77.991" y1="88.36" x2="76.102" y2="1.437" gradientUnits="userSpaceOnUse"><stop stop-color="#6D7582"/><stop offset="1" stop-color="#F4ECFF"/></linearGradient><linearGradient id="c" x1="81.717" y1="86.139" x2="79.828" y2="-.783" gradientUnits="userSpaceOnUse"><stop stop-color="#E8F0FE"/><stop offset="1" stop-color="#F4ECFF"/></linearGradient></defs></svg>