<svg width="140" height="90" fill="none" xmlns="http://www.w3.org/2000/svg"><mask id="a" style="mask-type:alpha" maskUnits="userSpaceOnUse" x="0" y="0" width="140" height="90"><path fill="#D9D9D9" d="M0 0h140v90H0z"/></mask><g mask="url(#a)" fill-rule="evenodd" clip-rule="evenodd"><path d="M46.985 9.493c12.383-2.216 25.371-2.811 38.266-.168 12.682 2.6 24.92 7.382 33.194 14.817 7.941 7.135 8.182 16.151 10.804 24.72 2.876 9.402 12.112 20.023 5.228 27.683-6.903 7.68-24.061 5.815-37.083 7.763-10.73 1.604-20.936 3.297-32.182 2.595-13.633-.85-28.685-.495-39.39-7.062C14.698 73.018 11.673 62.276 9.07 52.464c-2.714-10.233-5.785-21.432 1.59-29.79 7.298-8.271 22.554-10.717 36.324-13.181Z" fill="url(#b)"/><path d="M43.544 6.294c12.382-2.216 25.37-2.81 38.265-.167 12.683 2.6 24.921 7.382 33.195 14.817 7.94 7.135 8.182 16.15 10.803 24.72 2.876 9.402 12.112 20.023 5.228 27.683-6.902 7.68-24.06 5.815-37.082 7.763-10.73 1.604-20.936 3.297-32.182 2.595-13.633-.85-28.686-.495-39.39-7.062C11.256 69.82 8.23 59.078 5.628 49.266 2.916 39.033-.155 27.834 7.22 19.476c7.298-8.271 22.555-10.717 36.325-13.182Z" fill="url(#c)"/></g><path d="m91.432 47.065 2.03 3.09-1.32.86-2.03-3.08-.69.46-.18-3.2 2.87 1.42-.68.45Zm-9.06-15.82.18 3.2-2.87-1.43.69-.45-2.04-3.08 1.31-.87 2.04 3.08.69-.45Z" fill="#E6ED2F"/><path d="m93.912 50.305-2.5 1.65-2-3.09-1.13.75-.29-5c.19-.11.38-.21.55-.33l4.48 2.22-1.12.74 2.01 3.06Zm-2.3.67 1.31-.87-2-3.08.69-.46-2.88-1.42.19 3.2.68-.45 2.01 3.08Zm-3.69-7 .59.29c-.17.12-.36.22-.55.33l-.04-.62Zm-4.961-8.709.05.81-.64-.32a4.06 4.06 0 0 1 .59-.49Z" fill="#2E2E2E"/><path d="m82.064 31.696-.69.45-2-3.08-1.31.87 2 3.08-.68.46 2.87 1.43-.19-3.21Zm-.49-.53 1.12-.74.27 4.84a4.153 4.153 0 0 0-.59.49l-4.42-2.19 1.12-.75-2-3.08 2.5-1.65 2 3.08Z" fill="#2E2E2E"/><path d="M78.353 21.886c1.21-1 4.05-.85 5.4-.28 2.4 1 4.29 3 6.28 5.16l1.13 1.2a10.48 10.48 0 0 1 1.84 2.74c.307.675.7 1.307 1.17 1.88a3.55 3.55 0 0 1 .79 2.27c.004.404-.06.807-.19 1.19a6.71 6.71 0 0 1-.75 1.41c-.11.16-.21.33-.32.51-.376.608-.794 1.19-1.25 1.74a14.402 14.402 0 0 0-1.3 1.86 7.911 7.911 0 0 1-2.64 2.7l-.59-.29-.07-.14a7.33 7.33 0 0 0 2.68-2.62c.408-.683.866-1.335 1.37-1.95a17.49 17.49 0 0 0 1.19-1.67l.34-.53c.278-.389.503-.812.67-1.26a2.93 2.93 0 0 0-.46-2.75 9.468 9.468 0 0 1-1.27-2 10.003 10.003 0 0 0-1.73-2.57l-1.12-1.2c-1.95-2.09-3.78-4.05-6-5-1.18-.49-3.72-.64-4.68.17-.96.81-1.68 1.72-1.64 2 .08.51.63 1.83 1.17 1.91a2.27 2.27 0 0 0 1.68-.26 1.63 1.63 0 0 0 .57-1.11 1 1 0 0 1 .5-.71 2.25 2.25 0 0 1 1.8-.22 2.48 2.48 0 0 1 1.3 1.29c.126.225.27.439.43.64 1.13 1.19 1.52 2.8 2 4.66a30.45 30.45 0 0 0 1.26 4.17.34.34 0 0 1-.08.37.34.34 0 0 1-.38.09 4.18 4.18 0 0 0-4.35.84l-.05-.81a4.78 4.78 0 0 1 4-.89 36.76 36.76 0 0 1-1-3.59c-.45-1.83-.81-3.28-1.8-4.33a4.265 4.265 0 0 1-.53-.76c-.26-.44-.53-.88-.88-1a1.552 1.552 0 0 0-1.22.14.35.35 0 0 0-.19.21 2.311 2.311 0 0 1-.85 1.58 2.92 2.92 0 0 1-2.2.39c-1.08-.16-1.69-2-1.77-2.5-.28-.92 1.4-2.39 1.74-2.68Zm-4.592 18.67c-.33.359-.746.627-1.21.78a2.62 2.62 0 0 1-2-.42l-.56-.28c-.79-.37-1-1.87-.68-5a.35.35 0 0 1 .31-.31 1.621 1.621 0 0 0 1.05-1.54c0-.54-.19-.874-.57-1a.35.35 0 0 1-.26-.39c.13-1.15.082-2.314-.14-3.45l.34-.08a.36.36 0 0 0 .22-.16.33.33 0 0 0 0-.27 11.86 11.86 0 0 1 .28 3.78 1.55 1.55 0 0 1 .8 1.53 2.4 2.4 0 0 1-1.39 2.17c-.32 3.47.14 4 .3 4l.57.29a2 2 0 0 0 1.58.36 2.56 2.56 0 0 0 .88-.63 6.372 6.372 0 0 1 4.55-1.89h.61c1.42 0 2.06 0 3.26-1.63.197-.27.418-.521.66-.75l.64.32c-.282.244-.537.52-.76.82-1.41 2-2.37 1.95-3.84 1.93h-.6a5.689 5.689 0 0 0-4.04 1.82ZM61.944 28.315c2.49.455 5.04.455 7.53 0 .085.218.152.442.2.67a19 19 0 0 1-4 .4 19.997 19.997 0 0 1-3.92-.37c.05-.236.113-.47.19-.7Z" fill="#2E2E2E"/><path d="M65.742 26.346h.47c.89 0 2.86.22 3.59 1.1l.13.19c.032.05.06.104.08.16a.203.203 0 0 1 0 .08c.089.19.162.387.22.59a.33.33 0 0 1 0 .27.36.36 0 0 1-.22.16l-.34.08a4.148 4.148 0 0 0-.2-.67 1.29 1.29 0 0 0-.22-.41 4.93 4.93 0 0 0-3.13-.85h-.82a4.93 4.93 0 0 0-3.13.85 1.41 1.41 0 0 0-.23.42 5.99 5.99 0 0 0-.19.69l-.35-.09a.36.36 0 0 1-.22-.16.32.32 0 0 1 0-.25c.046-.186.11-.367.19-.54a.798.798 0 0 1 .08-.16.369.369 0 0 1 .07-.14.997.997 0 0 1 .13-.2c.73-.88 2.71-1.06 3.6-1.1h.08l.08.36v-.36h.34l-.01-.02Zm-4.12 1.09Zm-.198.339a.802.802 0 0 0-.08.16.48.48 0 0 1 .08-.16Z" fill="#2E2E2E"/><path d="m52.651 53.625-1.08-1.45a9.327 9.327 0 0 1-1.12-1.79l-.16-.3a9.212 9.212 0 0 1-.47-1.16c-.29-.79-.69-1.88-1.16-2.15a24.942 24.942 0 0 0-3.33-1.37 8.77 8.77 0 0 1-5.05-3.84 15.44 15.44 0 0 0-1.31-1.86 15.354 15.354 0 0 1-1.24-1.74c-.12-.18-.22-.35-.33-.51a6.709 6.709 0 0 1-.75-1.41 3.64 3.64 0 0 1 .6-3.46 8.283 8.283 0 0 0 1.17-1.88 10.48 10.48 0 0 1 1.84-2.74l1.13-1.2c2-2.14 3.88-4.16 6.28-5.16 1.35-.57 4.2-.74 5.41.28.34.29 2 1.76 1.88 2.65-.08.5-.69 2.34-1.77 2.5a2.93 2.93 0 0 1-2.2-.39 2.26 2.26 0 0 1-.84-1.58.43.43 0 0 0-.2-.21 1.56 1.56 0 0 0-1.23-.14c-.34.1-.61.54-.87 1a4.274 4.274 0 0 1-.53.76c-1 1.05-1.35 2.5-1.8 4.34-.27 1.07-.56 2.26-1 3.58a5.17 5.17 0 0 1 5.22 2.13c1.2 1.66 1.84 1.65 3.25 1.63h.63a6.36 6.36 0 0 1 4.54 1.89c.246.27.546.486.88.63a2 2 0 0 0 1.58-.36l.59-.28c.15-.07.62-.58.3-4a2.4 2.4 0 0 1-1.39-2.17 1.56 1.56 0 0 1 .8-1.53 11.638 11.638 0 0 1 .28-3.74.32.32 0 0 0 0 .25.36.36 0 0 0 .22.16l.35.09a10.88 10.88 0 0 0-.14 3.42.35.35 0 0 1-.26.39c-.39.1-.57.42-.57 1a1.63 1.63 0 0 0 1.05 1.54.35.35 0 0 1 .31.31c.31 3.14.11 4.64-.67 5l-.56.28a2.66 2.66 0 0 1-2 .42 2.85 2.85 0 0 1-1.21-.78 5.681 5.681 0 0 0-4.07-1.72h-.61c-1.47 0-2.43 0-3.84-1.93a4.38 4.38 0 0 0-5.11-1.66.34.34 0 0 1-.38-.09.32.32 0 0 1-.07-.37 33.375 33.375 0 0 0 1.25-4.17c.46-1.86.86-3.47 2-4.66.168-.198.315-.412.44-.64a2.48 2.48 0 0 1 1.3-1.29 2.21 2.21 0 0 1 1.8.23 1.07 1.07 0 0 1 .51.7 1.58 1.58 0 0 0 .56 1.11 2.27 2.27 0 0 0 1.68.26c.54-.08 1.09-1.4 1.17-1.91 0-.28-.75-1.25-1.64-2-.89-.75-3.5-.66-4.68-.17-2.25.95-4.09 2.91-6 5-.36.4-.74.8-1.13 1.21a9.918 9.918 0 0 0-1.72 2.57 9.09 9.09 0 0 1-1.27 2 2.93 2.93 0 0 0-.46 2.75c.173.45.401.877.68 1.27.1.16.22.33.33.52.357.587.759 1.145 1.2 1.67.5.615.951 1.267 1.35 1.95a8.17 8.17 0 0 0 4.67 3.51c1.187.393 2.343.87 3.46 1.43a4.87 4.87 0 0 1 1.47 2.53c.122.362.266.716.43 1.06l.16.31a9.195 9.195 0 0 0 1.07 1.7l1.08 1.45c.94 1.26 1.75 2.36 2.67 3.72.92 1.36 1.53 7.35 1.46 9.5h16.71c-.05-2.15.53-8.08 1.47-9.5s1.7-2.42 2.63-3.67l1.13-1.5a9.794 9.794 0 0 0 1.06-1.7l.16-.31c.167-.322.31-.657.43-1a4.86 4.86 0 0 1 1.47-2.54 27.093 27.093 0 0 1 3.45-1.43 9.484 9.484 0 0 0 2-.89l.07.14v.62a10.6 10.6 0 0 1-1.88.81 25.347 25.347 0 0 0-3.32 1.37c-.47.27-.87 1.36-1.16 2.16a11.53 11.53 0 0 1-.46 1.15l-.17.3a9.006 9.006 0 0 1-1.12 1.79l-1.12 1.5c-.92 1.24-1.72 2.32-2.61 3.65-.89 1.33-1.5 7.68-1.33 9.41a.33.33 0 0 1-.09.27.32.32 0 0 1-.26.12h-17.56a.34.34 0 0 1-.26-.12.33.33 0 0 1-.09-.27c.17-1.73-.48-8.14-1.33-9.41-.85-1.27-1.71-2.58-2.65-3.84Z" fill="#2E2E2E"/><defs><linearGradient id="b" x1="60.904" y1="4.541" x2="62.793" y2="91.464" gradientUnits="userSpaceOnUse"><stop stop-color="#6D7582"/><stop offset="1" stop-color="#F4ECFF"/></linearGradient><linearGradient id="c" x1="57.462" y1="1.343" x2="59.352" y2="88.266" gradientUnits="userSpaceOnUse"><stop stop-color="#E8F0FE"/><stop offset="1" stop-color="#F4ECFF"/></linearGradient></defs></svg>