<svg width="140" height="90" fill="none" xmlns="http://www.w3.org/2000/svg"><mask id="a" style="mask-type:alpha" maskUnits="userSpaceOnUse" x="0" y="0" width="140" height="90"><path fill="#D9D9D9" d="M0 0h140v90H0z"/></mask><g mask="url(#a)" fill-rule="evenodd" clip-rule="evenodd"><path d="M91.91 83.953c-12.383 2.216-25.371 2.81-38.266.167-12.682-2.6-24.92-7.382-33.195-14.817-7.94-7.135-8.181-16.15-10.803-24.72C6.77 35.181-2.466 24.561 4.418 16.901c6.902-7.68 24.06-5.816 37.082-7.763C52.23 7.533 62.436 5.84 73.683 6.542c13.632.851 28.685.495 39.39 7.062 11.123 6.824 14.149 17.565 16.751 27.377 2.713 10.233 5.784 21.432-1.591 29.79-7.297 8.271-22.554 10.717-36.324 13.182Z" fill="url(#b)"/><path d="M93.964 81.188c-12.383 2.216-25.37 2.811-38.265.168-12.683-2.6-24.921-7.382-33.195-14.818-7.94-7.135-8.182-16.15-10.803-24.72C8.825 32.417-.411 21.796 6.472 14.136c6.903-7.68 24.06-5.816 37.083-7.763 10.73-1.605 20.936-3.297 32.182-2.595 13.633.85 28.686.494 39.39 7.061 11.124 6.824 14.149 17.566 16.751 27.378 2.714 10.232 5.785 21.431-1.59 29.79-7.298 8.27-22.554 10.717-36.324 13.181Z" fill="url(#c)"/></g><path d="M64.317 66.726a7.547 7.547 0 0 1-1.664-.174c-9.215-2.04-14.192-13.076-14.192-22.508 0-6.46 2.78-11.907 7.427-14.566 4.202-2.406 9.31-2.197 14.48.566a14.324 14.324 0 0 1 3.181-11.14 1.255 1.255 0 0 1 1.743-.174 1.264 1.264 0 0 1 .175 1.743 11.68 11.68 0 0 0-2.615 9.737c5.23-2.929 10.46-3.2 14.819-.75 4.655 2.668 7.427 8.116 7.427 14.576 0 9.388-4.969 20.468-14.192 22.507-1.804.401-3.792 0-5.893-.392-1.037-.192-2.11-.4-3.242-.54-1.125.14-2.197.348-3.234.54a22.863 22.863 0 0 1-4.22.575Zm-2.1-38.041a11.68 11.68 0 0 0-5.893 1.551c-4.359 2.502-6.974 7.663-6.974 13.808 0 9.18 5.056 19.788 13.512 21.663 1.63.357 3.487 0 5.544-.401 1.063-.2 2.17-.419 3.356-.558h.096c1.185.14 2.292.357 3.356.557 2.1.41 3.914.759 5.544.401 8.456-1.874 13.503-12.483 13.503-21.662 0-6.102-2.615-11.332-6.974-13.816-4.14-2.372-9.266-1.997-14.427 1.037a.418.418 0 0 1-.392 0 .409.409 0 0 1-.253-.297 12.518 12.518 0 0 1 2.615-11.062.392.392 0 0 0-.052-.549.4.4 0 0 0-.279-.087.392.392 0 0 0-.261.14 13.292 13.292 0 0 0-2.842 11.332.463.463 0 0 1-.174.444.453.453 0 0 1-.48 0 16.982 16.982 0 0 0-8.525-2.501Z" fill="#2E2E2E"/><path d="M69.224 24.021a7.374 7.374 0 0 1-4.454-1.299c-2.615-2.022-2.85-6.102-2.86-6.293a.445.445 0 0 1 .332-.445c.174 0 4.149-.959 6.799 1.055 2.65 2.013 2.85 6.102 2.86 6.294a.435.435 0 0 1-.34.436c-.767.174-1.551.259-2.337.252Zm-3.931-1.996c1.9 1.438 4.707 1.142 5.7.968-.113-1.011-.592-3.819-2.484-5.23-1.891-1.413-4.698-1.134-5.692-.968.113 1.002.584 3.818 2.476 5.23Z" fill="#2E2E2E"/><defs><linearGradient id="b" x1="77.991" y1="88.904" x2="76.102" y2="1.981" gradientUnits="userSpaceOnUse"><stop stop-color="#6D7582"/><stop offset="1" stop-color="#F4ECFF"/></linearGradient><linearGradient id="c" x1="80.046" y1="86.139" x2="78.156" y2="-.783" gradientUnits="userSpaceOnUse"><stop stop-color="#E8F0FE"/><stop offset="1" stop-color="#F4ECFF"/></linearGradient></defs></svg>