<svg width="140" height="90" fill="none" xmlns="http://www.w3.org/2000/svg"><mask id="a" style="mask-type:alpha" maskUnits="userSpaceOnUse" x="0" y="0" width="140" height="90"><path fill="#D9D9D9" d="M0 0h140v90H0z"/></mask><g mask="url(#a)" fill-rule="evenodd" clip-rule="evenodd"><path d="M47.544 5.294c12.382-2.216 25.37-2.81 38.265-.167 12.683 2.6 24.921 7.382 33.195 14.817 7.94 7.135 8.182 16.15 10.803 24.72 2.876 9.402 12.112 20.023 5.228 27.683-6.902 7.68-24.06 5.815-37.082 7.763-10.73 1.604-20.936 3.297-32.182 2.595-13.633-.85-28.686-.495-39.39-7.062C15.256 68.82 12.23 58.078 9.628 48.266c-2.713-10.233-5.784-21.432 1.59-29.79 7.298-8.271 22.555-10.717 36.325-13.182Z" fill="url(#b)"/><path d="M47.544 9.062c12.382-2.216 25.37-2.811 38.265-.168 12.683 2.6 24.921 7.382 33.195 14.818 7.94 7.135 8.182 16.15 10.803 24.72 2.876 9.401 12.112 20.022 5.228 27.682-6.902 7.68-24.06 5.816-37.082 7.763-10.73 1.605-20.936 3.297-32.182 2.595-13.633-.85-28.686-.494-39.39-7.061-11.124-6.824-14.15-17.566-16.752-27.378-2.713-10.232-5.784-21.431 1.59-29.79 7.298-8.27 22.555-10.717 36.325-13.181Z" fill="url(#c)"/></g><path d="M67.021 72.314a.396.396 0 0 1-.347-.19c-3.98-6.25-9.247-10.51-13.896-14.276-6.663-5.4-12.426-10.065-12.426-18.619a13.541 13.541 0 0 1 26.67-3.303A13.541 13.541 0 0 1 93.69 39.23c0 8.554-5.78 13.21-12.427 18.62-4.648 3.764-9.908 8.025-13.896 14.275a.396.396 0 0 1-.347.19ZM53.86 26.522a12.724 12.724 0 0 0-12.716 12.707c0 8.166 5.615 12.715 12.121 17.983 4.566 3.691 9.718 7.86 13.723 13.93 4.013-6.07 9.165-10.239 13.723-13.93 6.506-5.268 12.121-9.817 12.121-17.983a12.716 12.716 0 0 0-25.431 0 .413.413 0 0 1-.826 0A12.723 12.723 0 0 0 53.86 26.522Z" fill="#2E2E2E"/><path d="M66.501 64.792a.405.405 0 0 1-.388-.297l-6.77-22.41-3.93 7.176a.413.413 0 0 1-.364.215H48.6a.413.413 0 0 1-.413-.413v-3.08a.413.413 0 0 1 .413-.413h4.377l6.943-12.657a.405.405 0 0 1 .628-.115.43.43 0 0 1 .132.205l5.722 21.039 5.284-14.68a.396.396 0 0 1 .364-.273.405.405 0 0 1 .396.23l3.352 6.978h5.615a2.478 2.478 0 0 1 1.263-.347 2.478 2.478 0 1 1-1.651 4.26h-7.431a.405.405 0 0 1-.372-.239l-.677-1.403-5.664 15.952a.413.413 0 0 1-.38.272Zm-7.06-24.135h.042a.421.421 0 0 1 .355.29L66.534 63.1 72.1 47.412a.429.429 0 0 1 .372-.281.404.404 0 0 1 .396.24l.991 2.063h7.332a.397.397 0 0 1 .297.124 1.652 1.652 0 1 0 .264-2.477.38.38 0 0 1-.23.066h-5.987a.414.414 0 0 1-.371-.23l-3.047-6.325-5.392 14.928a.371.371 0 0 1-.404.272.388.388 0 0 1-.38-.297l-5.78-21.327-6.606 11.98a.42.42 0 0 1-.363.215h-4.21v2.254h5.779l4.277-7.82a.42.42 0 0 1 .405-.14Z" fill="#2E2E2E"/><defs><linearGradient id="b" x1="61.462" y1=".343" x2="63.352" y2="87.266" gradientUnits="userSpaceOnUse"><stop stop-color="#6D7582"/><stop offset="1" stop-color="#F4ECFF"/></linearGradient><linearGradient id="c" x1="61.462" y1="4.111" x2="63.352" y2="91.033" gradientUnits="userSpaceOnUse"><stop stop-color="#E8F0FE"/><stop offset="1" stop-color="#F4ECFF"/></linearGradient></defs></svg>