<svg width="30" height="30" viewBox="0 0 30 30" fill="none" xmlns="http://www.w3.org/2000/svg">
<path d="M29 1H1V29H29V1Z" stroke="#2B7BC6" stroke-width="1.4" stroke-miterlimit="10"/>
<path d="M26 14.9209C26 12.7842 24.5704 10.964 22.6643 10.2518V7.32374H19.6462C19.0108 5.42446 17.1841 4 14.9603 4C12.8159 4 10.9892 5.42446 10.2744 7.32374H7.33574V10.3309C5.4296 10.964 4 12.7842 4 15C4 17.1367 5.4296 18.9568 7.33574 19.6691V22.6763H10.3538C10.9892 24.5755 12.8159 26 15.0397 26C17.1841 26 19.0108 24.5755 19.7256 22.6763H22.7437V19.6691C24.5704 18.9568 26 17.1367 26 14.9209Z" stroke="#2B7BC6" stroke-width="1.4" stroke-miterlimit="10"/>
<path d="M15.1215 15.1101C15.6422 14.5893 14.9299 13.0328 13.5304 11.6333C12.131 10.2339 10.5744 9.52154 10.0537 10.0423C9.53297 10.563 10.2453 12.1196 11.6447 13.519C13.0442 14.9184 14.6008 15.6308 15.1215 15.1101Z" stroke="#2B7BC6" stroke-width="1.4" stroke-miterlimit="10"/>
<path d="M20.0365 20.0297C20.5573 19.509 19.8449 17.9524 18.4455 16.553C17.046 15.1536 15.4894 14.4412 14.9687 14.9619C14.448 15.4827 15.1603 17.0393 16.5598 18.4387C17.9592 19.8381 19.5158 20.5505 20.0365 20.0297Z" stroke="#2B7BC6" stroke-width="1.4" stroke-miterlimit="10"/>
<path d="M18.4469 13.521C19.8464 12.1215 20.5587 10.565 20.038 10.0442C19.5173 9.52351 17.9607 10.2358 16.5612 11.6353C15.1618 13.0347 14.4495 14.5913 14.9702 15.112C15.4909 15.6328 17.0475 14.9204 18.4469 13.521Z" stroke="#2B7BC6" stroke-width="1.4" stroke-miterlimit="10"/>
<path d="M13.529 18.4368C14.9284 17.0373 15.6408 15.4807 15.12 14.96C14.5993 14.4393 13.0427 15.1516 11.6433 16.5511C10.2438 17.9505 9.5315 19.5071 10.0522 20.0278C10.5729 20.5485 12.1295 19.8362 13.529 18.4368Z" stroke="#2B7BC6" stroke-width="1.4" stroke-miterlimit="10"/>
<path d="M29 6C26.197 6 24 3.72727 24 1" stroke="#2B7BC6" stroke-width="1.4" stroke-miterlimit="10"/>
<path d="M6 1C6 3.80303 3.72727 6 1 6" stroke="#2B7BC6" stroke-width="1.4" stroke-miterlimit="10"/>
<path d="M1 24C3.80303 24 6 26.2727 6 29" stroke="#2B7BC6" stroke-width="1.4" stroke-miterlimit="10"/>
<path d="M24 29C24 26.197 26.2727 24 29 24" stroke="#2B7BC6" stroke-width="1.4" stroke-miterlimit="10"/>
</svg>
