<svg width="30" height="33" viewBox="0 0 30 33" fill="none" xmlns="http://www.w3.org/2000/svg">
<path d="M19.9677 27H10.0323C5.02346 27 1 22.5455 1 17V14H29V17C29 22.5455 24.9765 27 19.9677 27Z" stroke="#2B7BC6" stroke-width="1.4" stroke-miterlimit="10"/>
<path d="M14 14V5.11359C14 2.81947 15.9904 1 18.5 1C21.0096 1 23 2.81947 23 5.11359H20.8365C20.8365 3.92698 19.7981 3.05679 18.5865 3.05679C17.2885 3.05679 16.3365 4.00609 16.3365 5.11359V14" stroke="#2B7BC6" stroke-width="1.4" stroke-miterlimit="10"/>
<path d="M17 27V30.6842C17 31.9123 16.0714 32 15 32C13.8571 32 13 31.8355 13 30.6842V27" stroke="#2B7BC6" stroke-width="1.4" stroke-miterlimit="10"/>
<path d="M8 14V11.3191C8 11.1277 8.15 11 8.375 11H10.625C10.85 11 11 11.1277 11 11.3191V14" stroke="#2B7BC6" stroke-width="1.4" stroke-miterlimit="10"/>
<path d="M19 14V11.3191C19 11.1277 19.15 11 19.375 11H21.625C21.85 11 22 11.1277 22 11.3191V14" stroke="#2B7BC6" stroke-width="1.4" stroke-miterlimit="10"/>
</svg>
