<svg width="26" height="32" viewBox="0 0 26 32" fill="none" xmlns="http://www.w3.org/2000/svg">
<path d="M25 1H1V31H25V1Z" stroke="#2B7BC6" stroke-width="1.4" stroke-miterlimit="10"/>
<path d="M13.5 27C17.6421 27 21 23.6421 21 19.5C21 15.3579 17.6421 12 13.5 12C9.35786 12 6 15.3579 6 19.5C6 23.6421 9.35786 27 13.5 27Z" stroke="#2B7BC6" stroke-width="1.4" stroke-miterlimit="10"/>
<path d="M15.9381 19.5C15.9381 18.4453 16.292 17.3906 17 16.6172C16.1504 15.6328 14.9469 15 13.531 15C11.0531 15 9 16.9687 9 19.5C9 22.0313 10.9823 24 13.531 24C14.9469 24 16.1504 23.3672 17 22.3828C16.292 21.6094 15.9381 20.625 15.9381 19.5Z" stroke="#2B7BC6" stroke-width="1.4" stroke-miterlimit="10"/>
<path d="M1 9H25" stroke="#2B7BC6" stroke-width="1.4" stroke-miterlimit="10"/>
<path d="M9 1V9" stroke="#2B7BC6" stroke-width="1.4" stroke-miterlimit="10"/>
<path d="M21 6C21.5523 6 22 5.55228 22 5C22 4.44772 21.5523 4 21 4C20.4477 4 20 4.44772 20 5C20 5.55228 20.4477 6 21 6Z" stroke="#2B7BC6" stroke-width="1.4" stroke-miterlimit="10"/>
<path d="M16 6C16.5523 6 17 5.55228 17 5C17 4.44772 16.5523 4 16 4C15.4477 4 15 4.44772 15 5C15 5.55228 15.4477 6 16 6Z" stroke="#2B7BC6" stroke-width="1.4" stroke-miterlimit="10"/>
</svg>
