<svg width="28" height="32" viewBox="0 0 28 32" fill="none" xmlns="http://www.w3.org/2000/svg">
<path d="M26.8452 7.23684V2.60526H25.375V2.18421C25.375 1.55263 24.9107 1 24.2917 1H21.8155C21.1964 1 20.7321 1.55263 20.7321 2.18421V2.60526H19.1845V2.18421C19.1845 1.55263 18.7202 1 18.1012 1H15.625C15.006 1 14.5417 1.55263 14.5417 2.18421V2.60526H12.994V2.18421C12.994 1.55263 12.5298 1 11.9107 1H9.43452C8.81548 1 8.35119 1.55263 8.35119 2.18421V2.60526H6.80357V2.18421C6.80357 1.55263 6.33929 1 5.72024 1H3.55357C2.93452 1 2.47024 1.55263 2.47024 2.18421V2.60526H1V7.23684H2.47024V24.7632H1V29.3947H2.47024V29.8158C2.47024 30.4474 2.93452 31 3.55357 31H6.02976C6.64881 31 7.1131 30.4474 7.1131 29.8158V29.3947H8.66072V29.8158C8.66072 30.4474 9.125 31 9.74405 31H12.0655C12.6845 31 13.1488 30.4474 13.1488 29.8158V29.3947H14.6964V29.8158C14.6964 30.4474 15.1607 31 15.7798 31H18.256C18.875 31 19.3393 30.4474 19.3393 29.8158V29.3947H20.8869V29.8158C20.8869 30.4474 21.3512 31 21.9702 31H24.4464C25.0655 31 25.5298 30.4474 25.5298 29.8158V29.3947H27V24.7632H25.5298V7.23684H26.8452Z" stroke="#2B7BC6" stroke-width="1.4" stroke-miterlimit="10"/>
<path d="M8 7V25" stroke="#2B7BC6" stroke-width="1.4" stroke-miterlimit="10"/>
<path d="M14 7V25" stroke="#2B7BC6" stroke-width="1.4" stroke-miterlimit="10"/>
<path d="M20 7V25" stroke="#2B7BC6" stroke-width="1.4" stroke-miterlimit="10"/>
</svg>
