<svg width="26" height="32" viewBox="0 0 26 32" fill="none" xmlns="http://www.w3.org/2000/svg">
<path d="M1 1V31H4.04V28.2632H21.96V31H25V1H1Z" stroke="#2B7BC6" stroke-width="1.4" stroke-miterlimit="10"/>
<path d="M1 4.29736H25" stroke="#2B7BC6" stroke-width="1.4" stroke-miterlimit="10"/>
<path d="M1 12.3418H25" stroke="#2B7BC6" stroke-width="1.4" stroke-miterlimit="10"/>
<path d="M1 20H25" stroke="#2B7BC6" stroke-width="1.4" stroke-miterlimit="10"/>
<path d="M6.01431 9.30451C6.55832 9.30451 6.99933 8.8635 6.99933 8.31949C6.99933 7.77548 6.55832 7.33447 6.01431 7.33447C5.4703 7.33447 5.0293 7.77548 5.0293 8.31949C5.0293 8.8635 5.4703 9.30451 6.01431 9.30451Z" stroke="#2B7BC6" stroke-width="1.4" stroke-miterlimit="10"/>
<path d="M19.6925 9.30451C20.2365 9.30451 20.6776 8.8635 20.6776 8.31949C20.6776 7.77548 20.2365 7.33447 19.6925 7.33447C19.1485 7.33447 18.7075 7.77548 18.7075 8.31949C18.7075 8.8635 19.1485 9.30451 19.6925 9.30451Z" stroke="#2B7BC6" stroke-width="1.4" stroke-miterlimit="10"/>
<path d="M6.01431 17.3489C6.55832 17.3489 6.99933 16.9079 6.99933 16.3639C6.99933 15.8199 6.55832 15.3789 6.01431 15.3789C5.4703 15.3789 5.0293 15.8199 5.0293 16.3639C5.0293 16.9079 5.4703 17.3489 6.01431 17.3489Z" stroke="#2B7BC6" stroke-width="1.4" stroke-miterlimit="10"/>
<path d="M19.6925 17.3489C20.2365 17.3489 20.6776 16.9079 20.6776 16.3639C20.6776 15.8199 20.2365 15.3789 19.6925 15.3789C19.1485 15.3789 18.7075 15.8199 18.7075 16.3639C18.7075 16.9079 19.1485 17.3489 19.6925 17.3489Z" stroke="#2B7BC6" stroke-width="1.4" stroke-miterlimit="10"/>
</svg>
