<svg width="214" height="24" viewBox="0 0 214 24" fill="none" xmlns="http://www.w3.org/2000/svg">
<path d="M63.9394 0H44.2654C42.8806 0 41.5142 0.309013 40.1848 0.927039C39.6954 1.15178 39.2338 1.4046 38.7907 1.70425C38.4306 1.91963 37.9229 2.32228 37.2674 2.92158C35.2455 5.00975 34.23 7.47249 34.23 10.3192V13.6434C34.23 15.9282 34.8947 17.9977 36.2149 19.833C36.4642 20.1701 36.815 20.5728 37.2674 21.041C37.7198 21.4623 38.1075 21.7995 38.4399 22.0523C40.2586 23.3258 42.1881 23.9625 44.2377 23.9625H63.9117V9.51385H49.6293C49.4539 9.51385 49.2508 9.53258 49.0384 9.5794C48.4476 9.78541 48.0321 10.1225 47.7829 10.5813C47.5336 10.881 47.4136 11.3492 47.4136 11.9953V14.8139H57.4767V17.7729H44.1084C43.8592 17.7729 43.4899 17.698 43.019 17.5482C42.779 17.4639 42.5205 17.3328 42.2528 17.1736C42.0312 17.0238 41.7635 16.8084 41.4588 16.5369C40.7295 15.7222 40.3602 14.8045 40.3602 13.7838V10.1881C40.3602 9.3453 40.6187 8.55872 41.1541 7.82833C41.9943 6.75146 43.0652 6.20835 44.3392 6.20835H63.9394V0Z" fill="#004C93"/>
<path d="M29.7094 0H10.0354C8.65057 0 7.28421 0.309013 5.95477 0.927039C5.46547 1.15178 5.00385 1.4046 4.56071 1.70425C4.20065 1.91963 3.69288 2.32228 3.0374 2.92158C1.01554 5.00975 0 7.47249 0 10.3192V13.6434C0 15.9282 0.664719 17.9977 1.98492 19.833C2.23419 20.1701 2.58502 20.5728 3.0374 21.041C3.48977 21.4623 3.87752 21.7995 4.20988 22.0523C6.02863 23.3258 7.95816 23.9625 10.0077 23.9625H29.6817V9.51385H15.3993C15.2239 9.51385 15.0208 9.53258 14.8085 9.5794C14.2176 9.78541 13.8021 10.1225 13.5529 10.5813C13.3036 10.881 13.1836 11.3492 13.1836 11.9953V14.8139H23.2467V17.7729H9.87846C9.62919 17.7729 9.2599 17.698 8.78906 17.5482C8.54902 17.4639 8.29052 17.3328 8.02279 17.1736C7.80121 17.0238 7.53348 16.8084 7.22882 16.5369C6.49947 15.7222 6.13018 14.8045 6.13018 13.7838V10.1881C6.13018 9.3453 6.38869 8.55872 6.92415 7.82833C7.76428 6.75146 8.83522 6.20835 10.1093 6.20835H29.7094V0Z" fill="#004C93"/>
<path d="M69.7691 23.9999H211.656C212.903 23.9999 213.92 22.9686 213.92 21.703L213.92 2.33423C213.92 1.05923 212.903 0.0373535 211.656 0.0373535H69.7691C69.769 0.969648 69.7691 17.0697 69.7691 23.9999Z" fill="#EA1649"/>
<path d="M75.8813 5.50985H83.7531C85.0651 5.50985 86.0147 5.80568 86.6019 6.39735C87.2017 6.97669 87.5016 7.9135 87.5016 9.20777V11.0567C87.5016 12.351 87.2017 13.294 86.6019 13.8856C86.0147 14.465 85.0651 14.7547 83.7531 14.7547H79.255V18.4526H75.8813V5.50985ZM84.128 9.20777C84.128 8.46819 83.7531 8.09839 83.0034 8.09839H79.255V12.1661H83.0034C83.7531 12.1661 84.128 11.7963 84.128 11.0567V9.20777Z" fill="#FBFAF9"/>
<path d="M90.687 5.50985H98.5588C99.8707 5.50985 100.82 5.80568 101.408 6.39735C102.007 6.97669 102.307 7.9135 102.307 9.20777V10.8718C102.307 11.8949 102.132 12.69 101.782 13.257C101.445 13.824 100.902 14.2 100.152 14.3849L102.495 18.4526H98.8399L96.6846 14.5698H94.0606V18.4526H90.687V5.50985ZM98.9336 9.20777C98.9336 8.46819 98.5588 8.09839 97.8091 8.09839H94.0606V11.9812H97.8091C98.5588 11.9812 98.9336 11.6114 98.9336 10.8718V9.20777Z" fill="#FBFAF9"/>
<path d="M114.11 9.02287C114.11 8.28329 113.735 7.9135 112.985 7.9135H109.799C109.049 7.9135 108.674 8.28329 108.674 9.02287V14.9396C108.674 15.6791 109.049 16.0489 109.799 16.0489H112.985C113.735 16.0489 114.11 15.6791 114.11 14.9396V9.02287ZM117.483 14.9396C117.483 16.2338 117.183 17.1768 116.584 17.7685C115.996 18.3478 115.047 18.6375 113.735 18.6375H109.049C107.737 18.6375 106.782 18.3478 106.182 17.7685C105.595 17.1768 105.301 16.2338 105.301 14.9396V9.02287C105.301 7.7286 105.595 6.79179 106.182 6.21245C106.782 5.62078 107.737 5.32495 109.049 5.32495H113.735C115.047 5.32495 115.996 5.62078 116.584 6.21245C117.183 6.79179 117.483 7.7286 117.483 9.02287V14.9396Z" fill="#FBFAF9"/>
<path d="M132.111 11.2416L129.487 15.864H126.863L124.239 11.2416V18.4526H120.866V5.50985H124.427L128.175 12.351L131.924 5.50985H135.485V18.4526H132.111V11.2416Z" fill="#FBFAF9"/>
<path d="M141.583 18.4526H137.929L142.895 5.50985H146.644L151.61 18.4526H147.956L147.112 16.1414H142.427L141.583 18.4526ZM143.27 13.7377H146.269L144.77 9.39267L143.27 13.7377Z" fill="#FBFAF9"/>
<path d="M154.046 5.50985H161.918C163.23 5.50985 164.18 5.80568 164.767 6.39735C165.367 6.97669 165.666 7.9135 165.666 9.20777V10.8718C165.666 11.8949 165.492 12.69 165.142 13.257C164.804 13.824 164.261 14.2 163.511 14.3849L165.854 18.4526H162.199L160.044 14.5698H157.42V18.4526H154.046V5.50985ZM162.293 9.20777C162.293 8.46819 161.918 8.09839 161.168 8.09839H157.42V11.9812H161.168C161.918 11.9812 162.293 11.6114 162.293 10.8718V9.20777Z" fill="#FBFAF9"/>
<path d="M172.409 18.4526H169.035V5.50985H172.409V10.5945H174.095L177.019 5.50985H180.58L176.907 11.8888L180.561 18.4526H177L174.095 13.183H172.409V18.4526Z" fill="#FBFAF9"/>
<path d="M193.602 18.4526H183.2V5.50985H193.602V8.09839H186.574V10.5945H192.103V13.183H186.574V15.864H193.602V18.4526Z" fill="#FBFAF9"/>
<path d="M202.969 18.4526H199.595V8.09839H195.659V5.50985H206.905V8.09839H202.969V18.4526Z" fill="#FBFAF9"/>
</svg>
