<svg width="253" height="81" viewBox="0 0 253 81" fill="none" xmlns="http://www.w3.org/2000/svg">
<path d="M65.661 19.3053V5.6955C65.661 5.62199 65.661 5.54847 65.661 5.47495C65.661 5.33251 65.6656 5.19467 65.661 5.0798C65.5092 3.15458 64.6357 1.91858 62.9942 1.29828C62.4655 1.09611 61.9551 0.995026 61.4678 0.995026C60.4747 0.995026 59.5459 1.41775 58.6999 2.254C56.0424 4.87763 53.3527 7.57937 50.8193 10.1203C45.1043 15.8546 39.5134 21.4786 33.8857 27.167C33.6236 27.4289 33.2972 27.7 32.8328 27.7C32.373 27.7 32.0374 27.4289 31.7753 27.1624C26.6534 22.0024 21.4946 16.8287 16.5014 11.8296L12.1152 7.42774C11.5129 6.82582 10.9105 6.21931 10.3128 5.6128C9.19557 4.48707 8.05072 3.32918 6.91507 2.20805C6.11965 1.42694 5.21389 1.02719 4.22536 1.02719C4.07823 1.02719 3.93111 1.03178 3.77938 1.05476C1.37934 1.33964 0 2.92943 0 5.41522V19.5764C0 30.3879 0 41.1949 0 52.0065C0 53.5825 0.0275867 55.2734 0.2069 56.9367C0.64369 60.9571 1.80693 64.8397 3.67823 68.4788C6.03229 73.069 9.3289 76.9562 13.4761 80.0393C14.3221 80.6688 15.1865 80.972 16.129 80.972C16.3635 80.972 16.6026 80.9537 16.8463 80.9123C18.8877 80.5861 20.4372 78.5046 20.1659 76.4646C20.0004 75.2148 19.4716 74.305 18.5015 73.5928C16.7129 72.2833 15.2646 70.9462 14.0692 69.5034C10.1473 64.757 8.15187 59.3398 8.13348 53.4033C8.11509 44.4388 8.11969 35.3227 8.12888 26.5053V26.4594C8.12888 23.5417 8.12888 20.6286 8.12888 17.7109C8.12888 17.6741 8.12888 17.6374 8.12429 17.6052V17.5868C8.12429 17.5501 8.12429 17.5133 8.11969 17.4766C8.1013 17.1044 8.25762 16.8609 8.39096 16.7184C8.58866 16.5071 8.87372 16.3876 9.16338 16.3876C9.45305 16.3876 9.72891 16.5162 9.92662 16.746C9.92662 16.746 9.94041 16.7552 9.94041 16.7598L10.037 16.8563C14.1382 20.9732 18.4877 25.3474 22.782 29.6711C23.6418 30.535 24.6119 30.9577 25.743 30.9623C28.0971 30.9669 30.4511 30.9715 32.7822 30.9715C35.1133 30.9715 37.5823 30.9715 39.9272 30.9577C41.049 30.9577 42.0008 30.5396 42.8468 29.6941C44.8146 27.723 46.7825 25.7426 48.7457 23.7668C51.0538 21.4511 53.3619 19.1307 55.6746 16.8103C55.693 16.7919 55.7068 16.7736 55.7206 16.7598L55.7297 16.746C55.8631 16.5898 56.1068 16.3049 56.5482 16.2176C56.5987 16.2084 56.6493 16.1992 56.6999 16.1992C56.9757 16.1992 57.2378 16.3508 57.3712 16.5944C57.5827 16.9665 57.5551 17.3203 57.5459 17.5363V17.5547C57.5459 17.5822 57.5413 17.6144 57.5413 17.642C57.5413 29.106 57.5459 41.3236 57.5413 53.5044C57.5413 54.9609 57.3987 56.4083 57.1183 57.8097C55.8125 64.394 52.4607 69.6964 47.1549 73.5882C45.3617 74.9023 44.9158 77.4065 46.1572 79.1663C46.833 80.122 47.8216 80.7515 48.9296 80.9353C49.1457 80.972 49.371 80.9904 49.5871 80.9904C50.4055 80.9904 51.1963 80.7331 51.863 80.2507C56.0838 77.1997 59.4448 73.3171 61.8494 68.7131C64.392 63.8564 65.6748 58.4759 65.6702 52.7278C65.6564 41.5809 65.661 30.2501 65.6656 19.2915L65.661 19.3053Z" fill="#1CB600"/>
<path d="M50.8883 57.6401C51.532 56.3443 51.0124 54.7683 49.7296 54.1204C48.4469 53.4726 46.879 53.9964 46.2353 55.2875C45.256 57.2495 43.6606 58.6187 41.7341 59.1334C39.8306 59.6434 37.7984 59.2758 36.0053 58.0949L40.0697 52.2228C40.0697 52.2228 40.0927 52.1906 40.1019 52.1768L40.1111 52.1631C40.5525 51.4922 40.8099 50.6927 40.8099 49.8289C40.8099 47.4901 38.9294 45.5971 36.6076 45.5971C34.842 45.5971 33.3385 46.6952 32.7132 48.2437C32.0925 46.6907 30.5845 45.5971 28.8189 45.5971C26.497 45.5971 24.6165 47.4901 24.6165 49.8289C24.6165 50.6927 24.874 51.4922 25.3154 52.1631L25.3246 52.1768C25.3338 52.1906 25.3476 52.209 25.3568 52.2228L29.4212 58.0949C27.6281 59.2758 25.5959 59.6434 23.6924 59.1334C21.7659 58.6141 20.1705 57.2495 19.1912 55.2875C18.5475 53.9918 16.9842 53.468 15.6968 54.1204C14.4095 54.7683 13.8945 56.3443 14.5382 57.6401C16.1934 60.9621 18.9659 63.2962 22.3498 64.206C23.3613 64.4771 24.3866 64.6104 25.412 64.6104C27.8074 64.6104 30.1937 63.8752 32.3454 62.4416C32.4787 62.3497 32.6029 62.2486 32.7178 62.1384C32.8328 62.2486 32.9523 62.3497 33.0903 62.4416C35.2374 63.8752 37.6237 64.6104 40.0237 64.6104C41.049 64.6104 42.0743 64.4771 43.0858 64.206C46.4698 63.2962 49.2469 60.9667 50.8975 57.6401H50.8883Z" fill="#1CB600"/>
<path d="M93.3534 11.1913C95.5788 11.1913 96.7926 12.4594 96.7926 14.5776V15.6344H96.8477C98.6455 12.5146 101.611 10.8742 104.944 10.8742C108.278 10.8742 111.138 12.6708 112.568 16.1123H112.623C114.42 12.7259 117.598 10.8742 121.303 10.8742C126.439 10.8742 130.039 14.4719 130.039 21.3458V35.2037C130.039 37.3173 128.821 38.59 126.6 38.59C124.379 38.59 123.161 37.3219 123.161 35.2037V21.9798C123.161 18.5429 121.257 16.6912 118.554 16.6912C115.643 16.6912 113.418 18.8048 113.418 23.3031V35.2037C113.418 37.3173 112.2 38.59 109.979 38.59C107.758 38.59 106.54 37.3219 106.54 35.2037V21.9798C106.54 18.5429 104.636 16.6912 101.933 16.6912C99.0225 16.6912 96.7972 18.8048 96.7972 23.3031V35.2037C96.7972 37.3173 95.5282 38.59 93.358 38.59C91.1879 38.59 89.9189 37.3219 89.9189 35.2037V14.573C89.9189 12.4594 91.1373 11.1867 93.358 11.1867L93.3534 11.1913Z" fill="#1CB600"/>
<path d="M147.823 22.0855H150.895V21.0793C150.895 18.2764 149.308 16.6866 146.499 16.6866C144.062 16.6866 142.637 17.7986 141.681 18.6946C140.885 19.4343 139.989 20.1235 138.77 20.1235C137.129 20.1235 135.699 18.8002 135.699 17.1094C135.699 13.9895 140.568 10.8696 146.922 10.8696C153.594 10.8696 157.667 14.256 157.667 20.4452V35.2037C157.667 37.3173 156.449 38.59 154.279 38.59C152.109 38.59 150.89 37.3219 150.89 35.2037V33.669H150.835C149.249 37.1059 146.122 38.9071 142.315 38.9071C137.18 38.9071 133.846 35.6815 133.846 30.8156C133.846 25.5776 137.814 22.0855 147.819 22.0855H147.823ZM144.752 33.7747C148.297 33.7747 150.89 31.2889 150.89 27.4798V26.6344H148.03C142.315 26.6344 140.674 28.2747 140.674 30.4435C140.674 32.6122 142.154 33.7747 144.747 33.7747H144.752Z" fill="#1CB600"/>
<path d="M161.745 32.9292C161.745 31.2889 163.014 29.9656 164.711 29.9656C165.718 29.9656 166.564 30.4435 167.677 31.4451C168.895 32.5019 170.431 33.5082 172.863 33.5082C175.295 33.5082 176.408 32.4514 176.408 30.9167C176.408 29.3821 175.35 28.3758 171.484 27.4798C164.656 25.8395 161.902 22.8253 161.902 18.8554C161.902 14.1457 165.819 10.8696 172.274 10.8696C177.939 10.8696 182.173 13.4611 182.173 16.4247C182.173 18.0651 180.849 19.3332 179.208 19.3332C178.201 19.3332 177.355 18.8554 176.454 18.0099C175.553 17.1645 174.228 16.2639 172.058 16.2639C169.727 16.2639 168.725 17.2702 168.725 18.644C168.725 20.1235 169.732 21.1298 173.911 22.1866C180.583 23.827 183.332 26.5792 183.332 30.7008C183.332 35.3048 179.626 38.8979 172.532 38.8979C166.339 38.8979 161.732 36.0399 161.732 32.9201L161.745 32.9292Z" fill="#1CB600"/>
<path d="M193.029 4.04636C195.254 4.04636 196.468 5.31452 196.468 7.43272V11.6645H201.075C202.873 11.6645 203.935 12.7213 203.935 14.573C203.935 16.4247 202.877 17.4815 201.075 17.4815H196.468V29.9105C196.468 32.0792 197.42 32.9247 198.693 32.9247C199.857 32.9247 200.652 32.1849 201.765 32.1849C203.194 32.1849 204.413 33.3474 204.413 34.9877C204.413 37.423 201.714 38.9025 198.008 38.9025C192.822 38.9025 189.594 35.8883 189.594 30.4389V17.4769H187.369C185.571 17.4769 184.509 16.4201 184.509 14.5684C184.509 12.7167 185.567 11.6599 187.369 11.6599H189.594V7.43272C189.594 5.31452 190.813 4.04636 193.033 4.04636H193.029Z" fill="#1CB600"/>
<path d="M219.075 10.8696C226.381 10.8696 231.25 15.685 231.25 22.6139C231.25 25.3111 229.82 26.6344 227.65 26.6344H212.882C213.36 30.7054 215.953 32.9798 219.604 32.9798C221.613 32.9798 222.781 32.2906 224.156 31.1832C225.057 30.494 225.903 29.9656 226.96 29.9656C228.547 29.9656 229.871 31.1832 229.871 32.8741C229.871 35.8378 225.636 38.9025 219.604 38.9025C211.296 38.9025 205.788 33.4025 205.788 24.8838C205.788 16.365 211.241 10.865 219.075 10.865V10.8696ZM224.845 22.0855C224.528 18.5429 222.252 16.5304 219.075 16.5304C215.898 16.5304 213.305 18.7543 212.882 22.0855H224.845Z" fill="#1CB600"/>
<path d="M238.662 11.1913C240.887 11.1913 242.101 12.4594 242.101 14.5776V15.9515H242.156C243.637 12.7259 246.124 11.3475 248.616 11.3475C250.841 11.3475 252.005 12.4594 252.005 14.4168C252.005 16.3742 250.841 17.5367 248.248 17.5367H247.508C244.119 17.5367 242.11 19.2827 242.11 23.8821V35.1485C242.11 37.2116 240.892 38.4798 238.671 38.4798C236.45 38.4798 235.232 37.2116 235.232 35.1485V14.573C235.232 12.4594 236.45 11.1867 238.671 11.1867L238.662 11.1913Z" fill="#1CB600"/>
<path d="M88.5901 47.9634C88.5901 46.1117 89.6476 45.0549 91.4499 45.0549H106.112C108.227 45.0549 109.607 46.4288 109.607 48.4918C109.607 49.8657 109.023 50.9271 107.597 52.6685L96.7466 65.6304V65.6856H107.225C109.023 65.6856 110.085 66.7424 110.085 68.5941C110.085 70.4458 109.027 71.5026 107.225 71.5026H91.5557C89.4407 71.5026 88.0614 70.1287 88.0614 68.0657C88.0614 66.6367 88.6959 65.7912 89.6476 64.6287L101.133 50.9271V50.8719H91.4453C89.6476 50.8719 88.5855 49.8151 88.5855 47.9634H88.5901Z" fill="#1CB600"/>
<path d="M125.115 44.26C133.106 44.26 138.72 49.8657 138.72 58.2787C138.72 66.6918 133.11 72.2975 125.115 72.2975C117.119 72.2975 111.51 66.6918 111.51 58.2787C111.51 49.8657 117.119 44.26 125.115 44.26ZM125.115 66.4253C128.766 66.4253 131.625 63.5674 131.625 58.2787C131.625 52.9901 128.766 50.1322 125.115 50.1322C121.464 50.1322 118.604 52.9901 118.604 58.2787C118.604 63.5674 121.464 66.4253 125.115 66.4253Z" fill="#1CB600"/>
<path d="M155.341 44.26C163.332 44.26 168.946 49.8657 168.946 58.2787C168.946 66.6918 163.336 72.2975 155.341 72.2975C147.345 72.2975 141.736 66.6918 141.736 58.2787C141.736 49.8657 147.345 44.26 155.341 44.26ZM155.341 66.4253C158.991 66.4253 161.851 63.5674 161.851 58.2787C161.851 52.9901 158.991 50.1322 155.341 50.1322C151.69 50.1322 148.83 52.9901 148.83 58.2787C148.83 63.5674 151.69 66.4253 155.341 66.4253Z" fill="#1CB600"/>
</svg>
