<svg width="152" height="26" viewBox="0 0 152 26" fill="none" xmlns="http://www.w3.org/2000/svg">
<circle cx="6.10936" cy="5.83519" r="5.84447" fill="#FF9401"/>
<circle cx="20.2777" cy="19.8288" r="5.84447" fill="#5FC9A8"/>
<path fill-rule="evenodd" clip-rule="evenodd" d="M20.2956 11.6796C23.5152 11.67 26.1222 9.05703 26.1222 5.83519C26.1222 2.60738 23.5055 -0.00927734 20.2777 -0.00927734C17.0499 -0.00927734 14.4333 2.60738 14.4333 5.83519C14.4333 5.87892 14.4337 5.92253 14.4347 5.96602C14.4229 6.27165 14.4164 6.58045 14.4098 6.89004C14.3338 10.4704 14.2555 14.1566 6.09016 14.2685C6.00868 14.2652 5.92678 14.2635 5.84447 14.2635C2.61666 14.2635 0 16.8801 0 20.1079C0 23.3358 2.61666 25.9524 5.84447 25.9524C9.07228 25.9524 11.6889 23.3358 11.6889 20.1079C11.6889 19.8546 11.6728 19.6051 11.6416 19.3602C11.4071 16.2967 12.1107 12.0111 20.2956 11.6796Z" fill="#2E2E2E"/>
<path fill-rule="evenodd" clip-rule="evenodd" d="M45.6263 20.1085V5.19678C45.281 5.25432 44.8998 5.30468 44.4826 5.34784C44.0797 5.391 43.7273 5.41258 43.4251 5.41258C42.8641 5.41258 42.3462 5.3838 41.8714 5.32626C41.3966 5.26871 40.9219 5.23994 40.4471 5.23994C39.8285 5.23994 39.2027 5.33345 38.5697 5.52048C37.951 5.69311 37.39 5.98804 36.8864 6.40525C36.3398 6.89439 35.9441 7.50583 35.6995 8.23954C35.455 8.97326 35.3327 9.8868 35.3327 10.9802H33.7358V11.4118H35.3327V20.1085C35.3327 20.7127 35.2176 21.1227 34.9874 21.3385C34.7572 21.5543 34.3688 21.6622 33.8221 21.6622V22.1154C34.1242 22.101 34.563 22.0866 35.1385 22.0722C35.7139 22.0435 36.3182 22.0291 36.9512 22.0291C37.5698 22.0291 38.174 22.0435 38.7639 22.0722C39.3681 22.0866 39.8357 22.101 40.1666 22.1154V21.6622C39.6199 21.6622 39.1955 21.5615 38.8934 21.3601C38.5913 21.1443 38.4402 20.7271 38.4402 20.1085V11.4118H40.7061V10.9802H38.4402V9.79329C38.4402 8.90132 38.4762 8.18919 38.5481 7.65688C38.62 7.12458 38.807 6.69298 39.1092 6.36209C39.2962 6.13191 39.5192 5.95207 39.7781 5.82259C40.0515 5.69311 40.3896 5.62837 40.7924 5.62837C41.037 5.62837 41.2815 5.67153 41.5261 5.75785C41.7707 5.84417 41.9649 5.96646 42.1088 6.12471C42.2383 6.25419 42.339 6.42683 42.4109 6.64263C42.4828 6.85843 42.5188 7.15335 42.5188 7.5274V20.1085C42.5188 20.7127 42.4109 21.1227 42.1951 21.3385C41.9937 21.5543 41.6412 21.6622 41.1377 21.6622V22.1154C41.4254 22.101 41.857 22.0866 42.4325 22.0722C43.0079 22.0435 43.5762 22.0291 44.1373 22.0291C44.7127 22.0291 45.281 22.0435 45.8421 22.0722C46.4176 22.0866 46.8492 22.101 47.1369 22.1154V21.6622C46.5902 21.6622 46.2018 21.5543 45.9716 21.3385C45.7414 21.1227 45.6263 20.7127 45.6263 20.1085ZM56.4242 11.7786C55.7048 11.0305 54.7121 10.6565 53.4461 10.6565C52.4247 10.6565 51.5111 10.8795 50.7055 11.3255C49.9142 11.7571 49.2884 12.4188 48.828 13.3108C48.3821 14.2028 48.1591 15.3177 48.1591 16.6557C48.1591 17.9649 48.3677 19.0439 48.7849 19.8927C49.2165 20.7415 49.8063 21.3745 50.5544 21.7917C51.3025 22.2089 52.1657 22.4175 53.144 22.4175C53.9497 22.4175 54.6402 22.2521 55.2157 21.9212C55.7911 21.5903 56.2659 21.1659 56.64 20.648C57.014 20.1301 57.2873 19.5977 57.46 19.0511L57.0716 18.9216C56.7838 19.3819 56.4745 19.7416 56.1436 20.0006C55.8127 20.2451 55.4818 20.4178 55.1509 20.5185C54.8344 20.6048 54.5251 20.648 54.223 20.648C53.777 20.648 53.3382 20.5113 52.9066 20.238C52.475 19.9502 52.1154 19.497 51.8276 18.8784C51.5543 18.2598 51.4176 17.4541 51.4176 16.4615V15.8788C51.429 15.7306 51.4404 15.5869 51.4518 15.4477H57.0584V15.4472H57.5031C57.5031 13.7496 57.1435 12.5267 56.4242 11.7786ZM51.4055 15.0324H54.7842C54.7983 14.3293 54.7551 13.6835 54.6546 13.095C54.5539 12.4908 54.3956 12.0088 54.1798 11.6492C53.964 11.2895 53.6763 11.1097 53.3166 11.1097C52.8131 11.1097 52.3815 11.4262 52.0219 12.0592C51.6907 12.6664 51.4852 13.6575 51.4055 15.0324ZM63.2274 10.9586V11.4118C62.9396 11.4118 62.7238 11.4765 62.58 11.606C62.4505 11.7355 62.4577 11.9153 62.6016 12.1455L64.6354 15.1691H64.6431L65.4501 14.0877C65.8385 13.5842 66.0759 13.1382 66.1622 12.7497C66.2486 12.3613 66.1838 12.0448 65.968 11.8002C65.7666 11.5556 65.4069 11.419 64.889 11.3902V10.9586C65.3062 10.973 65.7306 10.9874 66.1622 11.0018C66.5938 11.0162 66.9823 11.0233 67.3276 11.0233C67.6584 11.0233 67.9462 11.0162 68.1907 11.0018C68.4353 10.9874 68.6583 10.973 68.8597 10.9586V11.3902C68.5576 11.4765 68.2411 11.6635 67.9102 11.9513C67.5793 12.239 67.234 12.6059 66.8744 13.0519L64.8896 15.5418V15.5471L68.2771 20.5832C68.4497 20.8422 68.6295 21.0796 68.8166 21.2954C69.018 21.4968 69.241 21.6191 69.4855 21.6622V22.1154C69.2697 22.101 68.9389 22.0866 68.4929 22.0722C68.0613 22.0435 67.6225 22.0291 67.1765 22.0291C66.6586 22.0291 66.1263 22.0435 65.5796 22.0722C65.0329 22.0866 64.6301 22.101 64.3711 22.1154V21.6622C64.6588 21.6622 64.8674 21.5975 64.9969 21.468C65.1408 21.3385 65.1408 21.1587 64.9969 20.9285L62.749 17.5865H62.7398L61.9973 18.5331C61.5657 19.0942 61.3283 19.6121 61.2852 20.0869C61.242 20.5473 61.3643 20.9213 61.652 21.209C61.9398 21.4824 62.3354 21.6406 62.8389 21.6838V22.1154C62.5656 22.101 62.2275 22.0938 61.8247 22.0938C61.4362 22.0794 61.055 22.0722 60.681 22.0722C60.3069 22.0579 59.9904 22.0507 59.7314 22.0507C59.4149 22.0507 59.1344 22.0579 58.8898 22.0722C58.6596 22.0722 58.4366 22.0866 58.2208 22.1154V21.6838C58.5517 21.5543 58.8682 21.3673 59.1704 21.1227C59.4725 20.8638 59.8106 20.4969 60.1846 20.0222L62.4884 17.2108V17.1991L59.3214 12.4908C59.0768 12.1311 58.8682 11.8722 58.6956 11.7139C58.5374 11.5413 58.3431 11.4406 58.1129 11.4118V10.9586L59.2135 11.0233C59.7027 11.0377 60.1918 11.0449 60.681 11.0449C61.1557 11.0449 61.6377 11.0377 62.1268 11.0233L63.2274 10.9586ZM74.9265 16.5478C74.8002 16.4789 74.6372 16.4329 74.4376 16.4098H74.387V20.1085C74.387 20.7127 74.4805 21.1227 74.6676 21.3385C74.869 21.5543 75.2071 21.6622 75.6818 21.6622V22.1154C75.4085 22.101 75.0057 22.0866 74.4734 22.0722C73.9554 22.0435 73.4231 22.0291 72.8764 22.0291C72.3154 22.0291 71.7471 22.0435 71.1716 22.0722C70.6106 22.0866 70.1862 22.101 69.8984 22.1154V21.6622C70.402 21.6622 70.7544 21.5543 70.9558 21.3385C71.1716 21.1227 71.2795 20.7127 71.2795 20.1085V7.80794C71.2795 7.16055 71.1788 6.68579 70.9774 6.38367C70.7904 6.06717 70.4307 5.90891 69.8984 5.90891V5.45574C70.3588 5.4989 70.8048 5.52048 71.2364 5.52048C71.8262 5.52048 72.3873 5.4989 72.9196 5.45574C73.4519 5.39819 73.9411 5.31906 74.387 5.21836V15.9749H74.3901C74.6452 15.9451 74.8671 15.8986 75.056 15.8357C75.2862 15.7637 75.4948 15.6271 75.6818 15.4256L77.3219 13.8287C77.811 13.3684 78.0556 12.9583 78.0556 12.5987C78.0556 12.239 77.8974 11.9513 77.5809 11.7355C77.2787 11.5197 76.8759 11.4046 76.3724 11.3902V10.9586C76.7752 10.973 77.214 10.9874 77.6888 11.0018C78.1635 11.0162 78.5663 11.0233 78.8972 11.0233H79.8036C80.1345 11.009 80.4438 11.0018 80.7315 11.0018C81.0193 10.9874 81.2494 10.973 81.4221 10.9586V11.3902C80.9761 11.4765 80.5301 11.6635 80.0841 11.9513C79.6381 12.239 79.185 12.6059 78.7246 13.0519L77.3552 14.4746L77.3483 14.4846L80.9689 20.5401C81.1272 20.799 81.2926 21.0292 81.4652 21.2306C81.6379 21.432 81.8465 21.5759 82.0911 21.6622V22.1154C81.8753 22.101 81.5516 22.0866 81.12 22.0722C80.6884 22.0435 80.2568 22.0291 79.8252 22.0291C79.2929 22.0291 78.7606 22.0435 78.2283 22.0722C77.696 22.0866 77.3003 22.101 77.0414 22.1154V21.6622C77.3291 21.6622 77.5233 21.5975 77.624 21.468C77.7247 21.3241 77.7103 21.1443 77.5809 20.9285L75.4445 17.0657C75.2718 16.7924 75.0992 16.6197 74.9265 16.5478ZM87.6915 10.6565C88.9576 10.6565 89.9502 11.0305 90.6696 11.7786C91.3889 12.5267 91.7486 13.7496 91.7486 15.4472H86.0654V15.45H85.697C85.6857 15.5885 85.6744 15.7314 85.663 15.8788V16.4615C85.663 17.4541 85.7997 18.2598 86.073 18.8784C86.3608 19.497 86.7204 19.9502 87.152 20.238C87.5836 20.5113 88.0224 20.648 88.4684 20.648C88.7705 20.648 89.0798 20.6048 89.3964 20.5185C89.7272 20.4178 90.0581 20.2451 90.389 20.0006C90.7199 19.7416 91.0292 19.3819 91.317 18.9216L91.7054 19.0511C91.5328 19.5977 91.2594 20.1301 90.8854 20.648C90.5113 21.1659 90.0366 21.5903 89.4611 21.9212C88.8856 22.2521 88.1951 22.4175 87.3894 22.4175C86.4111 22.4175 85.5479 22.2089 84.7998 21.7917C84.0517 21.3745 83.4619 20.7415 83.0303 19.8927C82.6131 19.0439 82.4045 17.9649 82.4045 16.6557C82.4045 15.3177 82.6275 14.2028 83.0734 13.3108C83.5338 12.4188 84.1596 11.7571 84.9509 11.3255C85.7565 10.8795 86.6701 10.6565 87.6915 10.6565ZM89.0295 15.0372H85.6507C85.7301 13.6598 85.9357 12.6671 86.2673 12.0592C86.6269 11.4262 87.0585 11.1097 87.5621 11.1097C87.9217 11.1097 88.2095 11.2895 88.4253 11.6492C88.6411 12.0088 88.7993 12.4908 88.9 13.095C89.0007 13.6849 89.0439 14.3323 89.0295 15.0372ZM97.3789 10.9586V7.4195C96.9329 7.66408 96.4509 7.84391 95.933 7.959C95.4295 8.05971 94.8756 8.11006 94.2714 8.11006V10.9586H92.4587V11.3902H94.2714V18.6842C94.2714 19.4323 94.3217 20.0437 94.4224 20.5185C94.5231 20.9789 94.7318 21.3673 95.0483 21.6838C95.2928 21.9284 95.5949 22.1082 95.9546 22.2233C96.3143 22.3528 96.7315 22.4175 97.2062 22.4175C98.0119 22.4175 98.6449 22.2089 99.1053 21.7917C99.58 21.3745 99.9325 20.8422 100.163 20.1948L99.7958 20.0006C99.5944 20.4753 99.3642 20.8134 99.1053 21.0148C98.8463 21.2019 98.5873 21.2954 98.3284 21.2954C98.0119 21.2954 97.7745 21.209 97.6163 21.0364C97.458 20.8494 97.3789 20.5401 97.3789 20.1085V11.3902H99.9253V10.9586H97.3789ZM106.068 10.6565C107.118 10.6565 108.039 10.8507 108.83 11.2391C109.622 11.6276 110.24 12.2534 110.686 13.1166C111.132 13.9798 111.355 15.1235 111.355 16.5478C111.355 17.9721 111.132 19.1158 110.686 19.979C110.24 20.8278 109.622 21.4464 108.83 21.8349C108.039 22.2233 107.118 22.4175 106.068 22.4175C105.047 22.4175 104.133 22.2233 103.328 21.8349C102.536 21.4464 101.91 20.8278 101.45 19.979C101.004 19.1158 100.781 17.9721 100.781 16.5478C100.781 15.1235 101.004 13.9798 101.45 13.1166C101.91 12.2534 102.536 11.6276 103.328 11.2391C104.133 10.8507 105.047 10.6565 106.068 10.6565ZM106.068 11.0881C105.493 11.0881 105.011 11.5197 104.622 12.3829C104.234 13.2317 104.04 14.62 104.04 16.5478C104.04 18.4756 104.234 19.8639 104.622 20.7127C105.011 21.5615 105.493 21.9859 106.068 21.9859C106.658 21.9859 107.14 21.5615 107.514 20.7127C107.902 19.8639 108.097 18.4756 108.097 16.5478C108.097 14.62 107.902 13.2317 107.514 12.3829C107.14 11.5197 106.658 11.0881 106.068 11.0881ZM116.894 20.1085V5.21836C116.448 5.31906 115.959 5.39819 115.427 5.45574C114.894 5.4989 114.333 5.52048 113.743 5.52048C113.312 5.52048 112.866 5.4989 112.405 5.45574V5.90891C112.938 5.90891 113.297 6.06717 113.484 6.38367C113.686 6.68579 113.786 7.16055 113.786 7.80794V20.1085C113.786 20.7127 113.679 21.1227 113.463 21.3385C113.261 21.5543 112.909 21.6622 112.405 21.6622V22.1154C112.693 22.101 113.118 22.0866 113.679 22.0722C114.254 22.0435 114.822 22.0291 115.383 22.0291C115.944 22.0291 116.498 22.0435 117.045 22.0722C117.592 22.0866 118.002 22.101 118.275 22.1154V21.6622C117.772 21.6622 117.412 21.5543 117.196 21.3385C116.995 21.1227 116.894 20.7127 116.894 20.1085ZM122.171 22.2665C121.524 22.2665 120.984 22.1442 120.553 21.8996C120.121 21.655 119.805 21.3313 119.603 20.9285C119.402 20.5113 119.301 20.0581 119.301 19.569C119.301 18.9504 119.438 18.4468 119.711 18.0584C119.999 17.6699 120.366 17.3534 120.812 17.1089C121.258 16.8643 121.725 16.6629 122.214 16.5046C122.718 16.3464 123.193 16.1953 123.639 16.0515C124.099 15.8932 124.466 15.7134 124.739 15.512C125.027 15.2962 125.171 15.0228 125.171 14.6919V13.0087C125.171 12.6346 125.106 12.3038 124.977 12.016C124.862 11.7139 124.675 11.4837 124.416 11.3255C124.171 11.1672 123.847 11.0881 123.445 11.0881C123.157 11.0881 122.869 11.1312 122.581 11.2176C122.294 11.2895 122.056 11.419 121.869 11.606C122.272 11.7499 122.581 11.9729 122.797 12.275C123.027 12.5627 123.142 12.8936 123.142 13.2677C123.142 13.7568 122.97 14.1452 122.624 14.433C122.294 14.7207 121.898 14.8646 121.438 14.8646C120.92 14.8646 120.524 14.7063 120.251 14.3898C119.992 14.0589 119.862 13.6633 119.862 13.2029C119.862 12.7857 119.963 12.4404 120.164 12.1671C120.38 11.8937 120.675 11.6348 121.049 11.3902C121.452 11.16 121.934 10.9802 122.495 10.8507C123.07 10.7212 123.689 10.6565 124.351 10.6565C125.013 10.6565 125.61 10.7284 126.142 10.8723C126.674 11.0018 127.12 11.2463 127.48 11.606C127.811 11.9369 128.027 12.3469 128.127 12.8361C128.228 13.3108 128.278 13.915 128.278 14.6488V20.5185C128.278 20.8782 128.314 21.1299 128.386 21.2738C128.458 21.4033 128.581 21.468 128.753 21.468C128.883 21.468 129.005 21.432 129.12 21.3601C129.249 21.2882 129.386 21.2019 129.53 21.1011L129.746 21.468C129.444 21.727 129.091 21.9284 128.688 22.0722C128.3 22.2017 127.861 22.2665 127.372 22.2665C126.84 22.2665 126.415 22.1945 126.099 22.0507C125.782 21.8924 125.552 21.6838 125.408 21.4248C125.279 21.1659 125.214 20.8638 125.214 20.5185C124.869 21.0652 124.452 21.4968 123.962 21.8133C123.473 22.1154 122.876 22.2665 122.171 22.2665ZM123.703 20.8853C123.991 20.8853 124.25 20.8206 124.48 20.6911C124.725 20.5473 124.955 20.3171 125.171 20.0006V15.5767C125.041 15.7925 124.862 15.9867 124.631 16.1594C124.401 16.332 124.157 16.5118 123.898 16.6989C123.639 16.8715 123.387 17.0657 123.142 17.2815C122.912 17.4973 122.725 17.7635 122.581 18.08C122.437 18.3965 122.366 18.7777 122.366 19.2237C122.366 19.7848 122.488 20.202 122.732 20.4753C122.977 20.7487 123.301 20.8853 123.703 20.8853ZM140.548 12.0376C139.815 11.1169 138.887 10.6565 137.764 10.6565C136.944 10.6565 136.225 10.8723 135.606 11.3039C135.109 11.6392 134.728 12.1045 134.463 12.7V12.4408H134.463V5.23994C134.017 5.34064 133.528 5.41977 132.995 5.47732C132.463 5.52048 131.902 5.54206 131.312 5.54206C130.88 5.54206 130.434 5.52048 129.974 5.47732V5.93049C130.506 5.93049 130.866 6.08875 131.053 6.40525C131.255 6.70737 131.355 7.18213 131.355 7.82952V21.058C131.355 21.2594 131.341 21.4608 131.312 21.6622C131.298 21.8636 131.262 22.065 131.204 22.2665L131.528 22.4607C131.744 22.2737 132.01 22.1154 132.326 21.9859C132.643 21.8421 132.988 21.7414 133.362 21.6838C133.687 21.6338 134.006 21.6273 134.321 21.6641L134.324 21.6664C134.557 21.8551 134.812 22.0048 135.089 22.1154C135.592 22.3168 136.139 22.4175 136.729 22.4175C137.621 22.4175 138.441 22.2161 139.189 21.8133C139.937 21.4105 140.534 20.7559 140.98 19.8495C141.44 18.9432 141.67 17.7419 141.67 16.2457C141.67 14.3466 141.296 12.944 140.548 12.0376ZM134.463 13.4483V21.3872C134.63 21.5252 134.809 21.6385 135.002 21.727C135.362 21.8852 135.714 21.9643 136.06 21.9643C136.851 21.9643 137.441 21.5184 137.829 20.6264C138.218 19.7344 138.412 18.3749 138.412 16.5478C138.412 15.3105 138.333 14.3323 138.174 13.6129C138.031 12.8792 137.815 12.3613 137.527 12.0592C137.239 11.7427 136.894 11.5844 136.491 11.5844C135.988 11.5844 135.527 11.793 135.11 12.2102C134.786 12.5231 134.571 12.9358 134.463 13.4483ZM147.28 10.6565C147.884 10.6565 148.409 10.7356 148.855 10.8939C149.316 11.0377 149.646 11.1816 149.848 11.3255C150.337 11.6564 150.639 11.4406 150.754 10.6781H151.207C151.179 11.0809 151.157 11.5772 151.143 12.1671C151.128 12.7425 151.121 13.5122 151.121 14.4761H150.668C150.596 13.9438 150.459 13.4187 150.258 12.9008C150.056 12.3829 149.762 11.9585 149.373 11.6276C148.999 11.2967 148.51 11.1312 147.906 11.1312C147.488 11.1312 147.136 11.2535 146.848 11.4981C146.56 11.7283 146.417 12.0664 146.417 12.5124C146.417 12.944 146.546 13.3252 146.805 13.6561C147.064 13.9726 147.395 14.2819 147.798 14.584C148.215 14.8718 148.647 15.1811 149.093 15.512C149.567 15.8716 149.999 16.2313 150.387 16.591C150.776 16.9362 151.085 17.3175 151.315 17.7347C151.545 18.1519 151.661 18.6482 151.661 19.2237C151.661 19.8711 151.474 20.4394 151.099 20.9285C150.725 21.4033 150.229 21.7701 149.61 22.0291C149.006 22.288 148.33 22.4175 147.582 22.4175C147.15 22.4175 146.762 22.3744 146.417 22.288C146.086 22.2017 145.798 22.0938 145.553 21.9643C145.366 21.878 145.187 21.7989 145.014 21.727C144.856 21.6406 144.705 21.5687 144.561 21.5112C144.417 21.468 144.287 21.5184 144.172 21.6622C144.072 21.8061 143.992 22.0075 143.935 22.2665H143.482C143.511 21.8061 143.532 21.245 143.547 20.5832C143.561 19.9214 143.568 19.0439 143.568 17.9505H144.021C144.108 18.7274 144.266 19.4179 144.496 20.0222C144.726 20.612 145.036 21.0796 145.424 21.4248C145.827 21.7557 146.33 21.9212 146.935 21.9212C147.179 21.9212 147.416 21.8708 147.647 21.7701C147.877 21.6694 148.064 21.504 148.208 21.2738C148.366 21.0436 148.445 20.7487 148.445 20.389C148.445 19.756 148.237 19.2309 147.819 18.8137C147.416 18.3965 146.899 17.9433 146.266 17.4541C145.805 17.0801 145.366 16.7132 144.949 16.3536C144.546 15.9795 144.215 15.5767 143.957 15.1451C143.698 14.6991 143.568 14.1956 143.568 13.6345C143.568 12.9871 143.741 12.4404 144.086 11.9944C144.431 11.5485 144.884 11.2176 145.446 11.0018C146.021 10.7716 146.632 10.6565 147.28 10.6565Z" fill="#2E2E2E"/>
</svg>
