<svg width="152" height="26" fill="none" xmlns="http://www.w3.org/2000/svg"><circle cx="6.109" cy="5.835" r="5.844" fill="#FF9401"/><circle cx="20.278" cy="19.829" r="5.844" fill="#5FC9A8"/><path fill-rule="evenodd" clip-rule="evenodd" d="M20.296 11.68a5.844 5.844 0 1 0-5.861-5.714c-.012.306-.019.614-.025.924-.076 3.58-.155 7.267-8.32 7.378a5.844 5.844 0 1 0 5.551 5.092c-.234-3.063.47-7.349 8.655-7.68Zm25.33 8.428V5.197c-.345.057-.726.108-1.143.15a9.909 9.909 0 0 1-1.058.066 12.96 12.96 0 0 1-1.554-.087c-.474-.057-.95-.086-1.424-.086-.619 0-1.244.093-1.877.28a4.514 4.514 0 0 0-1.684.885A4.19 4.19 0 0 0 35.7 8.24c-.244.733-.366 1.647-.366 2.74h-1.597v.432h1.597v8.696c0 .605-.115 1.015-.346 1.23-.23.216-.618.324-1.165.324v.453c.302-.014.741-.028 1.316-.043a37.31 37.31 0 0 1 3.625 0 76.37 76.37 0 0 1 1.404.043v-.453c-.547 0-.971-.1-1.274-.302-.302-.216-.453-.633-.453-1.252v-8.696h2.266v-.432H38.44V9.793c0-.892.036-1.604.108-2.136.072-.532.259-.964.561-1.295.187-.23.41-.41.67-.54.272-.129.61-.194 1.013-.194.245 0 .49.044.734.13.245.086.439.208.583.367.13.13.23.302.302.518.072.215.108.51.108.884v12.581c0 .605-.108 1.015-.324 1.23-.201.216-.554.324-1.057.324v.453a63.42 63.42 0 0 1 1.294-.043 34.223 34.223 0 0 1 3.41 0c.576.015 1.007.029 1.295.043v-.453c-.547 0-.935-.108-1.165-.323-.23-.216-.346-.626-.346-1.23Zm10.798-8.33c-.72-.748-1.712-1.122-2.978-1.122-1.021 0-1.935.223-2.74.67-.792.431-1.418 1.093-1.878 1.985-.446.892-.669 2.007-.669 3.345 0 1.309.209 2.388.626 3.237.432.848 1.021 1.482 1.77 1.899.748.417 1.61.625 2.589.625.806 0 1.496-.165 2.072-.496a4.498 4.498 0 0 0 1.424-1.273c.374-.518.647-1.05.82-1.597l-.388-.13c-.288.46-.598.82-.928 1.08a3.288 3.288 0 0 1-.993.517c-.317.087-.626.13-.928.13-.446 0-.885-.137-1.316-.41-.432-.288-.792-.741-1.08-1.36-.273-.618-.41-1.424-.41-2.416v-.583l.035-.431h6.051c0-1.698-.36-2.921-1.079-3.67Zm-5.018 3.254h3.378a10.272 10.272 0 0 0-.13-1.937c-.1-.604-.258-1.086-.474-1.446-.216-.36-.504-.54-.863-.54-.504 0-.935.317-1.295.95-.331.607-.537 1.599-.616 2.973Zm11.821-4.073v.453c-.287 0-.503.064-.647.194-.13.13-.122.31.022.54l2.033 3.023h.008l.807-1.081c.388-.504.626-.95.712-1.338.087-.389.022-.705-.194-.95-.201-.244-.561-.381-1.079-.41v-.431l1.273.043c.432.014.82.021 1.166.021.33 0 .618-.007.863-.021.244-.015.467-.029.669-.043v.431c-.302.086-.619.274-.95.561a8.67 8.67 0 0 0-1.036 1.1l-1.984 2.49v.006l3.387 5.036c.173.26.352.497.54.712.201.202.424.324.669.367v.453a31.885 31.885 0 0 0-.993-.043c-.432-.028-.87-.043-1.316-.043-.518 0-1.05.015-1.597.043-.547.015-.95.029-1.209.043v-.453c.288 0 .496-.064.626-.194.144-.13.144-.31 0-.54l-2.248-3.341h-.01l-.742.946c-.431.561-.669 1.08-.712 1.554-.043.46.08.834.367 1.122.288.273.683.432 1.187.475v.431a19.817 19.817 0 0 0-1.014-.021 29.67 29.67 0 0 0-1.144-.022c-.374-.014-.69-.021-.95-.021-.316 0-.597.007-.841.021-.23 0-.453.015-.67.043v-.431c.332-.13.648-.317.95-.561.302-.26.64-.626 1.015-1.1l2.303-2.812v-.012l-3.167-4.708c-.244-.36-.453-.619-.625-.777a.923.923 0 0 0-.583-.302v-.453l1.1.064a49.87 49.87 0 0 0 2.914 0l1.1-.064Zm11.7 5.589a1.347 1.347 0 0 0-.49-.138h-.05v3.698c0 .605.094 1.015.28 1.23.202.216.54.324 1.015.324v.453a51.314 51.314 0 0 0-1.209-.043 28.875 28.875 0 0 0-1.597-.043c-.56 0-1.129.015-1.704.043-.561.015-.986.029-1.274.043v-.453c.504 0 .856-.108 1.058-.323.216-.216.323-.626.323-1.23V7.807c0-.647-.1-1.122-.302-1.424-.187-.317-.546-.475-1.079-.475v-.453c.46.043.907.064 1.338.064.59 0 1.151-.021 1.684-.064a13.05 13.05 0 0 0 1.467-.238v10.757h.003a3.29 3.29 0 0 0 .666-.14c.23-.071.439-.208.626-.41l1.64-1.596c.489-.46.734-.87.734-1.23s-.159-.648-.475-.864c-.302-.215-.705-.33-1.209-.345v-.431l1.317.043c.475.014.877.021 1.208.021h.907c.33-.014.64-.021.927-.021.288-.015.518-.029.691-.043v.431a3.805 3.805 0 0 0-1.338.561 8.95 8.95 0 0 0-1.36 1.1l-1.369 1.424-.007.01 3.62 6.055c.16.259.325.49.497.69.173.202.382.346.626.432v.453c-.216-.014-.54-.028-.971-.043a19.51 19.51 0 0 0-1.295-.043c-.532 0-1.064.015-1.597.043-.532.015-.928.029-1.187.043v-.453c.288 0 .482-.064.583-.194.1-.144.086-.324-.043-.54l-2.136-3.862c-.173-.274-.346-.446-.518-.518Zm12.764-5.891c1.267 0 2.26.373 2.979 1.122.719.748 1.079 1.97 1.079 3.668h-5.684v.003h-.368l-.034.429v.583c0 .992.137 1.798.41 2.416.288.619.647 1.072 1.079 1.36.432.273.87.41 1.316.41.302 0 .612-.043.928-.13.331-.1.662-.273.993-.517.33-.26.64-.62.928-1.08l.388.13a5.619 5.619 0 0 1-.82 1.597 4.497 4.497 0 0 1-1.424 1.273c-.575.331-1.266.497-2.072.497-.978 0-1.841-.21-2.59-.626-.747-.418-1.337-1.05-1.769-1.9-.417-.848-.626-1.927-.626-3.236 0-1.338.224-2.453.67-3.345.46-.892 1.086-1.554 1.877-1.986.806-.445 1.72-.668 2.74-.668Zm1.338 4.38h-3.378c.08-1.377.285-2.37.616-2.978.36-.633.791-.95 1.295-.95.36 0 .648.18.863.54.216.36.374.842.475 1.446.1.59.144 1.237.13 1.942Zm8.35-4.078v-3.54a5.448 5.448 0 0 1-1.446.54c-.504.1-1.057.151-1.662.151v2.849H92.46v.431h1.812v7.294c0 .748.05 1.36.151 1.834.101.46.31.85.626 1.166.245.244.547.424.907.54.36.129.776.194 1.251.194.806 0 1.439-.21 1.9-.626.474-.418.827-.95 1.057-1.597L99.796 20c-.202.474-.432.812-.69 1.014-.26.187-.519.28-.778.28-.316 0-.553-.086-.712-.259-.158-.187-.237-.496-.237-.928V11.39h2.546v-.431H97.38Zm8.689-.303c1.05 0 1.971.195 2.762.583.792.389 1.41 1.014 1.856 1.878.446.863.669 2.006.669 3.43 0 1.425-.223 2.569-.669 3.432-.446.849-1.064 1.467-1.856 1.856-.791.388-1.712.582-2.762.582-1.021 0-1.935-.194-2.74-.582-.792-.389-1.418-1.007-1.878-1.856-.446-.863-.669-2.007-.669-3.431s.223-2.568.669-3.431c.46-.864 1.086-1.49 1.878-1.878.805-.388 1.719-.583 2.74-.583Zm0 .432c-.575 0-1.057.432-1.446 1.295-.388.849-.582 2.237-.582 4.165s.194 3.316.582 4.165c.389.848.871 1.273 1.446 1.273.59 0 1.072-.425 1.446-1.273.388-.85.583-2.237.583-4.165s-.195-3.316-.583-4.165c-.374-.863-.856-1.295-1.446-1.295Zm10.826 9.02V5.218c-.446.101-.935.18-1.467.238a20.97 20.97 0 0 1-1.684.064c-.431 0-.877-.021-1.338-.064v.453c.533 0 .892.158 1.079.475.202.302.302.777.302 1.424v12.3c0 .605-.107 1.015-.323 1.23-.202.216-.554.324-1.058.324v.453c.288-.014.713-.028 1.274-.043a34.182 34.182 0 0 1 1.704-.043 32.5 32.5 0 0 1 1.662.043c.547.015.957.029 1.23.043v-.453c-.503 0-.863-.108-1.079-.323-.201-.216-.302-.626-.302-1.23Zm5.277 2.159c-.647 0-1.187-.123-1.618-.367a2.287 2.287 0 0 1-.95-.971 3.091 3.091 0 0 1-.302-1.36c0-.619.137-1.122.41-1.51a3.359 3.359 0 0 1 1.101-.95 8.088 8.088 0 0 1 1.402-.604c.504-.159.979-.31 1.425-.453.46-.159.827-.339 1.1-.54.288-.216.432-.49.432-.82v-1.683c0-.374-.065-.705-.194-.993a1.34 1.34 0 0 0-.561-.69c-.245-.159-.569-.238-.971-.238-.288 0-.576.043-.864.13a1.499 1.499 0 0 0-.712.388c.403.144.712.367.928.669.23.288.345.619.345.993 0 .489-.172.877-.518 1.165-.33.288-.726.432-1.186.432-.518 0-.914-.159-1.187-.475-.259-.331-.389-.727-.389-1.187 0-.417.101-.763.302-1.036.216-.273.511-.532.885-.777a5.32 5.32 0 0 1 1.446-.54 8.44 8.44 0 0 1 1.856-.194c.662 0 1.259.072 1.791.216.532.13.978.374 1.338.734.331.33.547.74.647 1.23.101.475.151 1.079.151 1.813v5.87c0 .36.036.61.108.755.072.13.195.194.367.194a.68.68 0 0 0 .367-.108c.129-.072.266-.158.41-.259l.216.367c-.302.259-.655.46-1.058.604-.388.13-.827.195-1.316.195-.532 0-.957-.072-1.273-.216-.317-.159-.547-.367-.691-.626a2.008 2.008 0 0 1-.194-.907 4.139 4.139 0 0 1-1.252 1.295c-.489.302-1.086.454-1.791.454Zm1.532-1.382c.288 0 .547-.064.777-.194.245-.144.475-.374.691-.69v-4.424c-.13.216-.309.41-.54.582-.23.173-.474.353-.733.54a7.108 7.108 0 0 0-.756.582c-.23.216-.417.483-.561.799-.144.317-.215.698-.215 1.144 0 .56.122.978.366 1.251.245.274.569.41.971.41Zm16.845-8.847c-.733-.921-1.661-1.382-2.784-1.382-.82 0-1.539.216-2.158.648-.497.335-.878.8-1.143 1.396V5.24c-.446.1-.935.18-1.468.237-.532.043-1.093.065-1.683.065-.432 0-.878-.022-1.338-.065v.453c.532 0 .892.159 1.079.475.202.302.302.777.302 1.425v13.228c0 .201-.014.403-.043.604a2.91 2.91 0 0 1-.108.605l.324.194a2.86 2.86 0 0 1 .798-.475 3.95 3.95 0 0 1 1.036-.302 3.55 3.55 0 0 1 .959-.02l.003.002c.233.19.488.339.765.45a4.4 4.4 0 0 0 1.64.302c.892 0 1.712-.202 2.46-.605.748-.402 1.345-1.057 1.791-1.963.46-.907.69-2.108.69-3.604 0-1.9-.374-3.302-1.122-4.208Zm-6.085 1.41v7.94c.167.137.346.25.539.339.36.158.712.237 1.058.237.791 0 1.381-.446 1.769-1.338.389-.892.583-2.251.583-4.078 0-1.237-.079-2.216-.238-2.935-.143-.734-.359-1.252-.647-1.554-.288-.316-.633-.475-1.036-.475-.503 0-.964.209-1.381.626-.324.313-.539.726-.647 1.238Zm12.817-2.792c.604 0 1.129.08 1.575.238.461.144.791.288.993.431.489.331.791.116.906-.647h.453c-.028.403-.05.9-.064 1.49a93.532 93.532 0 0 0-.022 2.308h-.453a6.899 6.899 0 0 0-.41-1.575 3.126 3.126 0 0 0-.885-1.273c-.374-.331-.863-.497-1.467-.497-.418 0-.77.123-1.058.367-.288.23-.431.568-.431 1.014 0 .432.129.813.388 1.144.259.317.59.626.993.928.417.288.849.597 1.295.928.474.36.906.72 1.294 1.079.389.345.698.726.928 1.144.23.417.346.913.346 1.489 0 .647-.187 1.215-.562 1.704-.374.475-.87.842-1.489 1.101-.604.259-1.28.389-2.028.389-.432 0-.82-.044-1.165-.13a4.02 4.02 0 0 1-.864-.324 15.33 15.33 0 0 0-.539-.237 4.18 4.18 0 0 0-.453-.216c-.144-.043-.274.007-.389.151-.1.144-.18.346-.237.605h-.453c.029-.46.05-1.022.065-1.684.014-.662.021-1.54.021-2.632h.453c.087.776.245 1.467.475 2.071.23.59.54 1.058.928 1.403.403.33.906.496 1.511.496.244 0 .481-.05.712-.15.23-.102.417-.267.561-.497.158-.23.237-.525.237-.885 0-.633-.208-1.158-.626-1.575-.403-.418-.92-.87-1.553-1.36-.461-.374-.9-.74-1.317-1.1a5.51 5.51 0 0 1-.992-1.209 2.953 2.953 0 0 1-.389-1.51c0-.648.173-1.195.518-1.64a3.07 3.07 0 0 1 1.36-.993 4.887 4.887 0 0 1 1.834-.346Z" fill="#2E2E2E"/></svg>